<?xml version="1.0" encoding="utf-8"?>
<!-- Generator: Adobe Illustrator 24.1.3, SVG Export Plug-In . SVG Version: 6.00 Build 0)  -->
<svg version="1.1" id="Layer_1" xmlns="http://www.w3.org/2000/svg" xmlns:xlink="http://www.w3.org/1999/xlink" x="0px" y="0px"
	 viewBox="0 0 405 310" style="enable-background:new 0 0 405 310;" xml:space="preserve">
<style type="text/css">
	.st0{fill:#407BFF;}
	.st1{opacity:0.7;fill:#FFFFFF;enable-background:new    ;}
	.st2{fill:#263238;stroke:#263238;stroke-width:0.9699;stroke-linecap:round;stroke-linejoin:round;}
	.st3{fill:none;stroke:#FFFFFF;stroke-width:0.4849;stroke-linecap:round;stroke-linejoin:round;}
	.st4{fill:#FFFFFF;}
	.st5{fill:none;stroke:#263238;stroke-width:0.9699;stroke-linecap:round;stroke-linejoin:round;}
	.st6{fill:#407BFF;stroke:#263238;stroke-width:0.9699;stroke-linecap:round;stroke-linejoin:round;}
	.st7{opacity:0.4;fill:#FFFFFF;stroke:#263238;stroke-width:1.1669;stroke-miterlimit:10;enable-background:new    ;}
	.st8{fill:#263238;}
	.st9{clip-path:url(#SVGID_2_);}
	.st10{opacity:0.3;fill:#407BFF;enable-background:new    ;}
	.st11{clip-path:url(#SVGID_4_);}
	.st12{clip-path:url(#SVGID_6_);}
	.st13{fill:#FFFFFF;stroke:#263238;stroke-width:0.9699;stroke-linecap:round;stroke-linejoin:round;}
	.st14{clip-path:url(#SVGID_8_);}
	.st15{fill:none;stroke:#FFFFFF;stroke-width:0.9699;stroke-linecap:round;stroke-linejoin:round;}
	.st16{opacity:0.7;fill:#407BFF;enable-background:new    ;}
	.st17{opacity:0.7;}
</style>
<g id="freepik--Characters--inject-410">
	<path class="st0" d="M44.16,134.44c-0.55,0.66-1.11,1.36-1.71,2.16c-7.44,10-3.56,31-8.08,38.75s-15.84,5.53-18.1,17.71
		s-1,24.9-2.91,31s-9.37,10-10.67,17.16S1,253.57,1,253.57l43.16-1.42V134.44z"/>
	<path class="st1" d="M44.16,134.44c-0.55,0.66-1.11,1.36-1.71,2.16c-7.44,10-3.56,31-8.08,38.75s-15.84,5.53-18.1,17.71
		s-1,24.9-2.91,31s-9.37,10-10.67,17.16S1,253.57,1,253.57l43.16-1.42V134.44z"/>
	<polyline class="st2" points="197.64,252.6 153.32,257.72 166.93,270.32 197.49,267.67 	"/>
	<line class="st3" x1="167.77" y1="259.73" x2="196.16" y2="256.63"/>
	<line class="st3" x1="169.99" y1="262.83" x2="195.72" y2="260.62"/>
	<line class="st3" x1="172.65" y1="265.49" x2="196.16" y2="263.27"/>
	<line class="st3" x1="170.6" y1="257.91" x2="178.69" y2="266.73"/>
	<line class="st3" x1="176.59" y1="257.62" x2="184.63" y2="265.93"/>
	<line class="st3" x1="182.81" y1="256.73" x2="190.84" y2="265.04"/>
	<line class="st3" x1="189.46" y1="256.29" x2="196.16" y2="263.27"/>
	<path class="st4" d="M152.32,147.66c-1.46-0.62-8.22-26.93-8.22-26.93l-3.48-9.92c0,0-5.23-17.85-7.23-21.17s-10-6-10-6l-3-1.65
		l-13-7v0.07l-1.87-3.91l-22.38-18c0,0,0.4,4.34,1,8.62c-0.06,0-4.66,3-6.3,5.63c-0.31,0.49-0.58,1.54-1.82,4.29
		c-5,2.58-23.83,12.45-30.06,17.26c-7.31,5.63-8.64,9.61-8.31,12.93l0.34,5.3c0,0,3.12,19,6.37,28.37l-0.4-0.19l-0.11,116.62
		l93.63-3.55l0.15-86.63c3.2-1.05,6.53-2.28,8.54-3.17l0.5,0.45l4.22,3.09c1.38,1.03,3.16,1.36,4.81,0.89
		c1.79-0.51,0.67-2.63-0.63-3.33c-0.99-0.67-1.92-1.4-2.8-2.21l-3.9-4.86c2.34,0.42,6.09,1.08,7.65,1.3c2.32,0.33,5.31,1,5.64-2
		S154.65,148.66,152.32,147.66z"/>
	<path class="st5" d="M83.25,53.19c0,0,1.27,14.1,2.1,16.64c0.75,2.3,4.54,14.85,7.86,20.48c3.32,5.63,7.37,5,8-1.32
		c0.63-6.32,0.31-16.57,0.31-16.57"/>
	<path class="st5" d="M84.01,62.1c0,0-4.41,2.69-6.07,5.34S69.3,94.62,69.3,94.62l13.28,0.67l-11.29,5"/>
	<path class="st5" d="M71.63,103.24c0,0,11.29,18.57,12.95,20.57c1.02,1.24,1.91,2.58,2.65,4"/>
	<path class="st5" d="M84.91,67.81c0,0,5.64,23.21,9,35.47s6.57,27.53,6.57,27.53"/>
	<path class="st5" d="M101.48,75.07c0,0,1.33,26.85,1.33,37.46v16.9"/>
	<polyline class="st5" points="106.16,72.41 115.13,90.65 107.82,92.97 119.11,99.26 108.82,131.42 	"/>
	<line class="st5" x1="107.49" y1="75.07" x2="120.44" y2="82.03"/>
	<line class="st5" x1="130.74" y1="102.25" x2="132.4" y2="133.41"/>
	<path class="st5" d="M75.94,71.75c0,0-22.58,11.6-29.88,17.24s-8.64,9.61-8.31,12.93"/>
	<line class="st5" x1="44.06" y1="135.4" x2="44.06" y2="251.42"/>
	<line class="st5" x1="102.51" y1="163.91" x2="102.51" y2="247.12"/>
	<path class="st5" d="M52.17,100.27c0,0,7.62,2.67,11,9.14"/>
	<path class="st5" d="M57.12,99.89c0,0,6.86,2.67,9.91,9.14"/>
	<polyline class="st5" points="52.55,206.38 77.83,206.38 77.83,211.34 53.45,211.34 	"/>
	<path class="st0" d="M146.03,125.11c-2.38-6-4.37-11-5.41-14.29c0.11,4.03-1.44,7.93-4.29,10.78c-6.9,6.74-8.85,4.4-8.54,13.76
		s4,13.61,1.69,21.59s-12.36,15.86-12,29.68c0.13,3.03,0.97,5.99,2.46,8.63l-41.62,55.55l59.52-1.75v-79.47L146.03,125.11z"/>
	<path class="st1" d="M146.03,125.11c-2.38-6-4.37-11-5.41-14.29c0.11,4.03-1.44,7.93-4.29,10.78c-6.9,6.74-8.85,4.4-8.54,13.76
		s4,13.61,1.69,21.59s-12.36,15.86-12,29.68c0.13,3.03,0.97,5.99,2.46,8.63l-41.62,55.55l59.52-1.75v-79.47L146.03,125.11z"/>
	<line class="st5" x1="137.89" y1="211.09" x2="137.89" y2="245.62"/>
	<path class="st4" d="M118.48,25.67c2-0.33,11.95-6.63,10.29-12.93S113.14-1.19,102.18,2.47c-6.6,2.2-12.7,5.69-17.94,10.27
		c0,0-7.3,0-10,3s-0.66,7.62,1,10.94c1.44,2.87,1.38,10.48,1.34,12.45c-0.09,0-0.18,0.02-0.26,0.06c-1.12,0.62-1.93,1.69-2.22,2.94
		c-0.45,2,0.38,4.67,2.4,7.69c1.37,2.3,3.8,3.76,6.48,3.87l0,0c0.87,1,1.57,2.12,2.09,3.34c0.84,2,9.21,14.84,14,15.21
		c0.69,0.06,1.35,0.08,2,0.08c4.13,0,7.13-1.11,8.74-3.25c2.13-2.83,7.41-14.24,8.07-19.79c0.11-1,0.17-2.25,0.2-3.75
		c1.52-1.93,1.52-4.64,0-6.57c-0.11-5.87-0.42-11.95-0.5-13.35C117.87,25.7,118.18,25.72,118.48,25.67z"/>
	<path class="st5" d="M117.12,25.34c0,0,1,18.23,0.33,23.87s-6,16.9-8,19.56s-6,3.31-10.29,3s-12.62-12.6-13.62-14.92
		c-0.55-1.34-1.34-2.57-2.32-3.64c0,0-3.65,0.33-6.31-3.65s-3.65-8-0.33-9.95"/>
	<path class="st5" d="M102.84,43.24c0,0,2.33-4,4.65-1.66l1.66,10.61l-5,1.33l0.66,5.3"/>
	<ellipse class="st6" cx="97.86" cy="43.24" rx="4.98" ry="4.97"/>
	<ellipse class="st7" cx="97.86" cy="43.24" rx="4.98" ry="4.97"/>
	<path class="st6" d="M118.78,42.25c0-2.76-2.24-5-5-5s-5,2.24-5,5s2.24,5,5,5S118.78,45.01,118.78,42.25z"/>
	<path class="st7" d="M118.78,42.25c0-2.76-2.24-5-5-5s-5,2.24-5,5s2.24,5,5,5S118.78,45.01,118.78,42.25z"/>
	<line class="st5" x1="92.88" y1="43.24" x2="82.92" y2="43.9"/>
	<path class="st5" d="M92.96,36.33c0,0,2.67-2.66,7.63-1.14"/>
	<path class="st5" d="M109.74,34.81c0,0,5-2.66,6.48,0.76"/>
	<path class="st8" d="M86.9,26c0,0,2.66,6.3,3.32,7.3s-3.32,5.63-3.32,5.63v4.64l-4,0.33l-4-3.64l-2.32-0.67
		c0,0,0.33-9.61-1.33-12.92s-3.65-8-1-10.94s10-3,10-3c5.24-4.58,11.34-8.07,17.94-10.27c11-3.65,24.9,4,26.56,10.27
		s-8.27,12.61-10.27,12.94s-5-3.64-8-3.64h-4.65c-3.32,0-3.65-0.34-7.31-0.34S86.9,26,86.9,26z"/>
	<path class="st3" d="M91.06,20.56c0,0,5.67-3.14,8.51-8.49s-6.62-2.83-9.14,0.63s3.47,2.2,3.47,2.2"/>
	<path class="st3" d="M86.9,26c0,0-3.4,3.68-7.81,4"/>
	<path class="st3" d="M88.54,30.63c0,0-6,2.83-9.14,2.83"/>
	<path class="st3" d="M79.4,35.97c0,0,4.73,1,7.25,0"/>
	<path class="st3" d="M96.1,21.19c0,0,2.52-0.31,10.71-3.14s11-6,5.67-10.07"/>
	<path class="st4" d="M260.7,198.97c0,0-13.05-34.71-16.4-38.05s-20.14-13.57-20.14-13.57l-1.35-2.31l-0.82-2.81
		c0,0-1-4.23-3.88-6.32l-0.23-0.49l-19.8-8.48c0,0,0.14,2.62,0.35,5.78c-2.34,0.85-7.53,3.13-9.31,7.19
		c-1.16,2.63-1.82,7-2.15,11.11l-0.81,0.6l0.3-1.1c0,0-21.92,12.29-22.91,14.29c-1.28,1.68-4.59,12.45-4.59,12.45
		s-3.3,10.35-6.93,21.78c-5.12,15.72-10.07,31.43-10.39,33.94c0,0.23,0,0.12,0,0.12c-0.33,4.31,16.13,20.2,16.13,20.2h0.22l2,2
		c0,0,0-0.2,0-0.83c1.39,2.83,3.66,7,5.46,6.12c1.48-0.73,1-3.3-0.2-6.65c1.49,2.27,3.2,3.92,4.56,3.26
		c2.35-1.16,1.18-5.17-1.18-10.91c-0.41-0.99-1.24-1.75-2.26-2.07c0.76-0.08,1.53-0.16,2.32-0.26c0.79,3.67,2.56,6.85,4.55,6.43
		s2.29-3,1.89-7.39c0.2,0,0.47-0.59,0.67-0.62c0.88,3.09,2.23,5.84,3.93,5.48c1.87-0.4,2.38-2.26,2.16-6c0-1.39-0.1-1.84-0.15-2.72
		c0.73,0.45,4.31,2.61,4.72,2.92c1.33,1,11.45-1.16,11.45-1.16c14.78-4.78,38.41-5,53.67-15.22
		C261.77,218.81,260.7,198.97,260.7,198.97z M167.54,227.36l4-26.32l1.59,24l-0.47,5.92L167.54,227.36z"/>
	<path class="st8" d="M163.61,164.24l23.81-14c0,0,1.49-12.76,4.53-14.06c0,0,4.18-3.65,8.93-2.93c2.72,0.4,4.73-3,6.27-8.92
		c0-11.71-0.16-26.66-0.28-36c-1-4.61-2.08-8.35-2.44-9.81l-11.22-4.71c0,0-2.4-8.1-14.74-9.91c-12.34-1.81-25.57,11.42-27.08,20.43
		s7.22,18.62,3.91,23.73s-17.15,12.61-20.76,21.32s-2.71,14.72-2.71,14.72s9.93,14.11,7.22,18.92s-18.65,9.31-18.35,23.43
		c0.28,13.08,13.23,22.29,27.58,24L163.61,164.24z"/>
	<path class="st3" d="M189.66,76.22c0,0-8.5-9.74-19.21-6.6s-14.81,14.47-12.6,20.13s7.24,10.37,3.46,18.86s-13.23,9.75-18,19.5
		s-3.46,12.9-3.46,12.9"/>
	<path class="st3" d="M183.99,84.4c0,0-7.87,0.94-7.87,6s4.41,7.54,5,13.83s-1.26,8.81-6,16.67s-5,11.95-1.57,17.3
		s5.67,14.15,1.26,17.29"/>
	<path class="st3" d="M185.88,78.11c0,0-9.45-5-17-0.31s2.52,14.15,3.78,22.95c1.26,8.8-5,15.1-13.54,24.53
		c-5.06,5.77-7.36,13.46-6.3,21.07"/>
	<path class="st3" d="M152.18,157.36c0,0,2.2,4.71-3.79,11s-18.9,7.87-22,17.3s3.09,14.47,3.09,14.47"/>
	<path class="st4" d="M198.15,126.41c0,0,0.66,12.64,1.33,15.95s3.34,15.13,4.35,25.57c0.49,5.42,1.49,10.77,3,16
		c0,0,8.09,31.42,8.57-8.05c0.17-13.92-1.33-35.8-1.33-35.8l0.66-6.63"/>
	<g>
		<defs>
			<path id="SVGID_1_" d="M198.15,126.41c0,0,0.66,12.64,1.33,15.95s3.34,15.13,4.35,25.57c0.49,5.42,1.49,10.77,3,16
				c0,0,8.09,31.42,8.57-8.05c0.17-13.92-1.33-35.8-1.33-35.8l0.66-6.63"/>
		</defs>
		<clipPath id="SVGID_2_">
			<use xlink:href="#SVGID_1_"  style="overflow:visible;"/>
		</clipPath>
		<g class="st9">
			<path class="st10" d="M211.68,134.49l-12.2,7.87l-0.78-13.29C198.7,129.07,206.85,133.89,211.68,134.49z"/>
			<path class="st10" d="M214.09,140.04c0,0-0.4,22.56-1.5,32.1c-0.61,6.06,0.02,12.19,1.84,18
				C214.43,190.14,215.96,155.24,214.09,140.04z"/>
		</g>
	</g>
	<path class="st5" d="M198.15,126.41c0,0,0.66,12.64,1.33,15.95s3.34,15.13,4.35,25.57c0.49,5.42,1.49,10.77,3,16
		c0,0,8.09,31.42,8.57-8.05c0.17-13.92-1.33-35.8-1.33-35.8l0.66-6.63"/>
	<polygon class="st0" points="189.35,179.37 187.24,183.89 201.12,197.44 	"/>
	<polygon class="st1" points="189.35,179.37 187.24,183.89 201.12,197.44 	"/>
	<path class="st0" d="M173.18,189.36c0,0,4.64-10.72,6.1-8.28s-7.81,12.91-4.15,14.37s9-3.9,7.32,0.48s-4.63,9.5-4.63,11.7
		s1,23.87,1,23.87l0.25,1.46l-2.93,2c0,0-3.17-3.17-3.17-5.85s-0.49-13.4-0.49-15.83s-1.14-11-1.14-11L173.18,189.36z"/>
	<path class="st1" d="M173.18,189.36c0,0,4.64-10.72,6.1-8.28s-7.81,12.91-4.15,14.37s9-3.9,7.32,0.48s-4.63,9.5-4.63,11.7
		s1,23.87,1,23.87l0.25,1.46l-2.93,2c0,0-3.17-3.17-3.17-5.85s-0.49-13.4-0.49-15.83s-1-11.6-1-11.6L173.18,189.36z"/>
	<path class="st4" d="M198.31,132.64c0,0-6.8,1.43-9.13,6.74s-2.65,17.57-2.32,20.88c0.18,2.66,0.18,5.34,0,8l9.3-3"/>
	<g>
		<defs>
			<path id="SVGID_3_" d="M198.31,132.64c0,0-6.8,1.43-9.13,6.74s-2.65,17.57-2.32,20.88c0.18,2.66,0.18,5.34,0,8l9.3-3"/>
		</defs>
		<clipPath id="SVGID_4_">
			<use xlink:href="#SVGID_3_"  style="overflow:visible;"/>
		</clipPath>
		<g class="st11">
			<path class="st10" d="M199.59,141.06c-2.8,0.07-5.5,1.09-7.64,2.89c-3.93,3.09-4.34,8.66-4.34,8.66s-1.24-6.6,1.24-12.37
				s9.46-7.6,9.46-7.6L199.59,141.06z"/>
		</g>
	</g>
	<path class="st5" d="M198.31,132.64c0,0-6.8,1.43-9.13,6.74s-2.65,17.57-2.32,20.88c0.18,2.66,0.18,5.34,0,8l9.3-3"/>
	<path class="st5" d="M198.48,165.9l-10.29,11.6c0,0,7.64,11.93,11.29,15.91"/>
	<path class="st5" d="M224.72,191.75l5.31-20.22l-9.3-7l7.31-2.32l-6-20.55c0,0-1.11-5.16-5-6.82"/>
	<path class="st5" d="M203.48,155.95c0,0,3.32,4,7,3.32s3.65-2.65,3.65-2.65"/>
	<g>
		<defs>
			<path id="SVGID_5_" d="M186.53,149.99c0,0-21.92,12.26-22.92,14.25s-21.58,64-21.91,68.29s16.27,20.55,16.27,20.55"/>
		</defs>
		<clipPath id="SVGID_6_">
			<use xlink:href="#SVGID_5_"  style="overflow:visible;"/>
		</clipPath>
		<g class="st12">
			<path class="st0" d="M170.99,160.13c0,0-5.37,5.85-5.13,7.31s6.59,4.14,5.13,5.84s-5.13-2.43-5.86-1.7s-14.15,46.52-12.93,47.23
				s4.15-1.95,4.88-0.24s-12.2,6.57-9.52,8s9.27-1.71,8-1.22s-4.88,5.11-3.9,7.06s11.43,11.83,11.43,11.83
				c-1.28,0.53-1.91,1.97-1.43,3.27c0.28,1.26,0.99,2.38,2,3.17c0,0-2.8-2.31-3.23,0.19c-0.24,1.3-0.39,2.62-0.43,3.95l-6.85-6.78
				c-5.58-5.68-10.12-11-11.46-15.57c0,0-0.24,0.67,1.23-4.69s16.1-51.15,16.1-51.15s3.31-10.78,4.58-12.45
				S170.99,160.13,170.99,160.13z"/>
			<path class="st1" d="M170.99,160.13c0,0-5.37,5.85-5.13,7.31s6.59,4.14,5.13,5.84s-5.13-2.43-5.86-1.7s-14.15,46.52-12.93,47.23
				s4.15-1.95,4.88-0.24s-12.2,6.57-9.52,8s9.27-1.71,8-1.22s-4.88,5.11-3.9,7.06s11.43,11.83,11.43,11.83
				c-1.28,0.53-1.91,1.97-1.43,3.27c0.28,1.26,0.99,2.38,2,3.17c0,0-2.8-2.31-3.23,0.19s-0.65,4.14-0.65,4.14l-6.63-7
				c-6.92-6.91-11.2-12.36-11.46-15.57c0,0-0.81,1.52,1.23-4.69c1.73-5.28,16.1-51.15,16.1-51.15s3.31-10.78,4.58-12.45
				S170.99,160.13,170.99,160.13z"/>
			<polygon class="st0" points="183.01,153.47 183.01,172.14 194.78,169.13 198.7,164.61 186.63,167.02 187.42,150.19 			"/>
			<polygon class="st1" points="183.01,153.47 183.01,172.14 194.78,169.13 198.7,164.61 186.63,167.02 187.42,150.19 			"/>
		</g>
	</g>
	<path class="st5" d="M186.53,149.99c0,0-21.92,12.26-22.92,14.25s-21.58,64-21.91,68.29s16.27,20.55,16.27,20.55"/>
	<line class="st5" x1="174.24" y1="181.15" x2="167.6" y2="226.89"/>
	<line class="st5" x1="174.9" y1="178.49" x2="175.9" y2="173.85"/>
	<path class="st5" d="M148.67,229.55c0,0,4.32-6,10.63-5.64s15.6,9.28,15.6,9.28"/>
	<path class="st5" d="M150.66,222.58c2.87-2.58,7.13-2.85,10.3-0.66"/>
	<path class="st13" d="M181.48,236.39c-0.25-1.94-2.03-3.3-3.97-3.05c-0.36,0.05-0.7,0.15-1.03,0.3c-0.83,0.42-1.38,1.24-1.45,2.17
		c-0.37,3.65,1.87,12.62,4.87,12C182.39,247.25,182.31,242.53,181.48,236.39z"/>
	<path class="st13" d="M174.8,239.04c-0.26-1.94-2.04-3.3-3.98-3.04c-0.35,0.05-0.7,0.15-1.02,0.3c-0.83,0.41-1.39,1.23-1.45,2.16
		c-0.37,3.65,1.87,12.62,4.87,12C175.75,249.9,175.67,245.19,174.8,239.04z"/>
	<path class="st13" d="M168.7,245.72c-0.73-1.82-2.79-2.71-4.61-1.98c-0.34,0.14-0.66,0.33-0.95,0.56
		c-0.71,0.61-1.04,1.54-0.87,2.46c0.54,3.62,4.94,11.81,7.67,10.42C172.29,255.98,170.99,251.14,168.7,245.72z"/>
	<path class="st13" d="M164.4,252.12c-0.53-1.36-2.07-2.02-3.42-1.49c-0.26,0.1-0.51,0.25-0.73,0.43c-0.53,0.46-0.78,1.15-0.66,1.84
		c0.41,2.71,3.69,8.79,5.74,7.78C167.09,259.81,166.16,256.42,164.4,252.12z"/>
	<path class="st5" d="M181.99,238.81c0,0,2.6,2.81,4.53,3.41c1.59,0.49,9.86-1,9.86-1"/>
	<path class="st5" d="M193.83,247.45c0,0-5.31,1.32-9,2s-7.64,1-7.64,1s-2.66,3.32-4.65,3.32"/>
	<path class="st5" d="M224.23,146.81c0,0,16.79,10.24,20.14,13.58s15.11,34.66,15.11,34.66"/>
	<line class="st5" x1="240.19" y1="169.16" x2="243.95" y2="196.31"/>
	<polygon class="st0" points="243.95,193.04 241.61,172.87 251.95,195.65 244.42,195.99 	"/>
	<polygon class="st1" points="243.95,193.04 241.61,172.87 251.95,195.65 244.42,195.99 	"/>
	<polyline class="st5" points="180.01,183.1 173.51,193.77 179.02,189.41 	"/>
	<path class="st5" d="M171.7,202.33c0,0,1.35,19.82,1.35,22.52s-0.38,6.26-0.38,6.26"/>
	<path class="st8" d="M185.53,102.91L185.53,102.91z"/>
	<path class="st4" d="M194.16,72.75c0,0-9.63,5.63-10.29,13.92c-0.32,5.47,0.24,10.95,1.66,16.24c0,0-3-2.65-3.32,3.32
		s4.65,10.6,6.64,10.6h2c0,0,4.43,9.1,9.75,13.41c5.32,4.31,10.51,4.5,14.16,3.17s10.63-7.29,11.3-15.25s0-21.22-0.67-29.5
		s-2.32-14.26-11.29-17.24S198.81,70.42,194.16,72.75z"/>
	<g>
		<defs>
			<path id="SVGID_7_" d="M194.16,72.75c0,0-9.63,5.63-10.29,13.92c-0.32,5.47,0.24,10.95,1.66,16.24c0,0-3-2.65-3.32,3.32
				s4.65,10.6,6.64,10.6h2c0,0,4.43,9.1,9.75,13.41c5.32,4.31,10.51,4.5,14.16,3.17s10.63-7.29,11.3-15.25s0-21.22-0.67-29.5
				s-2.32-14.26-11.29-17.24S198.81,70.42,194.16,72.75z"/>
		</defs>
		<clipPath id="SVGID_8_">
			<use xlink:href="#SVGID_7_"  style="overflow:visible;"/>
		</clipPath>
		<g class="st14">
			<path class="st10" d="M185.53,102.91c0,0-3-2.65-3.32,3.32s4.65,10.6,6.64,10.6h2c0,0,4.43,9.09,9.75,13.41l2.28,1.57
				c0.78,0.47,1.59,0.88,2.43,1.22c-1.79-2.2-5.68-7.27-7.51-11.83c-2.42-6-3-18.67-2.42-26.8s4.83-11.45,4.83-11.45l-6-0.3
				c-0.89,0-5.54,6.92-10.26,10.89L185.53,102.91z"/>
		</g>
	</g>
	<path class="st5" d="M194.16,72.75c0,0-9.63,5.63-10.29,13.92c-0.32,5.47,0.24,10.95,1.66,16.24c0,0-3-2.65-3.32,3.32
		s4.65,10.6,6.64,10.6h2c0,0,4.43,9.1,9.75,13.41c5.32,4.31,10.51,4.5,14.16,3.17s10.63-7.29,11.3-15.25s0-21.22-0.67-29.5
		s-2.32-14.26-11.29-17.24S198.81,70.42,194.16,72.75z"/>
	<path class="st5" d="M209.54,103.18c0,0,2.78-4.75,5.55-2l2,9.43l-4,0.82l0.38,5.89"/>
	<ellipse class="st6" cx="203.6" cy="103.18" rx="5.94" ry="5.93"/>
	<ellipse class="st7" cx="203.6" cy="103.18" rx="5.94" ry="5.93"/>
	<path class="st6" d="M228.57,101.99c0.01-3.29-2.65-5.95-5.94-5.96s-5.95,2.65-5.96,5.94c-0.01,3.27,2.63,5.93,5.9,5.96
		c3.28,0.03,5.97-2.6,6-5.88C228.57,102.03,228.57,102.01,228.57,101.99z"/>
	<path class="st7" d="M228.57,101.99c0.01-3.29-2.65-5.95-5.94-5.96s-5.95,2.65-5.96,5.94c-0.01,3.27,2.63,5.93,5.9,5.96
		c3.28,0.03,5.97-2.6,6-5.88C228.57,102.03,228.57,102.01,228.57,101.99z"/>
	<line class="st5" x1="197.66" y1="103.18" x2="185.77" y2="103.97"/>
	<path class="st5" d="M198.76,95.25c1.41-1.74,3.68-2.54,5.87-2.09"/>
	<path class="st5" d="M217.23,92.74c2.02-1.11,4.53-0.7,6.09,1"/>
	<path class="st8" d="M225.38,88.66c-0.66-8.29-2.32-14.26-11.29-17.24s-15.28-1-19.93,1.33c0,0-9.63,5.63-10.29,13.92
		c-0.32,5.47,0.24,10.95,1.66,16.24c0,0,2.66,2.65,3.32-1s-1.33-9.62,8-16.58s22.58-3.64,27.23,3c0.54,0.44,1.01,0.96,1.39,1.54
		C225.48,89.75,225.39,88.81,225.38,88.66z"/>
	<path class="st5" d="M80.26,125.45c0,0-8-1.32-14,2.66c-3.49,2.32-5.3,6.46-4.65,10.6"/>
	<path class="st5" d="M62.99,126.12c0,0-4,4.64-4,8.62"/>
	<path class="st5" d="M38.08,107.22c0,0,4,24.2,7.64,31.49s14,14.26,21.92,17.57s45.16,8.62,46.49,8.29s-6.31-7.29-4.65-15.91
		c0.83-4.28,6.64-8.62,6.64-8.62s-16.27-7-22.58-9.61c-6.31-2.61-13.28-5-13.28-5s-9-8.28-13.28-11.93
		c-3.94-3.1-8.04-5.97-12.29-8.62"/>
	<path class="st13" d="M147.89,152.12l4.34,5.4c0.88,0.81,1.81,1.54,2.8,2.21c1.3,0.7,2.42,2.82,0.63,3.33
		c-1.65,0.47-3.43,0.14-4.81-0.89l-4.22-3.09l-3.53-3.19l2.56-4.6L147.89,152.12z"/>
	<path class="st13" d="M116.12,140.04c0,0,10.3,2.32,13.62,3s20.26,3.65,22.58,4.64s9.63,1.33,9.3,4.31s-3.32,2.32-5.64,2
		s-9.64-1.65-9.64-1.65s2.33,4.31,1.67,5.3s-15.61,6.3-18.6,6.3s-5-5.31-6.31-7l-4-5l-8-3.64"/>
	<line class="st5" x1="146.34" y1="152.31" x2="144.02" y2="148.99"/>
	<path class="st5" d="M114.13,164.57c3.52-3.2,5.36-7.85,5-12.6"/>
	<line class="st5" x1="131.73" y1="156.28" x2="134.39" y2="162.58"/>
	<line class="st5" x1="138.37" y1="153.63" x2="141.03" y2="160.59"/>
	<polygon class="st2" points="202.14,202.03 202.14,279.93 306.08,273.97 306.08,196.73 	"/>
	<polygon class="st13" points="306.08,196.73 300.76,193.74 197.82,198.72 197.82,274.63 202.14,279.93 202.14,202.03 	"/>
	<line class="st5" x1="197.82" y1="198.72" x2="202.13" y2="202.03"/>
	<polygon class="st2" points="243.65,247.45 243.65,300.16 272.21,298.17 272.21,245.13 	"/>
	<polyline class="st15" points="242.76,277.29 242.76,247.45 272.21,245.13 272.29,275.44 	"/>
	<polyline class="st13" points="243.65,300.16 228.7,286.9 243.65,286.23 	"/>
	<path class="st16" d="M62.53,251.45l94.45,9.46c0,0-3.62-2.91-2.21-3.19c2.68-0.52,6.65-0.88,6.65-0.88l-8.33-8.78L62.53,251.45"/>
	<path class="st1" d="M62.53,251.45l94.45,9.46c0,0-3.62-2.91-2.21-3.19c2.68-0.52,6.65-0.88,6.65-0.88l-8.33-8.78L62.53,251.45"/>
	<line class="st5" x1="153.16" y1="248.1" x2="5.76" y2="253.35"/>
	<line class="st5" x1="305.37" y1="244.93" x2="404.73" y2="306.25"/>
	<polygon class="st0" points="124.76,260.37 72.75,266.72 106.26,301.91 162.32,294.98 	"/>
	<polygon class="st1" points="124.76,260.37 72.75,266.72 106.26,301.91 162.32,294.98 	"/>
	<polygon class="st4" points="71.59,274.22 117.82,268.45 151.34,302.48 98.17,309.98 	"/>
	<path class="st0" d="M99.76,305.03c-0.17,0-0.3-0.13-0.3-0.3c0-0.17,0.13-0.3,0.3-0.3l0,0l42.52-5.47c0.16-0.01,0.31,0.1,0.34,0.26
		c0.02,0.16-0.09,0.32-0.26,0.34c0,0-0.01,0-0.01,0l-42.51,5.47H99.76z"/>
	<path class="st0" d="M97.39,302.19c-0.17,0-0.3-0.13-0.3-0.3c0-0.17,0.13-0.3,0.3-0.3l0,0l42.52-5.47
		c0.17-0.02,0.32,0.09,0.34,0.26c0.02,0.17-0.09,0.32-0.26,0.34l-42.51,5.47H97.39z"/>
	<path class="st0" d="M95.03,299.35c-0.15,0-0.28-0.12-0.3-0.27c-0.02-0.16,0.1-0.31,0.26-0.34l42.49-5.47
		c0.16-0.01,0.31,0.11,0.34,0.27c0.02,0.16-0.1,0.31-0.27,0.33c0,0,0,0,0,0L95.03,299.35L95.03,299.35z"/>
	<path class="st0" d="M92.66,296.5c-0.17,0-0.3-0.13-0.3-0.3c0-0.17,0.13-0.3,0.3-0.3l0,0l42.52-5.47c0.16-0.02,0.31,0.1,0.34,0.26
		c0.02,0.16-0.09,0.32-0.25,0.34c0,0,0,0-0.01,0l-42.52,5.47H92.66z"/>
	<path class="st0" d="M90.3,293.66c-0.15,0-0.28-0.11-0.3-0.26c-0.02-0.16,0.09-0.32,0.25-0.34c0,0,0,0,0.01,0l42.52-5.47
		c0.16-0.02,0.31,0.1,0.34,0.26c0.02,0.16-0.09,0.32-0.26,0.34c0,0-0.01,0-0.01,0l-42.51,5.47H90.3z"/>
	<path class="st0" d="M87.93,290.81c-0.15,0-0.28-0.12-0.3-0.27c-0.01-0.16,0.1-0.31,0.26-0.34l42.52-5.47
		c0.17-0.02,0.32,0.1,0.34,0.27c0.02,0.16-0.1,0.31-0.26,0.33l-42.52,5.48H87.93z"/>
	<path class="st0" d="M85.57,287.97c-0.15,0-0.28-0.11-0.3-0.26c-0.02-0.16,0.09-0.32,0.25-0.34c0,0,0,0,0.01,0l42.52-5.47
		c0.16-0.01,0.31,0.1,0.34,0.26c0.02,0.16-0.09,0.32-0.26,0.34c0,0-0.01,0-0.01,0l-42.51,5.47H85.57z"/>
	<path class="st0" d="M83.2,285.13c-0.17,0-0.3-0.13-0.3-0.3c0-0.17,0.13-0.3,0.3-0.3l0,0l42.52-5.47c0.17-0.02,0.32,0.09,0.34,0.26
		c0.02,0.17-0.09,0.32-0.26,0.34l-42.52,5.47H83.2z"/>
	<path class="st0" d="M80.84,282.29c-0.15,0-0.28-0.12-0.3-0.27c-0.02-0.16,0.1-0.31,0.26-0.34l42.52-5.47
		c0.17-0.01,0.31,0.11,0.34,0.27c0.02,0.16-0.1,0.31-0.27,0.33c0,0,0,0,0,0l-42.51,5.48H80.84z"/>
	<path class="st0" d="M78.48,279.44c-0.17,0-0.3-0.13-0.3-0.3c0-0.17,0.13-0.3,0.3-0.3l0,0l42.52-5.47c0.16-0.02,0.31,0.1,0.34,0.26
		c0.02,0.16-0.09,0.32-0.25,0.34c0,0,0,0-0.01,0L78.48,279.44z"/>
	<g class="st17">
		<path class="st4" d="M99.76,305.03c-0.17,0-0.3-0.13-0.3-0.3c0-0.17,0.13-0.3,0.3-0.3l0,0l42.52-5.47
			c0.16-0.01,0.31,0.1,0.34,0.26c0.02,0.16-0.09,0.32-0.26,0.34c0,0-0.01,0-0.01,0l-42.51,5.47H99.76z"/>
		<path class="st4" d="M97.39,302.19c-0.17,0-0.3-0.13-0.3-0.3c0-0.17,0.13-0.3,0.3-0.3l0,0l42.52-5.47
			c0.17-0.02,0.32,0.09,0.34,0.26c0.02,0.17-0.09,0.32-0.26,0.34l-42.51,5.47H97.39z"/>
		<path class="st4" d="M95.03,299.35c-0.15,0-0.28-0.12-0.3-0.27c-0.02-0.16,0.1-0.31,0.26-0.34l42.49-5.47
			c0.16-0.01,0.31,0.11,0.34,0.27c0.02,0.16-0.1,0.31-0.27,0.33c0,0,0,0,0,0L95.03,299.35L95.03,299.35z"/>
		<path class="st4" d="M92.66,296.5c-0.17,0-0.3-0.13-0.3-0.3c0-0.17,0.13-0.3,0.3-0.3l0,0l42.52-5.47c0.16-0.02,0.31,0.1,0.34,0.26
			c0.02,0.16-0.09,0.32-0.25,0.34c0,0,0,0-0.01,0l-42.52,5.47H92.66z"/>
		<path class="st4" d="M90.3,293.66c-0.15,0-0.28-0.11-0.3-0.26c-0.02-0.16,0.09-0.32,0.25-0.34c0,0,0,0,0.01,0l42.52-5.47
			c0.16-0.02,0.31,0.1,0.34,0.26c0.02,0.16-0.09,0.32-0.26,0.34c0,0-0.01,0-0.01,0l-42.51,5.47H90.3z"/>
		<path class="st4" d="M87.93,290.81c-0.15,0-0.28-0.12-0.3-0.27c-0.01-0.16,0.1-0.31,0.26-0.34l42.52-5.47
			c0.17-0.02,0.32,0.1,0.34,0.27c0.02,0.16-0.1,0.31-0.26,0.33l-42.52,5.48H87.93z"/>
		<path class="st4" d="M85.57,287.97c-0.15,0-0.28-0.11-0.3-0.26c-0.02-0.16,0.09-0.32,0.25-0.34c0,0,0,0,0.01,0l42.52-5.47
			c0.16-0.01,0.31,0.1,0.34,0.26c0.02,0.16-0.09,0.32-0.26,0.34c0,0-0.01,0-0.01,0l-42.51,5.47H85.57z"/>
		<path class="st4" d="M83.2,285.13c-0.17,0-0.3-0.13-0.3-0.3c0-0.17,0.13-0.3,0.3-0.3l0,0l42.52-5.47
			c0.17-0.02,0.32,0.09,0.34,0.26c0.02,0.17-0.09,0.32-0.26,0.34l-42.52,5.47H83.2z"/>
		<path class="st4" d="M80.84,282.29c-0.15,0-0.28-0.12-0.3-0.27c-0.02-0.16,0.1-0.31,0.26-0.34l42.52-5.47
			c0.17-0.01,0.31,0.11,0.34,0.27c0.02,0.16-0.1,0.31-0.27,0.33c0,0,0,0,0,0l-42.51,5.48H80.84z"/>
		<path class="st4" d="M78.48,279.44c-0.17,0-0.3-0.13-0.3-0.3c0-0.17,0.13-0.3,0.3-0.3l0,0l42.52-5.47
			c0.16-0.02,0.31,0.1,0.34,0.26c0.02,0.16-0.09,0.32-0.25,0.34c0,0,0,0-0.01,0L78.48,279.44z"/>
	</g>
	<path class="st5" d="M123.48,83.68c0,0,8,2.66,10,6s7.14,21.13,7.14,21.13"/>
</g>
</svg>
