<?xml version="1.0" encoding="utf-8"?>
<!-- Generator: Adobe Illustrator 24.1.3, SVG Export Plug-In . SVG Version: 6.00 Build 0)  -->
<svg version="1.1" id="Layer_1" xmlns="http://www.w3.org/2000/svg" xmlns:xlink="http://www.w3.org/1999/xlink" x="0px" y="0px"
	 viewBox="0 0 390 340" style="enable-background:new 0 0 390 340;" xml:space="preserve">
<style type="text/css">
	.st0{fill:#407BFF;}
	.st1{opacity:0.9;fill:#FFFFFF;enable-background:new    ;}
	.st2{fill:#F5F5F5;}
	.st3{fill:#FFC3BD;}
	.st4{fill:#263238;}
	.st5{opacity:0.2;enable-background:new    ;}
	.st6{opacity:0.5;fill:#FFFFFF;enable-background:new    ;}
	.st7{fill:#ED847E;}
	.st8{opacity:0.7;fill:#407BFF;enable-background:new    ;}
	.st9{opacity:0.5;}
	.st10{fill:#FFFFFF;}
</style>
<g id="freepik--background-simple--inject-430">
	<path class="st0" d="M40.21,211.61c2,71.24,133.21,63.41,195.05,33.27c78.25-38.13,110.25-97.59,87.07-166.14
		c-23-67.92-112.43-82.56-161.27-35.31c-24.07,23.3-36.82,55.7-60.63,79.55C72.16,151.3,38.94,167.08,40.21,211.61z"/>
	<path class="st1" d="M40.21,211.61c2,71.24,133.21,63.41,195.05,33.27c78.25-38.13,110.25-97.59,87.07-166.14
		c-23-67.92-112.43-82.56-161.27-35.31c-24.07,23.3-36.82,55.7-60.63,79.55C72.16,151.3,38.94,167.08,40.21,211.61z"/>
</g>
<g id="freepik--Shadow--inject-430">
	<ellipse id="freepik--path--inject-430" class="st2" cx="194.51" cy="327.32" rx="193.89" ry="11.32"/>
</g>
<g id="freepik--Character--inject-430">
	<polygon class="st3" points="198.42,316.5 190.07,317.44 186.99,298.5 195.34,297.56 	"/>
	<polygon class="st3" points="235.8,318.32 227.46,318.32 225.39,299.01 233.73,299.01 	"/>
	<path class="st4" d="M226.78,317.35h10.16c0.34,0,0.64,0.24,0.71,0.57l1.65,7.41c0.14,0.66-0.27,1.31-0.93,1.45
		c-0.09,0.02-0.19,0.03-0.29,0.03c-3.27-0.05-5.66-0.24-9.78-0.24c-2.53,0-10.17,0.26-13.67,0.26s-4-3.46-2.52-3.77
		c6.42-1.41,11.26-3.35,13.32-5.2C225.8,317.53,226.28,317.35,226.78,317.35z"/>
	<path class="st4" d="M189.94,316.01l9-1c0.34-0.04,0.66,0.16,0.77,0.49l2.47,7.17c0.23,0.63-0.1,1.32-0.73,1.55
		c-0.09,0.03-0.18,0.05-0.27,0.06c-3.27,0.32-8,0.66-12.11,1.13c-4.8,0.54-5.6,1.83-11.25,1.69c-3.43-0.08-4.3-3.56-2.86-3.84
		c6.56-1.27,7.82-2.26,13-6.35C188.52,316.43,189.21,316.11,189.94,316.01z"/>
	<path class="st3" d="M197.3,73.33c-2.8,2.31-5.56,4.32-8.41,6.38s-5.76,4-8.76,5.83s-6.07,3.62-9.3,5.23
		c-3.3,1.72-6.73,3.16-10.26,4.31c-0.93,0.29-1.84,0.54-2.89,0.79c-1.03,0.23-2.06,0.39-3.11,0.5c-1.88,0.21-3.64,0.29-5.4,0.38
		c-3.51,0.16-7,0.15-10.4,0.13c-6.88-0.08-13.7-0.41-20.56-1l-0.1-6.26c6.73-0.86,13.49-1.61,20.18-2.36
		c3.34-0.37,6.68-0.77,9.93-1.2c1.63-0.22,3.24-0.48,4.72-0.76c0.64-0.11,1.27-0.26,1.9-0.44c0.58-0.2,1.3-0.43,2-0.7
		c2.86-1.16,5.64-2.52,8.31-4.06c2.77-1.59,5.53-3.3,8.25-5.11s5.43-3.69,8.12-5.6s5.36-3.94,7.88-5.86L197.3,73.33z"/>
	<path class="st0" d="M205.45,66.21c-1.2,7.88-17.79,19.93-17.79,19.93l-11.91-14.77c5.21-5.57,10.75-10.83,16.57-15.76
		C197.67,51.23,206.75,57.63,205.45,66.21z"/>
	<path class="st3" d="M120.41,90.26l-4.73-3.37l-0.52,10.65c0,0,2.62,0,3.63-1.92L120.41,90.26z"/>
	<polygon class="st3" points="111.4,83.79 110.43,94.22 115.16,97.54 115.68,86.89 	"/>
	<polygon class="st5" points="187,298.51 188.58,308.27 196.93,307.33 195.35,297.57 	"/>
	<polygon class="st5" points="233.73,299.01 225.39,299.01 226.46,308.97 234.8,308.97 	"/>
	<path class="st4" d="M233.85,55.86c2.57,0.57,4.18,3.12,3.61,5.68c-0.01,0.04-0.02,0.09-0.03,0.13
		c-1.81,7.51-3.17,15.12-4.08,22.79c-0.79,6.46-1.26,12.63-1.55,18.22c-0.7,13.1-0.41,23.09-0.8,26.48l-44.49-3.08
		c-4.52-35.4,0.77-58,3.75-67.17c0.94-2.91,3.47-5.03,6.5-5.44c1.71-0.22,3.75-0.44,5.91-0.57c0.75,0,1.52-0.07,2.29-0.09
		c6.33,0.06,12.65,0.48,18.93,1.27c1.19,0.14,2.39,0.32,3.56,0.5C229.78,54.99,232.01,55.45,233.85,55.86z"/>
	<path class="st3" d="M223.51,32.69c-1.62,6-3.59,17.06,0.38,21.42c-10.31,6.94-16.89,16.7-18.79,14.58c-1-1.11-1.42-14-0.12-15.9
		c6.9-1.15,7.08-6.19,6.23-11L223.51,32.69z"/>
	<path class="st0" d="M223.09,51.62c0,0-16.81,7.44-19,24.06c4.62-5.36,14.85-11.19,14.85-11.19l-4.51-1.29
		c2.87-1.09,5.83-1.89,8.86-2.39c-0.5-2.3,2.17-6.88,2.17-6.88L223.09,51.62z"/>
	<path class="st0" d="M207.93,51.35c0,0,2.23,9.5-3.87,24.33c-0.95-5.66-4.94-15.13-4.94-15.13l4.12,1.11c0,0-0.21-1.91-3.54-4.46
		c1.24-2.38,5.12-5.19,5.12-5.19L207.93,51.35z"/>
	<path class="st5" d="M218.51,36.4l-7.28,5.38c0.22,1.12,0.34,2.26,0.35,3.4c2.62-0.19,6.38-2.79,6.84-5.49
		C218.65,38.61,218.68,37.49,218.51,36.4z"/>
	<path class="st4" d="M202.15,15.31c-4.07,0.17-6.31,7.18-2.19,13S207.62,15.08,202.15,15.31z"/>
	<path class="st3" d="M222.2,21.48c0.48,8.26,1.18,13.07-2.45,17.77c-5.47,7.08-16.05,4.55-19-3.4c-2.64-7.16-3-19.47,4.65-23.69
		c5.44-3.05,12.32-1.11,15.37,4.32C221.63,18.02,222.12,19.73,222.2,21.48z"/>
	<path class="st4" d="M223.41,27.82c-6.26-4-8.47-9.27-8.95-11.92c-2.43,0.57-14.49,6.12-18.2,0s1-9.72,7.9-5.95
		c-3.07-5.42-0.28-8.07,9.37-8.31S221.88,7,221.88,7s7.3-3.18,9.89,2.42C234.76,15.86,229.24,26.85,223.41,27.82z"/>
	<path class="st4" d="M220.23,5.52c0.09,0,3.65,0.86,7.76-3.27c-0.73,3.52-7.11,5.87-7.11,5.87L220.23,5.52z"/>
	<path class="st4" d="M225.02,17.61c-3.84-1.33-8.5,4.37-6.78,11.25S230.21,19.4,225.02,17.61z"/>
	<path class="st3" d="M227.2,28.35c-0.35,2.05-1.5,3.88-3.2,5.08c-2.26,1.58-4.3-0.22-4.43-2.83c-0.12-2.35,0.92-6,3.55-6.54
		S227.61,25.83,227.2,28.35z"/>
	<path class="st0" d="M199.06,219.99c2-24.38,16.7-91.89,16.7-91.89l-29.25-2.02c0,0-11.28,67-12.14,92.44
		c-0.9,26.45,9.74,85.22,9.74,85.22l14-1.6C198.11,302.14,197.04,244.48,199.06,219.99z"/>
	<path class="st6" d="M199.06,219.99c2-24.38,16.7-91.89,16.7-91.89l-29.25-2.02c0,0-11.28,67-12.14,92.44
		c-0.9,26.45,9.74,85.22,9.74,85.22l14-1.6C198.11,302.14,197.04,244.48,199.06,219.99z"/>
	<path class="st5" d="M204.74,150.96c-5.9,7.54-6,34-3.72,53.58c2.17-14.12,5.59-32,8.6-47L204.74,150.96z"/>
	<path class="st0" d="M202.29,127.16c0,0,3.16,71.38,6.68,95.55c3.85,26.47,13.64,84.37,13.64,84.37h15.27c0,0-2.51-54.49-4.53-80.5
		c-2.29-29.62-2.35-97.38-2.35-97.38L202.29,127.16z"/>
	<path class="st6" d="M202.29,127.16c0,0,3.16,71.38,6.68,95.55c3.85,26.47,13.64,84.37,13.64,84.37h15.27c0,0-2.51-54.49-4.53-80.5
		c-2.29-29.62-2.35-97.38-2.35-97.38L202.29,127.16z"/>
	<polygon class="st0" points="220.78,307.37 238.76,307.37 238.76,302 218.66,301.65 	"/>
	<polygon class="st0" points="183.49,305.3 200.21,303.4 199.6,298 180.88,299.83 	"/>
	<path class="st4" d="M210.04,25.26c0.08,0.67-0.21,1.26-0.65,1.31s-0.85-0.45-0.94-1.12s0.21-1.25,0.65-1.3
		S209.96,24.6,210.04,25.26z"/>
	<path class="st4" d="M202.51,26.17c0.08,0.67-0.21,1.25-0.65,1.31s-0.85-0.45-0.93-1.12s0.21-1.25,0.64-1.3
		S202.41,25.5,202.51,26.17z"/>
	<path class="st7" d="M204.93,26.22c-0.55,2.14-1.4,4.18-2.51,6.09c1.01,0.55,2.2,0.62,3.27,0.21L204.93,26.22z"/>
	<path class="st4" d="M212.09,22.54c-0.14,0.05-0.3,0.01-0.4-0.1c-0.68-0.74-1.67-1.11-2.67-1c-0.21,0.06-0.43-0.06-0.5-0.27
		c-0.01-0.03-0.01-0.06-0.01-0.09c-0.05-0.2,0.08-0.41,0.29-0.45c0.01,0,0.02,0,0.03-0.01c1.26-0.17,2.52,0.29,3.38,1.23
		c0.15,0.15,0.16,0.4,0.01,0.55c0,0-0.01,0.01-0.01,0.01C212.18,22.46,212.14,22.51,212.09,22.54z"/>
	<path class="st4" d="M209.19,35.19L209.19,35.19c1.93-0.41,3.54-1.73,4.32-3.55c0.04-0.11-0.01-0.23-0.12-0.27
		c-0.11-0.04-0.24,0.02-0.28,0.13c-0.74,1.66-2.22,2.88-4,3.27c-0.11,0.03-0.18,0.15-0.16,0.26
		C208.98,35.13,209.08,35.2,209.19,35.19z"/>
	<path class="st4" d="M198.94,23.96c-0.08,0.03-0.16,0.03-0.24,0c-0.21-0.07-0.32-0.29-0.25-0.5c0.39-1.21,1.34-2.16,2.55-2.55
		c0.21-0.06,0.42,0.07,0.48,0.28c0,0,0,0.01,0,0.01c0.06,0.2-0.06,0.41-0.27,0.47c0,0-0.01,0-0.01,0l0,0c-0.95,0.31-1.69,1.05-2,2
		C199.18,23.81,199.08,23.92,198.94,23.96z"/>
	<path class="st0" d="M224.02,318.81c-0.57,0.04-1.13-0.11-1.6-0.43c-0.29-0.25-0.44-0.62-0.41-1c-0.01-0.24,0.13-0.46,0.34-0.56
		c0.92-0.48,3.61,1.18,3.91,1.37c0.07,0.04,0.11,0.12,0.09,0.2c-0.01,0.08-0.07,0.14-0.15,0.16
		C225.49,318.72,224.75,318.81,224.02,318.81z M222.78,317.08c-0.09,0-0.17,0.01-0.25,0.05c-0.09,0.04-0.14,0.13-0.13,0.23
		c-0.04,0.27,0.06,0.54,0.27,0.72c0.46,0.38,1.55,0.44,3,0.15C224.79,317.66,223.81,317.27,222.78,317.08z"/>
	<path class="st0" d="M226.16,318.51c-0.03,0.01-0.07,0.01-0.1,0c-0.86-0.47-2.53-2.3-2.35-3.22c0.06-0.3,0.32-0.52,0.63-0.52
		c0.3-0.04,0.61,0.05,0.84,0.25c1,0.79,1.17,3.2,1.17,3.3c0.01,0.07-0.02,0.15-0.09,0.18C226.23,318.52,226.19,318.52,226.16,318.51
		z M224.51,315.13h-0.08c-0.26,0-0.28,0.15-0.29,0.2c-0.11,0.55,1,1.93,1.81,2.58c-0.06-0.95-0.41-1.86-1-2.61
		C224.83,315.2,224.67,315.13,224.51,315.13z"/>
	<path class="st0" d="M189.26,317.24L189.26,317.24c-1.3,0.42-3.64,1-4.64,0.31c-0.3-0.21-0.48-0.55-0.47-0.91
		c-0.02-0.22,0.08-0.43,0.26-0.56c0.94-0.66,4.47,0.64,4.86,0.79c0.08,0.03,0.13,0.11,0.13,0.19
		C189.4,317.15,189.34,317.22,189.26,317.24z M184.65,316.38L184.65,316.38c-0.07,0.05-0.11,0.14-0.1,0.23
		c0,0.24,0.11,0.47,0.31,0.6c0.56,0.4,1.93,0.32,3.73-0.19C187.14,316.57,185.23,316.08,184.65,316.38L184.65,316.38z"/>
	<path class="st0" d="M189.26,317.24c-0.05,0.02-0.11,0.02-0.16,0c-1.05-0.33-3.23-1.9-3.18-2.85c0-0.23,0.13-0.52,0.66-0.63
		c0.39-0.09,0.8-0.02,1.13,0.21c1.15,0.75,1.63,3,1.65,3c0.01,0.07-0.01,0.14-0.06,0.19L189.26,317.24z M186.45,314.24
		c-0.13,0.07-0.14,0.15-0.14,0.19c0,0.57,1.48,1.82,2.57,2.32c-0.2-0.93-0.69-1.78-1.39-2.43c-0.24-0.17-0.54-0.23-0.82-0.16
		c-0.08,0.01-0.15,0.03-0.22,0.07V314.24z"/>
	<path class="st3" d="M240.87,67.88c-0.21,3.26-0.59,6.29-1,9.42s-0.93,6.2-1.52,9.3c-1.16,6.33-2.88,12.55-5.13,18.58l-1,2.33
		l-0.25,0.58l-0.06,0.15l-0.1,0.22l-0.3,0.62c-0.38,0.72-0.84,1.39-1.38,2c-0.86,0.98-1.87,1.82-3,2.48
		c-0.91,0.55-1.87,1.01-2.87,1.39c-3.3,1.19-6.76,1.92-10.26,2.15c-6.37,0.47-12.77,0.23-19.08-0.71l0.23-6.26l4.41-0.5
		c1.48-0.17,2.95-0.4,4.41-0.6c2.92-0.43,5.81-0.91,8.57-1.55c2.54-0.52,5.02-1.34,7.37-2.44c0.63-0.27,1.19-0.69,1.61-1.23
		c0-0.15-0.29,0.48,0.08-0.52l0.66-1.93c1.62-5.53,2.85-11.16,3.7-16.86c0.48-2.9,0.88-5.83,1.28-8.77s0.71-5.93,1-8.74
		L240.87,67.88z"/>
	<path class="st0" d="M241.61,61.84c4.08,6.84,0.6,28.36,0.6,28.36l-21.4-4c0,0-1.16-12.32,2.92-21.78
		C228.16,54.16,236.67,53.54,241.61,61.84z"/>
	<path class="st4" d="M189.19,129.38l-11.35-52.8c-1.12-4.63-5.17-7.97-9.93-8.17h-43.48c4.76,0.21,8.81,3.54,9.93,8.17l11.34,52.8
		c1.12,4.63,5.17,7.96,9.93,8.17h43.49C194.36,137.35,190.31,134.01,189.19,129.38z"/>
	<path class="st8" d="M189.19,129.38l-11.35-52.8c-1.12-4.63-5.17-7.97-9.93-8.17h-43.48c4.76,0.21,8.81,3.54,9.93,8.17l11.34,52.8
		c1.12,4.63,5.17,7.96,9.93,8.17h43.49C194.36,137.35,190.31,134.01,189.19,129.38z"/>
	
		<rect x="101.19" y="137.76" transform="matrix(0.0896 -0.996 0.996 0.0896 -39.9232 232.8444)" class="st0" width="12.44" height="1"/>
	
		<rect x="102.88" y="152.54" transform="matrix(0.0918 -0.9958 0.9958 0.0918 -56.5989 244.0166)" class="st0" width="5.21" height="1"/>
	<path class="st0" d="M124.43,68.41h43.48c-4.61,0.09-8.43,3.59-8.91,8.17l-11.28,122.68c-0.49,4.58-4.31,8.09-8.92,8.17h-27.14
		c-4.05,0.08-7.4-3.15-7.48-7.2c-0.01-0.32,0.01-0.65,0.05-0.97l11.28-122.68C116,72,119.82,68.5,124.43,68.41z"/>
	<path class="st4" d="M131.37,199.26c-0.46,4.03,2.43,7.66,6.46,8.12c0.32,0.04,0.65,0.05,0.97,0.05H95.31
		c-4.05,0.08-7.39-3.14-7.47-7.19c-0.01-0.33,0.01-0.65,0.05-0.98H131.37z"/>
	<path class="st8" d="M131.37,199.26c-0.46,4.03,2.43,7.66,6.46,8.12c0.32,0.04,0.65,0.05,0.97,0.05H95.31
		c-4.05,0.08-7.39-3.14-7.47-7.19c-0.01-0.33,0.01-0.65,0.05-0.98H131.37z"/>
	<g class="st9">
		<path class="st10" d="M151.51,82.16h-29.48c-0.88,0.01-1.61-0.7-1.62-1.58c0-0.07,0-0.13,0.01-0.2l0,0c0.11-1,0.94-1.76,1.94-1.78
			h29.43c0.88-0.01,1.61,0.7,1.62,1.58c0,0.07,0,0.13-0.01,0.2l0,0C153.29,81.36,152.49,82.11,151.51,82.16z"/>
		<path class="st10" d="M150.59,91.78h-29.43c-0.88,0.02-1.61-0.69-1.63-1.57c0-0.07,0-0.14,0.01-0.21l0,0
			c0.11-1,0.94-1.76,1.94-1.78h29.43c0.88-0.02,1.61,0.69,1.63,1.57c0,0.07,0,0.14-0.01,0.21l0,0
			C152.42,91,151.59,91.76,150.59,91.78z"/>
		<path class="st10" d="M142.51,101.41h-22.23c-0.88,0.01-1.61-0.7-1.62-1.58c0-0.07,0-0.13,0.01-0.2l0,0
			c0.11-1,0.94-1.76,1.94-1.78h22.21c0.88-0.02,1.61,0.69,1.63,1.57c0,0.07,0,0.14-0.01,0.21l0,0
			C144.33,100.62,143.51,101.38,142.51,101.41z"/>
		<path class="st10" d="M126.94,111.08h-7.53c-0.88,0.02-1.61-0.69-1.63-1.57c0-0.07,0-0.13,0.01-0.2l0,0
			c0.11-1,0.94-1.76,1.94-1.78h7.54c0.88-0.01,1.61,0.7,1.62,1.58c0,0.07,0,0.13-0.01,0.2l0,0
			C128.77,110.3,127.94,111.06,126.94,111.08z"/>
		<path class="st10" d="M147.96,120.66h-29.45c-0.88,0.01-1.61-0.7-1.62-1.58c0-0.07,0-0.13,0.01-0.2l0,0
			c0.11-1,0.94-1.76,1.94-1.78h29.42c0.88-0.02,1.61,0.69,1.63,1.57c0,0.07,0,0.14-0.01,0.21l0,0
			C149.77,119.87,148.95,120.63,147.96,120.66z"/>
		<path class="st10" d="M135.51,130.29h-17.85c-0.88,0.02-1.61-0.69-1.63-1.57c0-0.07,0-0.14,0.01-0.21l0,0
			c0.11-1,0.94-1.76,1.94-1.78h17.84c0.89-0.01,1.62,0.7,1.63,1.59c0,0.06,0,0.13-0.01,0.19l0,0
			C137.33,129.5,136.51,130.26,135.51,130.29z"/>
		<path class="st10" d="M146.21,139.91h-29.43c-0.88,0.01-1.61-0.7-1.62-1.58c0-0.07,0-0.13,0.01-0.2l0,0
			c0.11-1,0.94-1.76,1.94-1.78h29.4c0.89-0.01,1.62,0.7,1.63,1.59c0,0.06,0,0.13-0.01,0.19l0,0
			C148.02,139.12,147.2,139.88,146.21,139.91z"/>
		<path class="st10" d="M138.12,149.54h-22.21c-0.88,0.02-1.61-0.69-1.63-1.57c0-0.07,0-0.14,0.01-0.21l0,0
			c0.11-1,0.94-1.76,1.94-1.78h22.21c0.88-0.02,1.61,0.69,1.63,1.57c0,0.07,0,0.14-0.01,0.21l0,0
			C139.95,148.76,139.12,149.52,138.12,149.54z"/>
		<path class="st10" d="M122.57,159.17h-7.54c-0.89,0.01-1.62-0.7-1.63-1.59c0-0.06,0-0.13,0.01-0.19l0,0
			c0.11-1,0.95-1.76,1.95-1.78h7.53c0.88-0.02,1.61,0.69,1.63,1.57c0,0.07,0,0.14-0.01,0.21l0,0
			C124.4,158.39,123.57,159.15,122.57,159.17z"/>
		<path class="st10" d="M143.58,168.79h-29.42c-0.88,0.02-1.61-0.69-1.63-1.57c0-0.07,0-0.14,0.01-0.21l0,0
			c0.11-1,0.94-1.76,1.94-1.78h29.43c0.88-0.01,1.61,0.7,1.62,1.58c0,0.07,0,0.13-0.01,0.2l0,0
			C145.41,168.01,144.58,168.77,143.58,168.79z"/>
		<path class="st10" d="M131.12,178.42h-17.84c-0.88,0.02-1.61-0.69-1.63-1.57c0-0.07,0-0.14,0.01-0.21l0,0
			c0.11-1,0.94-1.76,1.94-1.78h17.84c0.88-0.02,1.61,0.69,1.63,1.57c0,0.07,0,0.14-0.01,0.21l0,0
			C132.95,177.64,132.12,178.4,131.12,178.42z"/>
		<path class="st10" d="M141.83,188.08h-29.42c-0.88,0.02-1.61-0.69-1.63-1.57c0-0.07,0-0.14,0.01-0.21l0,0
			c0.11-0.99,0.94-1.75,1.94-1.77h29.43c0.88-0.01,1.61,0.7,1.62,1.58c0,0.06,0,0.13-0.01,0.19l0,0
			C143.66,187.3,142.83,188.06,141.83,188.08z"/>
	</g>
	<path class="st3" d="M197.74,110.7l-6.39-5.55l-3,10.22c0,0,6.49,3.52,8.73,0.29L197.74,110.7z"/>
	<polygon class="st3" points="184.4,104.75 182.32,113.32 188.36,115.37 191.35,105.15 	"/>
</g>
</svg>
