<?xml version="1.0" encoding="utf-8"?>
<!-- Generator: Adobe Illustrator 24.1.3, SVG Export Plug-In . SVG Version: 6.00 Build 0)  -->
<svg version="1.1" id="Layer_1" xmlns="http://www.w3.org/2000/svg" xmlns:xlink="http://www.w3.org/1999/xlink" x="0px" y="0px"
	 viewBox="0 0 390 350" style="enable-background:new 0 0 390 350;" xml:space="preserve">
<style type="text/css">
	.st0{fill:#F5F5F5;}
	.st1{fill:#407BFF;}
	.st2{opacity:0.6;fill:#FFFFFF;enable-background:new    ;}
	.st3{opacity:0.8;fill:#FFFFFF;enable-background:new    ;}
	.st4{fill:#263238;}
	.st5{opacity:0.2;enable-background:new    ;}
	.st6{opacity:0.3;fill:#263238;enable-background:new    ;}
	.st7{opacity:0.7;fill:#FFFFFF;enable-background:new    ;}
	.st8{opacity:0.3;fill:#407BFF;enable-background:new    ;}
	.st9{fill:#FF8B7B;}
	.st10{fill:#FF5652;}
</style>
<g id="freepik--Shadow--inject-501">
	<ellipse id="freepik--path--inject-501" class="st0" cx="194.54" cy="335.85" rx="193.89" ry="11.32"/>
</g>
<g id="freepik--cash-register--inject-501">
	<path class="st1" d="M236.54,205.3h82.79c3.52,0,6.37,2.85,6.37,6.37l0,0c0,3.52-2.85,6.37-6.37,6.37h-82.79V205.3z"/>
	<path class="st2" d="M236.54,205.3h82.79c3.52,0,6.37,2.85,6.37,6.37l0,0c0,3.52-2.85,6.37-6.37,6.37h-82.79V205.3z"/>
	<circle class="st1" cx="311.21" cy="165.57" r="9.57"/>
	<circle class="st3" cx="311.21" cy="165.57" r="9.57"/>
	<polygon class="st4" points="245.35,166.86 324.46,166.86 316.88,205.3 252.92,205.3 	"/>
	<path class="st1" d="M243.14,163.17h83.52c0.65,0,1.18,0.52,1.19,1.17c0,0.11-0.02,0.23-0.05,0.34l-1,3.41
		c-0.15,0.5-0.61,0.85-1.14,0.85h-81.53c-0.53,0-0.99-0.35-1.14-0.85l-1-3.41c-0.18-0.63,0.18-1.28,0.8-1.46
		C242.91,163.18,243.02,163.17,243.14,163.17z"/>
	<path class="st2" d="M243.14,163.17h83.52c0.65,0,1.18,0.52,1.19,1.17c0,0.11-0.02,0.23-0.05,0.34l-1,3.41
		c-0.15,0.5-0.61,0.85-1.14,0.85h-81.53c-0.53,0-0.99-0.35-1.14-0.85l-1-3.41c-0.18-0.63,0.18-1.28,0.8-1.46
		C242.91,163.18,243.02,163.17,243.14,163.17z"/>
	<rect x="253.07" y="158.61" class="st1" width="38" height="4.56"/>
	<rect x="253.07" y="158.61" class="st5" width="38" height="4.56"/>
	<path class="st1" d="M274.9,171.49c-0.18,0.56-0.74,0.92-1.33,0.84c-3-0.51-4.48-3.24-3.39-6.53l7.65-23.09
		c1.21-3.65,5.16-6.61,8.8-6.61h13.55c3.64,0,5.62,3,4.42,6.61l-6.79,20.46h-2.27l6.78-20.46c0.8-2.39-0.5-4.34-2.89-4.34h-13.55
		c-2.62,0.17-4.88,1.87-5.78,4.34l-7.65,23.09c-0.65,1.95,0.1,3.61,1.69,4.15C274.77,170.16,275.12,170.85,274.9,171.49
		C274.9,171.49,274.9,171.49,274.9,171.49L274.9,171.49z"/>
	<path class="st1" d="M124.53,160.23h128.8c4.78,0,8.65,3.87,8.65,8.65V327.2c0,4.78-3.87,8.65-8.65,8.65h-128.8
		c-4.78,0-8.65-3.87-8.65-8.65V168.88C115.88,164.1,119.75,160.23,124.53,160.23z"/>
	<path class="st1" d="M151.44,225.83h-120c-3.52,0.01-6.37,2.86-6.37,6.38l0,0c-0.02,3.52,2.82,6.38,6.34,6.4c0.01,0,0.02,0,0.03,0
		h120V225.83z"/>
	<polygon class="st6" points="151.44,242.11 116.03,258.14 116.03,238.57 151.44,238.57 	"/>
	<path class="st7" d="M151.44,225.83H75.01c-3.52,0.01-6.37,2.86-6.37,6.38l0,0c0.01,3.52,2.85,6.36,6.37,6.37h76.43V225.83z"/>
	<path class="st7" d="M164.43,160.23h88.9c4.78,0,8.65,3.87,8.65,8.65V327.2c0,4.78-3.87,8.65-8.65,8.65h-88.9
		c-4.78,0-8.65-3.87-8.65-8.65V168.88C155.78,164.1,159.65,160.23,164.43,160.23z"/>
	<rect x="72.48" y="238.58" class="st1" width="10.85" height="97.27"/>
	<rect x="72.48" y="238.58" class="st7" width="10.85" height="97.27"/>
	<polygon class="st8" points="83.33,242.8 72.48,245.15 72.48,238.57 83.33,238.57 	"/>
	<path class="st8" d="M168.19,180.99h81.37c1.36,0,2.47,1.11,2.47,2.47v27.79c0,1.36-1.11,2.47-2.47,2.47h-81.37
		c-1.36,0-2.47-1.11-2.47-2.47v-27.79C165.72,182.1,166.83,180.99,168.19,180.99z"/>
	<polygon class="st1" points="104.03,143.02 44.73,143.02 38.72,225.84 110.04,225.84 	"/>
	<polygon class="st6" points="52.6,143.02 44.73,143.02 38.72,225.84 54.68,225.84 	"/>
	<path class="st1" d="M77.99,153.12c-5.54,0-10.5-3.89-11.33-9.07c-0.41-2.54,0.25-5.13,1.84-7.15c1.84-2.28,4.54-3.71,7.47-3.93
		c5.95-0.54,11.51,3.51,12.39,9c0.41,2.54-0.26,5.14-1.85,7.16c-1.84,2.29-4.54,3.71-7.46,3.93
		C78.69,153.1,78.34,153.12,77.99,153.12z M77.04,134.68c-0.3,0-0.61,0-0.91,0c-2.44,0.18-4.7,1.36-6.24,3.26
		c-1.28,1.64-1.83,3.74-1.49,5.8c0.73,4.61,5.44,8,10.49,7.54c2.44-0.18,4.7-1.36,6.24-3.26c1.28-1.64,1.83-3.74,1.49-5.8
		C85.93,137.93,81.73,134.68,77.04,134.68L77.04,134.68z"/>
	<path class="st1" d="M73.54,153.12c-0.35,0-0.7,0-1.06,0c-2.92-0.22-5.62-1.64-7.46-3.93c-1.59-2.02-2.26-4.62-1.84-7.16
		c0.87-5.5,6.43-9.55,12.38-9c2.93,0.22,5.63,1.64,7.47,3.93c1.59,2.02,2.26,4.61,1.84,7.15C84.01,149.23,79.04,153.12,73.54,153.12
		z M74.54,134.68c-4.7,0-8.9,3.25-9.59,7.58c-0.34,2.06,0.21,4.16,1.49,5.8c1.54,1.9,3.8,3.08,6.24,3.26
		c5.05,0.45,9.76-2.93,10.5-7.54c0.34-2.06-0.21-4.16-1.5-5.8c-1.54-1.9-3.79-3.08-6.23-3.26c-0.39-0.03-0.69-0.04-0.99-0.04
		L74.54,134.68z"/>
	<rect x="162.95" y="30.17" class="st1" width="17.6" height="130.07"/>
	<polygon class="st6" points="180.55,99.81 162.95,99.81 162.95,133.8 180.55,131.63 	"/>
	<polygon class="st6" points="180.55,31.06 162.95,31.06 162.95,40.95 180.55,38.78 	"/>
	<path class="st4" d="M125.79,124l-4.91-71.25c-0.17-2.42,1.66-4.51,4.08-4.68c0.1-0.01,0.2-0.01,0.3-0.01h109.41
		c2.31-0.01,4.22,1.78,4.38,4.08l4.9,71.25c0.17,2.41-1.65,4.51-4.06,4.68c-0.11,0.01-0.21,0.01-0.32,0.01H130.16
		C127.86,128.09,125.94,126.3,125.79,124z"/>
	<path class="st1" d="M233.41,51.31H126.7c-1.37,0-2.48,1.11-2.48,2.48c0,0.06,0,0.11,0.01,0.17l4.72,68.56
		c0.09,1.3,1.17,2.31,2.47,2.31h106.71c1.37,0,2.48-1.1,2.49-2.47c0-0.06,0-0.12-0.01-0.18l-4.72-68.57
		C235.8,52.31,234.71,51.31,233.41,51.31z"/>
	<path class="st3" d="M233.41,51.31H126.7c-1.37,0-2.48,1.11-2.48,2.48c0,0.06,0,0.11,0.01,0.17l4.72,68.56
		c0.09,1.3,1.17,2.31,2.47,2.31h106.71c1.37,0,2.48-1.1,2.49-2.47c0-0.06,0-0.12-0.01-0.18l-4.72-68.57
		C235.8,52.31,234.71,51.31,233.41,51.31z"/>
	<rect x="140.83" y="157.85" class="st4" width="93.66" height="2.38"/>
	<polygon class="st8" points="208.42,116.8 137.94,116.8 134.03,60.04 204.51,60.04 	"/>
	<polygon class="st8" points="228.57,65.12 209.58,65.12 209.23,60.04 228.22,60.04 	"/>
	<polygon class="st8" points="229.97,85.59 210.98,85.59 209.99,71.11 228.98,71.11 	"/>
	<rect x="153.52" y="9.72" class="st1" width="35.41" height="26.43"/>
	<rect x="153.52" y="9.72" class="st6" width="14.73" height="26.43"/>
</g>
<g id="freepik--Character--inject-501">
	<path class="st9" d="M265.34,123.42l1.95-2.49c0.74-0.94,1.88-1.46,3.07-1.4l5.56,0.25c2.22,0.11,4.25,1.28,5.46,3.15l0.74,1.16
		c-3,4.35-9.37,6.87-9.37,6.87l-1.74,0.92c-1.47,0.83-3.34,0.32-4.17-1.16c-0.01-0.01-0.01-0.02-0.02-0.03l-1.87-3.44
		C264.31,126.01,264.46,124.51,265.34,123.42z"/>
	<path class="st9" d="M284.69,73.55c0.58,0.71,1,1.21,1.42,1.81s0.84,1.15,1.25,1.72c0.82,1.16,1.57,2.34,2.32,3.52
		c1.46,2.39,2.79,4.85,4,7.38c0.62,1.26,1.18,2.56,1.75,3.86s1.05,2.63,1.51,4c0.96,2.72,1.73,5.5,2.32,8.33l0.11,0.46
		c0.07,0.33,0.1,0.66,0.1,1c0,1.79-0.34,3.56-1,5.22c-0.56,1.38-1.28,2.68-2.15,3.89c-1.47,1.98-3.22,3.75-5.18,5.24
		c-1.76,1.35-3.62,2.55-5.58,3.58c-1.93,1.02-3.93,1.89-6,2.59c-1.97,0.67-4.11-0.37-4.79-2.34c-0.47-1.37-0.11-2.89,0.92-3.91
		l0.25-0.24c1.23-1.23,2.65-2.56,3.88-3.86c1.22-1.25,2.37-2.57,3.44-3.95c0.93-1.15,1.72-2.41,2.35-3.75c0.5-1.12,0.44-2,0.29-2
		l0.21,1.42c-0.75-2.16-1.55-4.3-2.52-6.43s-2-4.22-3.16-6.3s-2.35-4.12-3.64-6.12c-0.64-1-1.3-2-2-3l-1-1.44l-0.92-1.3l-0.24-0.34
		c-2.34-3.42-1.46-8.09,1.96-10.42c3.19-2.18,7.5-1.58,9.98,1.37L284.69,73.55z"/>
	<path class="st4" d="M270.97,65.07c-2.82,6.4-2.64,14.39,6,26.61c5.74,0.63,16.36-6.83,16.36-6.83S286.04,64.4,270.97,65.07z"/>
	<path class="st9" d="M266.16,42.82c-1.67,6.2-3.73,17.56,0.29,21.69c0,0-5.87-0.88-18.33,6.83c-3.61-5.18-0.93-6.83-0.93-6.83
		c7-1.65,7.24-6.77,6.39-11.59L266.16,42.82z"/>
	<path class="st1" d="M240.8,69.12c1.85-4,6.21-7.81,9.22-7.24s4.84,1.51,6.62,0s6.18-3.71,8.42-1.22c3.15,3.48,7.92,1,6.12,4.81
		C269.24,69.61,240.8,69.12,240.8,69.12z"/>
	<path class="st4" d="M243.63,31.44c-0.12,0.85-0.66,1.51-1.2,1.47s-0.88-0.76-0.76-1.61s0.66-1.5,1.2-1.46
		S243.76,30.61,243.63,31.44z"/>
	<path class="st4" d="M243.1,29.9l-1.9-0.73C241.2,29.17,241.99,30.83,243.1,29.9z"/>
	<path class="st10" d="M243.45,33.04c-1.02,1.88-2.28,3.63-3.74,5.19c0.95,1.12,2.88,0.78,2.88,0.78L243.45,33.04z"/>
	<path class="st4" d="M242.22,24.7c-0.06-0.11-0.09-0.24-0.06-0.36c0.09-0.26,0.36-0.4,0.62-0.33c1.59,0.36,2.92,1.44,3.6,2.92
		c0.09,0.22-0.01,0.48-0.24,0.58c-0.02,0.01-0.05,0.02-0.07,0.02c-0.26,0.08-0.54-0.06-0.65-0.31c-0.56-1.16-1.62-2.01-2.88-2.28
		C242.41,24.9,242.29,24.82,242.22,24.7z"/>
	<path class="st9" d="M271.46,30.38c-1.89,10-2.47,14.27-8.18,19.07c-8.59,7.23-20.4,3.41-21.52-6.8c-1-9.18,2.23-24,12.54-27.31
		c6.74-2.47,14.21,0.99,16.68,7.73C271.84,25.41,272,27.95,271.46,30.38z"/>
	<path class="st4" d="M249.04,33.61c-3.62-5.67-7.54-12.75-5.08-17.67s8.05-3.75,8.05-3.75s10.83-6.08,20.53,1.84
		c12.86,10.53-0.93,22.12-4.34,32.16C264.43,57.24,244.99,43.86,249.04,33.61z"/>
	<path class="st4" d="M304.46,15.23c-5.23-19.45-28.17-10.51-34.84,1l2.72,0.71c27.37-17.66,13.89,7.87,14.12,18.28
		s10.55,16.82,10.55,16.82S309.68,34.67,304.46,15.23z"/>
	<path class="st4" d="M297.54,49.61c-2.92,0-7-0.55-9.66-3.24c-2.4-2.43-3.15-6.14-2.21-11c0.3-1.54,0.78-3.35,1.28-5.26
		c1.58-6,3.55-13.38,0.45-16c-2.18-1.85-6.77-1.2-13.65,1.91c-0.12,0.06-0.26,0.01-0.32-0.1c0-0.01,0-0.01-0.01-0.02
		c-0.06-0.13,0-0.27,0.13-0.33c0,0,0,0,0,0c7.16-3.25,11.8-3.85,14.17-1.84c3.34,2.82,1.42,10.09-0.28,16.51
		c-0.51,1.9-1,3.7-1.28,5.23c-0.9,4.72-0.2,8.28,2.08,10.59c4.25,4.3,12.69,2.84,12.78,2.82c0.14-0.02,0.27,0.07,0.29,0.21
		c0.02,0.14-0.07,0.27-0.21,0.29C299.92,49.55,298.73,49.63,297.54,49.61z"/>
	<path class="st1" d="M272.93,11.95c0.25-1.27-2.95-0.74-3.1,0.39s-0.57,0.5-1.82,2.15s-1.42,3.59,2.68,4.87
		c2.6,0.81,3-1.19,4.33-2.19c0.73-0.54,1.55-0.82,2.08-1.23c0.36-0.28,0.43-0.8,0.14-1.16c-0.14-0.18-0.34-0.29-0.56-0.32
		C275,14.32,272.67,13.2,272.93,11.95z"/>
	<path class="st9" d="M250.88,37.17c-0.91,1.75-2.51,3.04-4.42,3.54c-2.35,0.52-3.24-2.19-2.35-4.83c0.8-2.36,3-5.49,5.24-4.81
		S252.15,34.88,250.88,37.17z"/>
	<path class="st4" d="M293.67,340.78c7.77-1.16,7.92-2.45,12.09-3.91c3.57-1.26,4.57-1.08,7.45-2.05c2.41-0.81,1.59-3.1,0-5.54
		c-0.79-1.22-0.91-2.38-1.78-4.55l-11.81,1.75c-1.14,3.3-1.55,7.52-8.29,9.93C287.32,337.85,290.54,341.24,293.67,340.78z"/>
	<path class="st4" d="M221.65,340.81c7.73,0,9.21-0.51,13.56-0.66c3.72-0.13,4.33,0.66,8.1,0.66c2.5,0,2.85-2.82,1.93-4.93
		c-0.71-1.64-0.82-3.61-1.34-5.74h-10.65c-1.92,3.37-7.16,5.87-13,6.29C216.05,336.74,218.54,340.81,221.65,340.81z"/>
	<path class="st4" d="M230.68,130.24c0,0-1.54,55.58,1.76,90.88c-0.21,33.13,0.81,109,0.81,109c0.26,1.69,9.14,1,10.65,0
		c0,0,16.65-55.27,9.26-109c18.49-56.06,14.5-90.88,14.5-90.88H230.68z"/>
	<path class="st4" d="M241.77,130.24c0,0,18.06,62.73,25.38,93.54c7.7,32.35,30.58,81.26,32.48,102.7c2,0.79,8.39-0.09,11.81-1.75
		c0,0-3.13-68.37-21.73-99.52c4.2-76.64-16.6-95-16.6-95L241.77,130.24z"/>
	<path class="st1" d="M298.09,322.19c0.18,1.47,0.26,2.95,0.23,4.43c-0.04,0.51,0.35,0.96,0.86,1c0.02,0,0.05,0,0.07,0
		c4.42,0,10.53-1.88,12.46-2.54c0.37-0.12,0.62-0.46,0.62-0.85v-4.19c0-0.51-0.42-0.93-0.94-0.92c-0.05,0-0.1,0-0.14,0.01
		l-12.44,2.09C298.36,321.31,298.05,321.73,298.09,322.19z"/>
	<path class="st1" d="M232.03,325.47c0,1.15-0.1,3.2-0.21,4.71c-0.01,0.5,0.36,0.93,0.85,1c3.91,0.32,7.85,0.28,11.75-0.13
		c0.38-0.03,0.7-0.32,0.77-0.7l0.8-4.13c0.07-0.55-0.31-1.05-0.86-1.12c-0.02,0-0.03,0-0.05-0.01l-12.14-0.48
		c-0.47-0.03-0.88,0.33-0.91,0.81C232.03,325.44,232.03,325.45,232.03,325.47z"/>
	<path class="st4" d="M228.28,80.29c-0.24,6.47-0.14,12.95,0.28,19.41c0.33,8.43,0.91,16.72,2.12,30.54h42.43
		c-0.85-11.95,0.54-25.57,8.16-52.46c1.67-5.21-1.2-10.78-6.41-12.45c-0.67-0.21-1.35-0.36-2.05-0.42c-1.68-0.17-3.47-0.31-5.3-0.4
		c-6.41-0.46-12.85-0.46-19.26,0c-2.1,0.19-4.27,0.46-6.34,0.75C234.37,66.38,228.66,72.67,228.28,80.29z"/>
	<path class="st1" d="M272.9,124.99c-8.49,2.17-21.41,2.79-42.62,0.53c0.51,11.25-4.44,86.9-4.44,86.9s43,9.45,67.31-3.38
		C294.72,151.87,272.9,124.99,272.9,124.99z"/>
	<path class="st5" d="M256.67,170.61c0,0,11.67-10.87,17.43-18.29C273.64,160.1,266.69,167.08,256.67,170.61z"/>
	<path class="st9" d="M192.29,80.23l2.82,1.43c1.07,0.53,1.82,1.56,2,2.74l0.83,5.5c0.35,2.21-0.4,4.44-2,6l-1,1
		c-4.84-2.06-8.56-7.85-8.56-7.85l-1.24-1.53c-1.11-1.28-0.97-3.21,0.31-4.32c0.01-0.01,0.03-0.02,0.04-0.03l3-2.5
		C189.56,79.79,191.05,79.62,192.29,80.23z"/>
	<path class="st9" d="M242.94,81.23c-0.31,0.86-0.54,1.46-0.81,2.15s-0.56,1.31-0.84,2c-0.56,1.3-1.18,2.55-1.81,3.8
		c-1.27,2.5-2.68,4.93-4.22,7.28c-0.76,1.18-1.57,2.34-2.39,3.49s-1.7,2.27-2.63,3.36c-1.83,2.23-3.8,4.34-5.92,6.3l-0.28,0.27
		c-0.25,0.24-0.53,0.46-0.83,0.64c-1.22,0.76-2.58,1.28-4,1.54c-1.18,0.22-2.39,0.26-3.58,0.14c-1.82-0.22-3.59-0.71-5.26-1.46
		c-2.6-1.2-5.03-2.73-7.23-4.55c-2-1.64-3.9-3.41-5.66-5.3c-1.74-1.85-3.37-3.81-4.87-5.86c-1.22-1.68-0.86-4.03,0.82-5.25
		c1.26-0.92,2.97-0.97,4.28-0.11l0.17,0.11c1.86,1.21,3.83,2.53,5.75,3.71s3.86,2.33,5.76,3.3c1.7,0.92,3.5,1.65,5.36,2.17
		c0.54,0.17,1.11,0.22,1.67,0.16c0.13,0,0.12-0.1,0-0.1c-0.24,0.01-0.47,0.07-0.68,0.18l-1.1,0.92c1.46-1.76,2.88-3.56,4.19-5.49
		s2.58-3.91,3.75-6s2.31-4.15,3.36-6.29c0.53-1.06,1-2.14,1.53-3.21l0.71-1.6l0.64-1.45l0.17-0.38c1.68-3.78,6.12-5.49,9.9-3.8
		c3.57,1.59,5.32,5.65,4.03,9.33L242.94,81.23z"/>
	<path class="st4" d="M243.08,65.1c-6.93,0.9-13.67,5.2-19.64,18.94c2.44,5.24,14.32,10.47,14.32,10.47S251.46,77.61,243.08,65.1z"
		/>
</g>
</svg>
