<?xml version="1.0" encoding="utf-8"?>
<!-- Generator: Adobe Illustrator 24.1.3, SVG Export Plug-In . SVG Version: 6.00 Build 0)  -->
<svg version="1.1" id="Layer_1" xmlns="http://www.w3.org/2000/svg" xmlns:xlink="http://www.w3.org/1999/xlink" x="0px" y="0px"
	 viewBox="0 0 500 363" style="enable-background:new 0 0 500 363;" xml:space="preserve">
<style type="text/css">
	.st0{fill:#EBEBEB;}
	.st1{fill:#F0F0F0;}
	.st2{fill:#F5F5F5;}
	.st3{fill:#E6E6E6;}
	.st4{fill:#FAFAFA;}
	.st5{fill:#FFFFFF;}
	.st6{opacity:0.4;}
	.st7{fill:#E0E0E0;}
	.st8{fill:#263238;}
	.st9{fill:#407BFF;}
	.st10{opacity:0.2;fill:#FFFFFF;enable-background:new    ;}
	.st11{fill:#FFC3BD;}
	.st12{opacity:0.2;enable-background:new    ;}
	.st13{opacity:0.1;enable-background:new    ;}
	.st14{opacity:0.4;fill:#FFFFFF;enable-background:new    ;}
	.st15{opacity:0.6;}
	.st16{opacity:0.5;enable-background:new    ;}
	.st17{fill:#ED847E;}
</style>
<g id="freepik--background-complete--inject-81">
	<rect x="-0.44" y="327.49" class="st0" width="500" height="0.25"/>
	<rect x="434.56" y="343.58" class="st0" width="14.9" height="0.25"/>
	<rect x="322.09" y="346.3" class="st0" width="8.69" height="0.25"/>
	<rect x="396.15" y="334.3" class="st0" width="34.19" height="0.25"/>
	<rect x="66" y="339.46" class="st0" width="43.19" height="0.25"/>
	<rect x="118.09" y="339.46" class="st0" width="15.58" height="0.25"/>
	<rect x="160.64" y="336.1" class="st0" width="93.68" height="0.25"/>
	<path class="st0" d="M236.56,282.89H43.47c-3.15-0.01-5.7-2.56-5.7-5.71V5.75c0.03-3.13,2.57-5.65,5.7-5.66h193.09
		c3.15,0,5.71,2.56,5.71,5.71c0,0,0,0,0,0v271.38C242.27,280.33,239.71,282.89,236.56,282.89z M43.47,0.29
		c-3.01,0.01-5.45,2.45-5.45,5.46v271.43c0,3.01,2.44,5.45,5.45,5.46h193.09c3.01-0.01,5.45-2.45,5.46-5.46V5.75
		c-0.01-3.01-2.45-5.45-5.46-5.46H43.47z"/>
	<path class="st0" d="M452.87,282.89h-193.1c-3.15-0.01-5.7-2.56-5.71-5.71V5.75c0.03-3.13,2.58-5.65,5.71-5.66h193.1
		c3.13,0.01,5.66,2.53,5.69,5.66v271.43C458.56,280.32,456.01,282.88,452.87,282.89z M259.77,0.29c-3.01,0.01-5.45,2.45-5.46,5.46
		v271.43c0.01,3.01,2.45,5.45,5.46,5.46h193.1c3.01-0.01,5.45-2.45,5.46-5.46V5.75c-0.01-3.01-2.45-5.45-5.46-5.46H259.77z"/>
	<rect x="221.06" y="266.09" class="st1" width="7.9" height="54.1"/>
	<rect x="61.27" y="320.19" class="st1" width="162.48" height="7.3"/>
	<rect x="56.05" y="266.09" class="st2" width="165.01" height="54.1"/>
	<rect x="66.72" y="275.51" class="st1" width="143.66" height="30.9"/>
	<path class="st2" d="M173.51,279.64h-69.9c-1.31,0-2.37-1.06-2.37-2.37v-0.44c0-1.31,1.06-2.37,2.37-2.37h69.9
		c1.31,0,2.37,1.06,2.37,2.37v0.44C175.88,278.58,174.82,279.64,173.51,279.64z"/>
	<rect x="52.43" y="261.26" class="st1" width="168.63" height="4.83"/>
	<rect x="221.06" y="261.26" class="st3" width="11.69" height="4.83"/>
	<rect x="215.03" y="27.75" class="st3" width="211.43" height="162.15"/>
	<path class="st3" d="M195.24,21.44h243.18c1.01,0,1.83,0.82,1.83,1.83l0,0c-0.01,1.01-0.82,1.82-1.83,1.82H195.24
		c-1.01,0.01-1.83-0.81-1.84-1.82c0,0,0-0.01,0-0.01l0,0C193.4,22.25,194.23,21.43,195.24,21.44
		C195.24,21.44,195.24,21.44,195.24,21.44z"/>
	<rect x="207.19" y="27.75" class="st1" width="215.61" height="162.15"/>
	<polygon class="st3" points="215.03,189.9 426.46,189.9 426.46,195.09 209.63,195.09 	"/>
	<polygon class="st1" points="194.13,189.9 409.74,189.9 404.34,195.09 188.74,195.09 	"/>
	<rect x="218.16" y="38.72" class="st4" width="193.66" height="140.21"/>
	<polygon class="st5" points="347.2,178.92 282.81,38.72 252.4,38.72 316.8,178.92 	"/>
	<polygon class="st5" points="310.27,178.92 245.87,38.72 234.02,38.72 298.42,178.92 	"/>
	<rect x="218.17" y="38.72" class="st3" width="1.39" height="140.21"/>
	<g class="st6">
		<rect x="411.7" y="18.15" class="st1" width="18.88" height="133.81"/>
		<rect x="404.34" y="18.15" class="st3" width="14.71" height="133.81"/>
		<rect x="392.82" y="18.15" class="st1" width="18.88" height="133.81"/>
		<rect x="385.46" y="18.15" class="st3" width="14.71" height="133.81"/>
		<rect x="373.93" y="18.15" class="st1" width="18.88" height="133.81"/>
	</g>
	<g class="st6">
		<rect x="225.2" y="18.15" class="st1" width="10.88" height="133.81"/>
		<rect x="220.95" y="18.15" class="st3" width="8.48" height="133.81"/>
		<rect x="214.31" y="18.15" class="st1" width="10.88" height="133.81"/>
		<rect x="210.07" y="18.15" class="st3" width="8.48" height="133.81"/>
		<rect x="203.43" y="18.15" class="st1" width="10.88" height="133.81"/>
	</g>
	<rect x="69.89" y="18.24" class="st2" width="86.87" height="221.96"/>
	<rect x="156.77" y="18.23" class="st7" width="2.38" height="221.96"/>
	<rect x="77.93" y="26.28" class="st5" width="70.78" height="205.87"/>
	<polygon class="st4" points="102.85,232.15 126.34,26.28 139.89,26.28 116.41,232.15 	"/>
	<polygon class="st4" points="91.11,232.15 114.59,26.28 121.37,26.28 97.89,232.15 	"/>
</g>
<g id="freepik--Device--inject-81">
	<path class="st8" d="M397.61,361.33h-116.8c-6.47,0.07-11.78-5.12-11.85-11.59c0-0.35,0.01-0.7,0.04-1.05l16.3-247.07
		c0.57-7.05,6.4-12.52,13.47-12.64h116.79c6.47-0.06,11.77,5.13,11.84,11.6c0,0.35-0.01,0.69-0.04,1.04l-16.28,247.07
		C410.51,355.74,404.68,361.21,397.61,361.33z"/>
	<path class="st8" d="M422.2,155.42h-14.14c-1.56,0.02-2.84-1.24-2.86-2.8c0-0.08,0-0.17,0.01-0.25l1.41-21.4
		c0.16-1.68,1.57-2.98,3.26-3h14.13c1.56-0.01,2.84,1.24,2.86,2.8c0,0.07,0,0.13-0.01,0.2l-1.41,21.4
		C425.31,154.07,423.9,155.39,422.2,155.42z"/>
	<rect x="324.17" y="85.48" class="st9" width="5.17" height="1"/>
	<rect x="299" y="85.48" class="st9" width="18.8" height="1"/>
	<path class="st9" d="M395.83,361.33h-116.8c-6.48,0.06-11.78-5.14-11.84-11.61c0-0.34,0.01-0.68,0.03-1.03l16.34-247.07
		c0.57-7.05,6.4-12.52,13.47-12.64h116.8c6.47-0.03,11.74,5.2,11.77,11.67c0,0.32-0.01,0.64-0.04,0.97L409.3,348.69
		C408.73,355.74,402.9,361.21,395.83,361.33z"/>
	<path class="st5" d="M401.13,332.55H277.56c-3.68,0.04-6.69-2.91-6.73-6.59c0-0.2,0-0.39,0.02-0.59l14.19-215.1
		c0.32-4,3.61-7.1,7.62-7.18h123.6c3.68-0.04,6.69,2.91,6.73,6.59c0,0.2,0,0.39-0.02,0.59l-14.19,215.1
		C408.46,329.37,405.15,332.48,401.13,332.55z"/>
	<polygon class="st4" points="378.08,103.09 353.54,103.09 294.09,332.55 318.63,332.55 	"/>
	<polygon class="st4" points="399.7,103.09 387.43,103.09 327.98,332.55 340.25,332.55 	"/>
	<path class="st1" d="M383.4,261.45l-26.68-100.91c-1.49-5.59-7.21-8.92-12.8-7.45l-63.12,16.68l-8.42,131.86l103.57-27.37
		C381.53,272.76,384.86,267.04,383.4,261.45z"/>
	
		<ellipse transform="matrix(0.7187 -0.6953 0.6953 0.7187 -144.0918 332.2013)" class="st10" cx="338.55" cy="344.2" rx="8.08" ry="7.56"/>
	<path class="st10" d="M358.19,95.63c-0.14,1.81-1.64,3.2-3.45,3.23c-1.66,0-3-1.33-3.01-2.99c0-0.08,0-0.16,0.01-0.24
		c0.14-1.81,1.64-3.21,3.45-3.23c1.66,0,3,1.33,3.01,2.99C358.2,95.47,358.19,95.55,358.19,95.63z"/>
	<path class="st10" d="M356.73,95.63c-0.07,0.99-0.89,1.77-1.89,1.78c-0.91,0.01-1.65-0.71-1.67-1.61c0-0.06,0-0.11,0.01-0.17
		c0.07-0.99,0.89-1.77,1.89-1.78c0.91-0.01,1.65,0.71,1.67,1.61C356.73,95.52,356.73,95.57,356.73,95.63z"/>
</g>
<g id="freepik--Character--inject-81">
	<path class="st8" d="M168.88,83.15c3.73-9.17,2.39-20.34-8.19-22.84c-8.24-2.12-16.64,2.84-18.77,11.08
		c-0.38,1.47-0.54,2.99-0.47,4.51c0.42,10,7,18.33-4.53,25.58s-10.3,29.1,12,24.88c22.3-4.22,10.25-15.69,10.25-15.69
		s-5.47,4.46-7.23-0.08C149.71,104.71,164.56,93.88,168.88,83.15z"/>
	<path class="st8" d="M129.64,113.23l-0.49-0.11c1.49-6.67,3.83-8.39,6.3-10.21s4.81-3.55,6.7-10.11c0.89-3.09,0.33-6.51-0.22-9.81
		c-0.7-4.21-1.42-8.57,0.75-12.47l0.43,0.25c-2.08,3.74-1.37,8-0.69,12.14c0.56,3.36,1.14,6.83,0.21,10
		c-1.93,6.72-4.45,8.57-6.88,10.37S131.09,106.75,129.64,113.23z"/>
	<path class="st11" d="M197.28,133.52c0.07,0.34,0.19,0.85,0.3,1.31l0.35,1.41c0.24,0.95,0.51,1.9,0.79,2.85
		c0.57,1.89,1.18,3.8,1.84,5.68c1.32,3.78,2.83,7.5,4.52,11.13l1.26,2.63c0.21,0.47,0.52,0.89,0.89,1.25
		c1.12,0.9,2.47,1.5,3.89,1.72c3.74,0.6,7.55,0.6,11.29,0l1.35,4.25c-1.03,0.46-2.09,0.86-3.17,1.2c-1.07,0.36-2.16,0.66-3.26,0.9
		c-2.29,0.53-4.65,0.75-7,0.65c-2.77-0.08-5.46-0.93-7.77-2.45c-1.3-0.9-2.4-2.07-3.22-3.42l-0.16-0.25l-0.1-0.17l-0.2-0.36
		l-0.41-0.7l-0.81-1.42c-2.09-3.81-3.93-7.76-5.5-11.82c-0.76-2-1.51-4.09-2.12-6.2c-0.3-1-0.6-2.11-0.87-3.19s-0.51-2.1-0.73-3.38
		L197.28,133.52z"/>
	<path class="st9" d="M189.56,119.54c10.09,4.5,10,19.62,10,19.62l-10.63,6.39c0,0-8-11.84-7.4-17.22
		C182.12,122.72,183.84,117.01,189.56,119.54z"/>
	<path class="st12" d="M191.15,132.44c-2.76-2.79-5.19,0.43-7.41,4c1.52,3.16,3.26,6.21,5.19,9.13l4.36-2.62
		C194.15,139.62,193.9,135.24,191.15,132.44z"/>
	<path class="st11" d="M221.36,161.88l7.1-3.54l0.08,9.29c0,0-5.3,0.92-8.83-2.8L221.36,161.88z"/>
	<polygon class="st11" points="236.09,159.99 234.87,166.89 228.54,167.63 228.46,158.34 	"/>
	<polygon class="st11" points="156.37,353.95 165.15,354.79 169.24,334.36 160.46,333.52 	"/>
	<polygon class="st11" points="98.8,330 105.94,335.2 117.85,318.3 110.7,313.1 	"/>
	<path class="st8" d="M108.56,331.95l-5.88-8.05c-0.2-0.3-0.6-0.39-0.91-0.22l-7.05,3.74c-0.68,0.4-0.92,1.27-0.52,1.95
		c0.03,0.05,0.06,0.09,0.09,0.14c2.1,2.77,3.25,4,5.84,7.55c1.6,2.18,4.8,7.23,7,10.24s5.29,1,4.65-0.45
		c-2.9-6.51-3-10.32-2.78-13.37C109.04,332.93,108.88,332.39,108.56,331.95z"/>
	<path class="st8" d="M166.31,352.14h-10.54c-0.39,0-0.73,0.26-0.83,0.64l-2.29,8.31c-0.2,0.7,0.2,1.42,0.9,1.62
		c0.12,0.04,0.25,0.05,0.38,0.05c3.72,0,5.48,0,10.11,0h14.17c3.85,0,4.65-3.89,3.06-4.25c-7.14-1.58-11.26-3.76-13.47-5.84
		C167.38,352.31,166.85,352.12,166.31,352.14z"/>
	<polygon class="st12" points="169.24,334.37 167.13,344.9 158.18,344.9 160.46,333.53 	"/>
	<polygon class="st12" points="110.7,313.1 117.85,318.31 111.71,327.02 104.56,321.81 	"/>
	<path class="st9" d="M193.72,127.51c-0.62,6.75-2.86,20-9.41,45.89l-35.94-3.11c1.73-13.49,2.54-22.23-0.84-47.77
		c-0.44-3.4,1.96-6.52,5.36-6.96c0.14-0.02,0.28-0.03,0.42-0.04c2.59-0.14,5.67-0.23,8.76-0.11c5.47,0.08,10.92,0.55,16.32,1.41
		c3.17,0.57,6.55,1.39,9.3,2.11C191.52,119.93,194.07,123.56,193.72,127.51z"/>
	<path class="st12" d="M148.45,130c0.46,4,0.8,7.57,1,10.77c3.31-0.29,5.75-3.92,6-11.51C154.21,125.59,151.26,126.92,148.45,130z"
		/>
	<path class="st8" d="M184.31,173.4c0,0,12.16,53.8,4,91.73c-5.43,25.4-17.52,76.71-17.52,76.71l-15.33-0.39
		c0,0,7.32-53.85,10.39-75c5.25-36.22-7.9-95.29-7.9-95.29L184.31,173.4z"/>
	<path class="st12" d="M170.29,184.27l-7.67,12.09c2.31,14.33,3.78,28.79,4.39,43.3C177.79,220.36,172.68,194.48,170.29,184.27z"/>
	<polygon class="st9" points="172.99,342.64 154.05,342.16 155.15,336.34 174.47,337.25 	"/>
	<path class="st8" d="M176.45,172.83c0,0-7.13,57.05-22.6,88.2c-12.49,25.16-38.62,65.15-38.62,65.15l-9.55-7.65
		c0,0,16.34-44.23,25.62-60.94c22.77-41,4.16-72.25,17.07-87.3L176.45,172.83z"/>
	<path class="st9" d="M156.03,193.47L326,122.06c5.34-2.24,11.48,0.27,13.72,5.6l40.43,96.22c2.24,5.34-0.27,11.48-5.6,13.72
		l-169.98,71.42c-5.34,2.24-11.48-0.27-13.72-5.6l-40.43-96.22C148.18,201.86,150.69,195.72,156.03,193.47z"/>
	<path class="st13" d="M156.03,193.47L326,122.06c5.34-2.24,11.48,0.27,13.72,5.6l40.43,96.22c2.24,5.34-0.27,11.48-5.6,13.72
		l-169.98,71.42c-5.34,2.24-11.48-0.27-13.72-5.6l-40.43-96.22C148.18,201.86,150.69,195.72,156.03,193.47z"/>
	<path class="st10" d="M169.63,203.17l33.28-13.98c2.57-1.08,5.52,0.13,6.6,2.69l7.01,16.7c1.08,2.57-0.13,5.52-2.69,6.6
		l-33.28,13.98c-2.57,1.08-5.52-0.13-6.6-2.69l-7.01-16.7C165.86,207.21,167.07,204.25,169.63,203.17z"/>
	<path class="st14" d="M193.66,268.89l32.61-13.7c0.96-0.4,2.07,0.05,2.47,1.01l2.48,5.89c0.4,0.96-0.05,2.07-1.01,2.47l-32.61,13.7
		c-0.96,0.4-2.07-0.05-2.47-1.01l-2.48-5.89C192.24,270.4,192.7,269.29,193.66,268.89z"/>
	<path class="st14" d="M236.08,251.07l32.61-13.7c0.96-0.4,2.07,0.05,2.47,1.01l2.48,5.89c0.4,0.96-0.05,2.07-1.01,2.47l-32.61,13.7
		c-0.96,0.4-2.07-0.05-2.47-1.01l-2.48-5.89C234.67,252.58,235.12,251.47,236.08,251.07z"/>
	<path class="st14" d="M278.5,233.25l32.61-13.7c0.96-0.4,2.07,0.05,2.47,1.01l2.48,5.89c0.4,0.96-0.05,2.07-1.01,2.47l-32.61,13.7
		c-0.96,0.4-2.07-0.05-2.47-1.01l-2.48-5.89C277.08,234.76,277.54,233.65,278.5,233.25z"/>
	<path class="st14" d="M320.93,215.43l32.61-13.7c0.96-0.4,2.07,0.05,2.47,1.01l2.48,5.89c0.4,0.96-0.05,2.07-1.01,2.47l-32.61,13.7
		c-0.96,0.4-2.07-0.05-2.47-1.01l-2.48-5.89C319.51,216.94,319.96,215.83,320.93,215.43z"/>
	<g class="st15">
		<circle class="st8" cx="320.79" cy="154.98" r="14.1"/>
		<circle class="st5" cx="303.7" cy="162.12" r="14.1"/>
	</g>
	<polygon class="st9" points="116.23,327.24 103.98,317.97 106.99,312.59 120.01,322.69 	"/>
	<path class="st9" d="M148.01,168.14l-1.9,3.08c-0.15,0.23,0.13,0.52,0.54,0.55l37.7,3.26c0.32,0,0.6-0.11,0.64-0.31l0.6-3.19
		c0.05-0.22-0.22-0.43-0.57-0.46l-36.4-3.15C148.39,167.88,148.16,167.96,148.01,168.14z"/>
	<path class="st16" d="M148.01,168.14l-1.9,3.08c-0.15,0.23,0.13,0.52,0.54,0.55l37.7,3.26c0.32,0,0.6-0.11,0.64-0.31l0.6-3.19
		c0.05-0.22-0.22-0.43-0.57-0.46l-36.4-3.15C148.39,167.88,148.16,167.96,148.01,168.14z"/>
	<path class="st9" d="M152.56,172.63l-1-0.08c-0.19,0-0.33-0.13-0.31-0.25l0.82-4.14c0-0.13,0.2-0.21,0.4-0.19l1,0.08
		c0.2,0,0.34,0.13,0.31,0.25l-0.82,4.14C152.92,172.56,152.74,172.65,152.56,172.63z"/>
	<path class="st9" d="M181.56,175.14l-1-0.08c-0.19,0-0.33-0.13-0.31-0.25l0.82-4.14c0.07-0.15,0.24-0.23,0.4-0.19l1,0.08
		c0.2,0,0.34,0.13,0.31,0.25l-0.82,4.14C181.95,175.09,181.77,175.16,181.56,175.14z"/>
	<path class="st9" d="M167.06,173.89l-1-0.09c-0.2,0-0.34-0.13-0.31-0.25l0.82-4.14c0-0.12,0.2-0.21,0.39-0.19l1,0.09
		c0.19,0,0.33,0.13,0.31,0.25l-0.82,4.14C167.43,173.82,167.26,173.9,167.06,173.89z"/>
	<path class="st9" d="M110.8,336.4c-0.11,0.02-0.23,0.02-0.34,0c-1.09-0.22-2-2.07-2.48-3.15c-0.04-0.06-0.04-0.13,0-0.19
		c0.05-0.04,0.13-0.04,0.18,0c0.34,0.12,3.32,1.27,3.55,2.36c0.06,0.24-0.03,0.49-0.22,0.65C111.3,336.25,111.06,336.36,110.8,336.4
		z M108.47,333.48c0.68,1.49,1.44,2.44,2.06,2.56c0.28,0.04,0.57-0.06,0.76-0.28c0.1-0.08,0.15-0.21,0.12-0.33
		C111.27,334.76,109.5,333.9,108.47,333.48L108.47,333.48z"/>
	<path class="st9" d="M110.89,333.62c-0.95,0.12-1.92,0.02-2.82-0.3c-0.06-0.03-0.09-0.08-0.1-0.14c-0.01-0.06,0.02-0.12,0.07-0.16
		c0.09-0.06,2.15-1.56,3.39-1.28c0.31,0.06,0.58,0.25,0.73,0.53c0.2,0.26,0.2,0.62,0,0.88C111.8,333.45,111.35,333.61,110.89,333.62
		z M108.56,333.09c1,0.29,2.87,0.31,3.33-0.2c0.08-0.08,0.15-0.21,0-0.47c-0.1-0.19-0.28-0.32-0.49-0.36
		C110.56,331.89,109.12,332.72,108.56,333.09z"/>
	<path class="st9" d="M170.99,353.84c-0.97-0.02-1.93-0.15-2.88-0.36c-0.09-0.04-0.13-0.15-0.09-0.24c0.02-0.04,0.05-0.07,0.09-0.09
		c0.44-0.21,4.26-2,5.22-1.32c0.18,0.12,0.28,0.33,0.25,0.54c0,0.4-0.2,0.77-0.52,1C172.43,353.74,171.71,353.9,170.99,353.84z
		 M168.71,353.24c1.14,0.21,3.24,0.49,4.1-0.16c0.23-0.18,0.36-0.44,0.38-0.73c0-0.14,0-0.2-0.09-0.23
		C172.56,351.75,170.3,352.54,168.71,353.24z"/>
	<path class="st9" d="M168.15,353.48c-0.04,0.01-0.07,0.01-0.11,0c-0.05-0.04-0.08-0.11-0.06-0.17c0-0.17,0.9-3.94,3-3.7
		c0.52,0.07,0.66,0.32,0.69,0.53c0.13,1-2.28,2.9-3.44,3.37L168.15,353.48z M170.77,349.91c-1.33,0-2.1,2.2-2.36,3.08
		c1.25-0.66,3-2.23,2.89-2.84c0-0.05,0-0.19-0.39-0.23L170.77,349.91z"/>
	<path class="st11" d="M152.35,130.18l-0.53,0.75l-0.58,0.85c-0.39,0.58-0.78,1.17-1.15,1.78c-0.76,1.2-1.45,2.45-2.15,3.7
		c-1.38,2.51-2.6,5.12-3.64,7.79c-1.05,2.66-1.93,5.38-2.63,8.15l-0.47,2c0-0.06-0.06,0.15,0.05,0.53c0.34,1.07,0.85,2.08,1.49,3
		c1.62,2.32,3.43,4.5,5.42,6.51c2,2.12,4.22,4.17,6.43,6.21s4.53,4,6.85,5.93s4.69,3.88,7,5.76l-2.5,3.69
		c-5.36-3.18-10.53-6.66-15.49-10.42c-2.5-1.88-4.95-3.86-7.32-6c-2.49-2.18-4.75-4.59-6.77-7.21c-1.21-1.54-2.16-3.26-2.8-5.11
		c-0.44-1.29-0.58-2.65-0.43-4v-0.28v-0.15l0.05-0.3l0.1-0.61l0.21-1.21c0.59-3.22,1.42-6.39,2.48-9.49c1.1-3.08,2.4-6.09,3.89-9
		c0.75-1.46,1.57-2.87,2.45-4.26c0.43-0.7,0.88-1.39,1.35-2.08l0.74-1c0.26-0.35,0.48-0.66,0.83-1.09L152.35,130.18z"/>
	<path class="st9" d="M151.46,116.09c-6.86,1.8-13.48,18.43-13.48,18.43l8.88,8.12c0,0,13.95-12.72,13.48-18.46
		C159.95,119.3,156.97,114.63,151.46,116.09z"/>
	<path class="st12" d="M162.07,115.09c-1.26,0.26-2.54,0.37-3.82,0.35c-0.27,4.94,2.9,9.71,10.69,16.11c1.87-5.83,6-7.09,6-7.09
		L162.07,115.09z"/>
	<path class="st12" d="M178.39,116.66c0,0,0.91,0.13,3.08,0.63c1.45,2.23,3.33,9.1-0.94,14c-1.66-6-5.62-6.76-5.62-6.76
		L178.39,116.66z"/>
	<path class="st5" d="M162.07,115.09c0,0-2,0-4.44,0c-1.45,2.23,3.54,8.41,11.32,14.81c1.87-5.83,6-5.48,6-5.48L162.07,115.09z"/>
	<path class="st5" d="M178.39,116.66c0,0,0.91,0.13,3.08,0.63c1.45,2.23,4.58,8.27,0.31,13.13c-1.66-6-6.87-5.92-6.87-5.92
		L178.39,116.66z"/>
	<path class="st11" d="M165.28,97.14c0.58,5.34,0.77,15-3.21,18.24c0,0,2.07,6,12.84,9.12c6.48-3.74,3.48-7.71,3.48-7.71
		c-5.73-1.9-5.2-6.23-3.83-10.23L165.28,97.14z"/>
	<path class="st12" d="M169.06,100.99l5.5,5.57c-0.34,0.93-0.59,1.88-0.76,2.85c-2.21-0.51-5.41-2.81-5.44-5.17
		C168.4,103.12,168.63,102.02,169.06,100.99z"/>
	<path class="st8" d="M177.44,75.8c1.75-1.93,5.22,0.53,6.5,5.26c1.92,7-3.2,7.5-5.88,4S175.98,77.41,177.44,75.8z"/>
	<path class="st8" d="M182.86,88.09c1.76,0.61,3.42,1.46,4.93,2.54C186.92,88.51,186.14,87.22,182.86,88.09z"/>
	<path class="st8" d="M183.87,88.42c1.42-0.28,2.88-0.36,4.32-0.24C186.77,87.09,185.74,86.55,183.87,88.42z"/>
	<path class="st11" d="M160.56,88.8c2.23,8.53,3,12.19,8.22,15.76c7.87,5.38,17.86,0.78,18.23-8.25c0.33-8.12-3.37-20.7-12.5-22.48
		c-6.49-1.32-12.83,2.88-14.15,9.37C159.98,85.05,160.05,86.97,160.56,88.8z"/>
	<path class="st5" d="M164.68,77.55l-2.47,2.87c-1.54,1.76-4.22,1.96-6,0.44l0,0c-1.77-1.54-1.97-4.21-0.45-6l2.47-2.86
		c1.54-1.76,4.21-1.96,6-0.45l0,0C165.99,73.09,166.19,75.76,164.68,77.55z"/>
	<path class="st9" d="M166.96,80.75l-3,1.5c-2.56,1.26-5.66,0.21-6.93-2.35l0,0c-1.26-2.57-0.21-5.67,2.35-6.94l3-1.5
		c2.57-1.25,5.67-0.2,6.94,2.36l0,0C170.57,76.38,169.52,79.48,166.96,80.75z"/>
	<path class="st8" d="M163.12,95.18c0,0,6.16-1.41,3.54-10.42c-0.35-1.25,0.38-2.56,1.63-2.91c0.19-0.05,0.39-0.08,0.59-0.09
		c6.94-0.19,13.43-1.64,12.51-5.66c-1.15-5.08-18.44-9-21.58,1.17C153.68,78.7,153.45,90.78,163.12,95.18z"/>
	<path class="st8" d="M163.15,93.4c1.76,0.61,3.42,1.46,4.93,2.54C167.21,93.84,166.43,92.55,163.15,93.4z"/>
	<path class="st8" d="M164.16,93.75c1.42-0.28,2.88-0.36,4.32-0.24C167.07,92.44,166.04,91.89,164.16,93.75z"/>
	<path class="st11" d="M159.16,95.5c0.8,1.51,2.16,2.64,3.79,3.14c2.17,0.65,3.29-1.27,2.73-3.34c-0.51-1.86-2.25-4.43-4.44-4.18
		c-1.59,0.22-2.69,1.68-2.48,3.27C158.82,94.78,158.95,95.16,159.16,95.5z"/>
	<path class="st8" d="M175.02,88.51c0.14,0.7,0.63,1.2,1.08,1.11s0.72-0.74,0.59-1.44s-0.63-1.2-1.09-1.11S174.88,87.8,175.02,88.51
		z"/>
	<path class="st8" d="M182.97,86.94c0.14,0.71,0.62,1.2,1.08,1.11s0.72-0.73,0.58-1.43s-0.62-1.2-1.08-1.11
		S182.83,86.24,182.97,86.94z"/>
	<path class="st8" d="M183.36,85.59l1.59-0.82C184.95,84.77,184.34,86.26,183.36,85.59z"/>
	<path class="st17" d="M180.24,88.7c0.94,1.48,2.08,2.83,3.39,4c-0.62,0.68-1.5,1.04-2.42,1L180.24,88.7z"/>
	<path class="st8" d="M177.96,97.01c-1.48,0.02-2.91-0.53-4-1.53c-0.07-0.07-0.07-0.18,0-0.25c0.07-0.07,0.18-0.07,0.25,0
		c1.37,1.2,3.22,1.68,5,1.29c0.09-0.02,0.18,0.05,0.2,0.14s-0.05,0.18-0.14,0.2C178.84,96.95,178.4,97,177.96,97.01z"/>
	<path class="st8" d="M170.25,85.78c-0.06,0-0.12-0.02-0.18-0.05c-0.17-0.1-0.22-0.31-0.12-0.48c0.67-1.14,1.85-1.89,3.17-2
		c0.19,0,0.35,0.15,0.36,0.34c0.01,0.19-0.15,0.35-0.34,0.36c0,0,0,0,0,0c-1.09,0.12-2.05,0.76-2.59,1.71
		C170.47,85.74,170.36,85.79,170.25,85.78z"/>
	<path class="st8" d="M185.18,82.96c-0.06,0.01-0.11,0.01-0.17,0c-0.95-0.56-2.1-0.63-3.11-0.2c-0.19,0.09-0.41,0.02-0.51-0.16
		c-0.09-0.19-0.02-0.41,0.17-0.51c1.22-0.55,2.62-0.47,3.77,0.21c0.16,0.09,0.23,0.3,0.13,0.46c0,0,0,0.01,0,0.01
		C185.41,82.88,185.3,82.95,185.18,82.96z"/>
	<path class="st11" d="M165.17,181.65l8,0.56l-3.61,8.55c0,0-6.68-2.11-6.95-7L165.17,181.65z"/>
	<polygon class="st11" points="176.24,187.05 172.37,192.89 169.57,190.76 173.2,182.21 	"/>
	<path class="st8" d="M175.41,87.15l1.59-0.82C177,86.33,176.39,87.82,175.41,87.15z"/>
</g>
</svg>
