<?xml version="1.0" encoding="utf-8"?>
<!-- Generator: Adobe Illustrator 24.1.3, SVG Export Plug-In . SVG Version: 6.00 Build 0)  -->
<svg version="1.1" id="Layer_1" xmlns="http://www.w3.org/2000/svg" xmlns:xlink="http://www.w3.org/1999/xlink" x="0px" y="0px"
	 viewBox="0 0 500 375" style="enable-background:new 0 0 500 375;" xml:space="preserve">
<style type="text/css">
	.st0{fill:#EBEBEB;}
	.st1{fill:#E6E6E6;}
	.st2{fill:#F0F0F0;}
	.st3{fill:#F5F5F5;}
	.st4{fill:#FFFFFF;}
	.st5{fill:#FAFAFA;}
	.st6{opacity:0.6;}
	.st7{fill:#263238;}
	.st8{fill:#B55B52;}
	.st9{opacity:0.2;enable-background:new    ;}
	.st10{fill:#407BFF;}
	.st11{opacity:0.1;enable-background:new    ;}
	.st12{fill:#A02724;}
	.st13{opacity:0.5;enable-background:new    ;}
	.st14{opacity:0.4;enable-background:new    ;}
</style>
<g id="freepik--background-complete--inject-352">
	<rect x="0.07" y="328.17" class="st0" width="500" height="0.25"/>
	<rect x="78.61" y="336.56" class="st0" width="33.12" height="0.25"/>
	<rect x="133.4" y="343.77" class="st0" width="30.17" height="0.25"/>
	<rect x="56.92" y="345.84" class="st0" width="38.25" height="0.25"/>
	<rect x="434.07" y="345.3" class="st0" width="15.9" height="0.25"/>
	<rect x="391.54" y="345.3" class="st0" width="39.32" height="0.25"/>
	<rect x="250.07" y="336.43" class="st0" width="30.33" height="0.25"/>
	<rect x="284.74" y="336.43" class="st0" width="72.1" height="0.25"/>
	<path class="st0" d="M237.07,283.57H43.98c-3.15-0.01-5.7-2.56-5.7-5.71V6.43c0.03-3.13,2.57-5.65,5.7-5.66h193.09
		c3.15,0,5.71,2.56,5.71,5.71c0,0,0,0,0,0v271.38C242.78,281.02,240.22,283.57,237.07,283.57z M43.98,0.97
		c-3.01,0.01-5.45,2.45-5.45,5.46v271.43c0,3.01,2.44,5.45,5.45,5.46h193.09c3.01-0.01,5.45-2.45,5.46-5.46V6.43
		c-0.01-3.01-2.45-5.45-5.46-5.46H43.98z"/>
	<path class="st0" d="M453.38,283.57h-193.1c-3.15-0.01-5.7-2.56-5.71-5.71V6.43c0.03-3.13,2.58-5.65,5.71-5.66h193.1
		c3.13,0.01,5.66,2.53,5.69,5.66v271.43C459.07,281.01,456.52,283.56,453.38,283.57z M260.28,0.97c-3.01,0.01-5.45,2.45-5.46,5.46
		v271.43c0.01,3.01,2.45,5.45,5.46,5.46h193.1c3.01-0.01,5.45-2.45,5.46-5.46V6.43c-0.01-3.01-2.45-5.45-5.46-5.46H260.28z"/>
	<rect x="380.14" y="202.41" class="st1" width="37.25" height="125.76"/>
	<polygon class="st2" points="411.2,328.17 417.39,328.17 417.39,316.85 404.69,316.85 	"/>
	<rect x="228.51" y="202.41" class="st1" width="37.25" height="125.76"/>
	<rect x="260.36" y="202.41" class="st2" width="157.04" height="121.41"/>
	<rect x="265.17" y="207.79" class="st1" width="147.42" height="33.3"/>
	<path class="st2" d="M345.84,218.14h-13.93c-6,0-11.83-4.11-16-11.36h45.91C357.67,214.03,351.89,218.14,345.84,218.14z"/>
	<polygon class="st2" points="266.56,328.17 260.36,328.17 260.36,316.85 273.06,316.85 	"/>
	<rect x="265.17" y="246.47" class="st1" width="147.42" height="33.3"/>
	<path class="st2" d="M345.84,256.77h-13.93c-6,0-11.83-4.1-16-11.36h45.91C357.67,252.71,351.89,256.77,345.84,256.77z"/>
	<rect x="265.17" y="285.15" class="st1" width="147.42" height="33.3"/>
	<path class="st2" d="M345.84,295.49h-13.93c-6,0-11.83-4.11-16-11.36h45.91C357.67,291.38,351.89,295.49,345.84,295.49z"/>
	<rect x="273.5" y="39.32" class="st2" width="160.86" height="78.08"/>
	<rect x="276.21" y="39.32" class="st3" width="163.95" height="78.08"/>
	<rect x="284.33" y="45.82" class="st4" width="147.72" height="65.09"/>
	<path class="st2" d="M385.63,174.83c2.9-30,4.91-78.78,3.35-95.08c-0.06-0.57-0.36-1.08-0.82-1.41l0,0
		c-0.89-0.65-2.14-0.46-2.8,0.43c-0.26,0.36-0.4,0.8-0.38,1.25c0.27,8.08,0.59,28.27-1.13,63.1c-0.86,17.33-2.09,29.2-1.24,31.71
		L385.63,174.83z"/>
	<path class="st2" d="M393.94,110.23c6.62-8.52,20.32-15.26,34.36-16.29c5.51-0.41-16.63,10.58-25.75,21.56
		c-7.07,8.52-15,22.56-17.64,30.22C386.46,129.91,387.31,118.77,393.94,110.23z"/>
	<path class="st2" d="M380.07,108.39c-6.85-9.54-22.67-16.89-39.79-17.72c-6.72-0.32,18.85,11.66,28.39,23.94
		c7.41,9.53,15,25.33,17.1,34C386.28,130.63,386.93,117.94,380.07,108.39z"/>
	<path class="st2" d="M393.48,82.15c5.23-7.11,16.78-12.95,29-14.14c4.8-0.47-13.86,9-21.1,18.22
		c-5.63,7.12-11.61,18.77-13.41,25.08C388.27,98.38,388.26,89.26,393.48,82.15z"/>
	<path class="st2" d="M382.95,83.61c-5.81-8.09-19.2-14.3-33.7-15c-5.69-0.27,16,9.87,24,20.27c6.28,8.07,12.72,21.45,14.49,28.79
		C388.2,102.43,388.75,91.69,382.95,83.61z"/>
	<path class="st2" d="M389.97,142.31c3.78-5.36,12.27-9.87,21.34-10.95c3.56-0.42-10.16,6.93-15.4,13.86
		c-4.07,5.38-8.34,14.12-9.58,18.83C386.34,154.44,386.2,147.67,389.97,142.31z"/>
	<path class="st2" d="M383.07,139.29c-3.28-5.32-11.4-9.81-20.45-10.89c-3.56-0.42,9.56,6.89,14.17,13.76c3.57,5.34,7,14,7.8,18.68
		C385.57,151.32,386.39,144.61,383.07,139.29z"/>
	<path class="st1" d="M384.4,202.41L384.4,202.41c7.23,0,13.2-1.51,13.61-8.72l1.21-20.87h-29.63l1.21,20.87
		C371.21,200.9,377.18,202.41,384.4,202.41z"/>
	<path class="st2" d="M369.76,177.57h29.31c1.19,0,2.18-0.9,2.31-2.08l0.45-4c0.14-1.28-0.79-2.44-2.08-2.58
		c-0.08-0.01-0.16-0.01-0.24-0.01h-30.19c-1.29,0-2.34,1.05-2.33,2.35c0,0.08,0,0.16,0.01,0.24l0.44,4
		C367.57,176.67,368.57,177.57,369.76,177.57z"/>
	<polygon class="st1" points="275.32,202.41 255.67,202.41 261.49,159.34 275.32,159.34 	"/>
	<polygon class="st2" points="304.16,202.41 266.92,202.41 259.98,152 297.23,152 	"/>
	<polygon class="st3" points="309.13,202.41 270.38,202.41 263.45,152 302.2,152 	"/>
	<polygon class="st4" points="273.8,198.44 267.96,155.97 298.77,155.97 304.61,198.44 	"/>
	<path class="st3" d="M291.17,188.64h-7.34c-1.32,0-2.44-0.97-2.62-2.28l-2.42-17.59c-0.11-0.76,0.12-1.52,0.62-2.1
		c0.51-0.57,1.24-0.9,2-0.9h7.34c1.32,0,2.44,0.97,2.62,2.28l2.42,17.59c0.2,1.44-0.81,2.78-2.26,2.98
		C291.41,188.63,291.29,188.64,291.17,188.64z M282.17,186.22c0.11,0.81,0.81,1.42,1.63,1.42h7.34c0.47,0,0.93-0.2,1.24-0.56
		c0.31-0.36,0.45-0.84,0.39-1.31l-2.42-17.58c-0.11-0.81-0.81-1.42-1.63-1.42h-7.34c-0.48,0-0.93,0.2-1.24,0.56
		c-0.32,0.35-0.46,0.83-0.39,1.3L282.17,186.22z"/>
	<rect x="63.19" y="37.02" class="st1" width="148.38" height="156.58"/>
	<path class="st1" d="M227.48,31.95H53.59c-0.81,0-1.47,0.66-1.47,1.47c0,0,0,0.01,0,0.01l0,0c0,0.81,0.66,1.47,1.47,1.47
		c0,0,0,0,0,0h173.89c0.81,0,1.47-0.66,1.47-1.47l0,0l0,0c0.01-0.81-0.65-1.47-1.46-1.48C227.49,31.95,227.48,31.95,227.48,31.95z"
		/>
	<rect x="66.14" y="37.02" class="st2" width="151.74" height="156.58"/>
	<rect x="74.95" y="45.84" class="st5" width="134.11" height="138.95"/>
	<polygon class="st4" points="105.39,184.79 157.13,45.83 181.55,45.83 129.82,184.79 	"/>
	<polygon class="st4" points="135.06,184.79 186.8,45.83 196.32,45.83 144.58,184.79 	"/>
	<rect x="207.94" y="45.83" class="st1" width="1.12" height="138.95"/>
	<g class="st6">
		<polygon class="st2" points="71.31,253.84 52.68,253.84 55.63,29.32 74.27,29.32 		"/>
		<polygon class="st1" points="78.57,253.84 64.05,253.84 67.01,29.32 81.52,29.32 		"/>
		<polygon class="st2" points="89.94,253.84 71.31,253.84 74.27,29.32 92.9,29.32 		"/>
		<polygon class="st1" points="97.2,253.84 82.68,253.84 85.64,29.32 100.16,29.32 		"/>
		<polygon class="st2" points="108.57,253.84 89.94,253.84 92.9,29.32 111.53,29.32 		"/>
	</g>
	<g class="st6">
		<polygon class="st2" points="214.8,253.84 225.33,253.84 226.74,29.32 216.21,29.32 		"/>
		<polygon class="st1" points="210.7,253.84 218.9,253.84 220.32,29.32 212.11,29.32 		"/>
		<polygon class="st2" points="204.27,253.84 214.8,253.84 216.21,29.32 205.68,29.32 		"/>
		<polygon class="st1" points="200.17,253.84 208.37,253.84 209.79,29.32 201.58,29.32 		"/>
		<polygon class="st2" points="193.74,253.84 204.27,253.84 205.68,29.32 195.15,29.32 		"/>
	</g>
</g>
<g id="freepik--Shadow--inject-352">
	<ellipse id="freepik--path--inject-352" class="st3" cx="250.07" cy="362.01" rx="193.89" ry="11.32"/>
</g>
<g id="freepik--Character--inject-352">
	<path class="st7" d="M284.69,64.56c-6-8.12-4.61-15.21,0-20.31c5.75-6.4,15.14-6.35,21.4-3.08c9.8,5.11,11.91,27.5-4.46,30.66
		C295.82,69.8,290.16,67.38,284.69,64.56z"/>
	<path class="st7" d="M304.18,42.58c6-3.53,4.33-10.38,9.75-14c7.54-5,23.79-2.83,18.71,9.67s13,13.22,7.75,25.64s-20.5,20-24.42,2
		c-2.93-13.49,9.52-30.87-0.53-29c-6.27,1.16-8.36,7.61-8.36,7.61L304.18,42.58z"/>
	<path class="st8" d="M289.27,95.52c-0.82,2.27-1.71,4.33-2.66,6.46s-2,4.18-3.1,6.23c-2.21,4.3-5,8.29-8.27,11.85
		c-0.94,1-1.96,1.9-3.07,2.71c-1.09,0.78-2.26,1.45-3.48,2c-2.25,1.01-4.59,1.78-7,2.32c-4.56,1.05-9.22,1.56-13.9,1.51
		c-1.2-0.02-2.15-1.01-2.13-2.21c0.02-0.97,0.68-1.82,1.62-2.06h0.1c4.18-0.98,8.3-2.22,12.33-3.71c1.89-0.71,3.73-1.57,5.48-2.57
		c0.78-0.45,1.52-0.96,2.22-1.53c0.67-0.56,1.3-1.19,1.86-1.86c1.29-1.52,2.45-3.15,3.47-4.86c1.08-1.77,2.12-3.6,3.08-5.51
		c1.9-3.78,3.7-7.82,5.25-11.7v-0.06c0.86-2.25,3.37-3.37,5.62-2.51c2.25,0.86,3.37,3.37,2.51,5.62L289.27,95.52z"/>
	<path class="st7" d="M287.97,88.12c-8.26,0.94-12.81,13.33-12.81,13.33l8.46,11.92c0,0,10-11.33,10.87-16.39
		C295.36,91.77,294.07,87.41,287.97,88.12z"/>
	<path class="st9" d="M283.45,95.7c2.77-1.74,5.79-0.78,8.36,2.45c0.53,0.93,0.89,1.94,1.05,3c-2.5,4.53-9.25,12.21-9.25,12.21
		l-3.87-5.45C279.45,104.69,281.66,96.77,283.45,95.7z"/>
	<path class="st8" d="M249.3,124.77l-6.23-3.36l-0.17,8.12c0,0,4.16,0.9,6.91-1.32L249.3,124.77z"/>
	<polygon class="st8" points="236.82,121.69 237.91,128.32 242.94,129.53 243.11,121.41 	"/>
	<path class="st10" d="M268.22,107.08l-5.46-4.48l-37.2,55.89l5.51,4.48c6.28,5.14,19.69-3.2,30-18.64
		C271.38,128.89,274.5,112.22,268.22,107.08z"/>
	<path class="st11" d="M268.22,107.08l-5.46-4.48l-37.2,55.89l5.51,4.48c6.28,5.14,19.69-3.2,30-18.64
		C271.38,128.89,274.5,112.22,268.22,107.08z"/>
	
		<ellipse transform="matrix(0.5346 -0.8451 0.8451 0.5346 3.2982 267.0889)" class="st10" cx="244.16" cy="130.55" rx="33.61" ry="14.6"/>
	<path class="st4" d="M237.26,139.71l5-7.54c-0.51-1.55-0.53-3.21-0.07-4.77c0.57-1.97,1.46-3.83,2.63-5.51
		c1.05-1.7,2.43-3.17,4.06-4.34c1.39-0.92,2.58-1.14,3.55-0.66l1.22-1.82l1.06,0.87l-1.2,1.83c0.66,1.03,0.86,2.29,0.56,3.47
		c-0.39,1.76-1.06,3.45-2,5l-2.25-0.92c0.7-1.07,1.05-2.33,1-3.6l-4.69,7c0.65,1.59,0.78,3.33,0.38,5c-1.27,4-3.71,7.52-7,10.13
		c-1.52,1.05-2.87,1.36-4.05,0.91l-1.21,1.82l-1.06-0.87l1.15-1.73c-0.72-1.2-0.91-2.65-0.51-4c0.54-2.23,1.43-4.36,2.64-6.31
		l2.3,1.1c-0.51,0.9-0.92,1.85-1.22,2.84C237.33,138.29,237.23,139,237.26,139.71z M249.84,120.77c-0.56,0.05-1.08,0.29-1.5,0.66
		c-1.16,0.96-2.02,2.23-2.47,3.67c-0.21,0.61-0.26,1.26-0.17,1.9L249.84,120.77z M238.16,140.77c0.62,0.09,1.25-0.1,1.72-0.52
		c1.43-1.11,2.48-2.64,3-4.38c0.2-0.7,0.18-1.43-0.05-2.12L238.16,140.77z"/>
	<path class="st11" d="M261.12,121.15c0.74-4.9,0-8.83-2.32-10.76c-5.11-4.19-16,2.61-24.41,15.18c-3.54,5.18-6.14,10.93-7.71,17
		c0.86-5.74,3.71-12.81,8.22-19.6c8.37-12.57,19.3-19.36,24.41-15.18C262.07,110.04,262.57,115.05,261.12,121.15z"/>
	<polygon class="st8" points="333.62,307.58 325.22,308.38 320.94,288.81 329.34,288.01 	"/>
	<polygon class="st8" points="380.41,295.48 372.6,298.54 365.07,279.98 372.88,276.92 	"/>
	<path class="st7" d="M370.33,294.7l8.56-4.26c0.3-0.15,0.67-0.06,0.87,0.22l4.34,6.29c0.42,0.63,0.26,1.48-0.37,1.9
		c-0.05,0.04-0.11,0.07-0.17,0.1c-3,1.44-4.32,2.15-8.09,4c-2.32,1.15-7.49,3.86-10.69,5.45s-4.94-1.49-3.75-2.44
		c5.33-4.25,7.09-7.46,8.26-10.15C369.5,295.33,369.86,294.94,370.33,294.7z"/>
	<path class="st7" d="M323.58,304.02h10.1c0.37,0,0.69,0.25,0.79,0.61l2.2,8c0.19,0.66-0.19,1.36-0.85,1.55
		c-0.12,0.04-0.25,0.05-0.38,0.05c-3.53-0.06-5.22,0-9.66,0h-13.56c-3.69,0-4.5-3.74-3-4.07c6.85-1.52,10.8-3.61,12.91-5.6
		C322.52,304.2,323.04,304.01,323.58,304.02z"/>
	<polygon class="st9" points="320.95,288.82 323.15,298.9 331.73,298.9 329.35,288.01 	"/>
	<polygon class="st9" points="372.88,276.93 365.07,279.99 368.96,289.55 376.76,286.49 	"/>
	<path class="st7" d="M313.61,79.67c6.68-0.77,11,2.41,11.3,9.08c0.88,23.51,3.48,28.92,7.41,41.08l-33.31,9.27
		c-11.84-25.64-16-37.73-17.32-43.42c-0.56-2.72,0.75-5.48,3.22-6.75C293.78,83.99,303.53,80.85,313.61,79.67z"/>
	<path class="st8" d="M303.48,63.91c0.4,5.13,1.73,14,6,16.35c0,0-0.63,3.17-11.67,13.74c-6.81-5.74-3.33-9.59-3.33-9.59
		c5.07-2.81,3.88-6.47,1.88-10L303.48,63.91z"/>
	<path class="st9" d="M302.71,65.06c0.73,2.92,0.83,5.95,0.3,8.91c-0.38,2-2.56,3.52-5,4.39c-0.33-1.39-0.88-2.72-1.62-3.94
		L302.71,65.06z"/>
	<path class="st8" d="M305.44,54.22c1.63,8.29,2.5,11.76-0.52,17c-4.55,7.92-15.09,8.12-19.17,0.48
		c-3.67-6.87-5.73-19.27,1.41-24.61c5.09-3.83,12.31-2.82,16.15,2.27C304.39,50.79,305.12,52.46,305.44,54.22z"/>
	<path class="st8" d="M309.77,59.27c0.25,1.61-0.16,3.26-1.14,4.57c-1.3,1.73-3.26,0.89-4-1c-0.66-1.72-0.79-4.7,1.05-5.74
		c1.34-0.74,3.03-0.24,3.76,1.1C309.62,58.53,309.73,58.9,309.77,59.27z"/>
	<path class="st7" d="M298.17,49.83c-0.31,3.17,2.23,8.59,7,9.85c4.94-5.68,1.68-13.47-2.86-13.63S298.17,49.83,298.17,49.83z"/>
	<path class="st7" d="M291.51,41.19c-7.29,0.33-15.11,3.58-12.4,15c6.36-1.33,24.06-3.31,25.42-7.85
		C302.74,42.51,296.29,40.97,291.51,41.19z"/>
	<path class="st10" d="M299.01,139.1c0,0-1.94,67.28,3.47,92.67c5.61,26.42,18.28,64.18,18.28,64.18l11.9-0.77
		c0,0-7.69-49.37-10-69.74c-3.26-28.08,0.79-93.15,0.79-93.15L299.01,139.1z"/>
	<path class="st9" d="M315.77,160.14c0.54-6.1,5.14-4.93,6.17,3.33c-0.45,13-0.77,28.09-0.51,41.3
		C316.47,195.08,314.54,174.02,315.77,160.14z"/>
	<polygon class="st7" points="334.17,295.95 319.84,296.92 317.85,290.2 333.36,288.56 	"/>
	<path class="st10" d="M310.76,135.83c0,0,10.14,56.4,23.91,86.75c11.12,24.51,31.27,64,31.27,64l10.93-4.09
		c0,0-17.09-44.83-23.27-62.07c-15.39-43-7-69.1-21.28-90.59L310.76,135.83z"/>
	<polygon class="st7" points="378.16,283.53 365.55,287.92 361.96,281.46 376.97,277.74 	"/>
	<path class="st7" d="M332.27,127.77l2.34,2.57c0.18,0.2,0,0.51-0.42,0.61l-34.93,9.73c-0.3,0.08-0.59,0-0.66-0.18l-1.13-2.9
		c-0.08-0.2,0.13-0.45,0.46-0.54l33.73-9.39C331.87,127.59,332.1,127.63,332.27,127.77z"/>
	<path class="st10" d="M328.79,132.77l0.91-0.26c0.18-0.05,0.29-0.18,0.24-0.29l-1.5-3.75c0-0.11-0.22-0.16-0.4-0.11l-0.91,0.25
		c-0.18,0-0.29,0.18-0.25,0.29l1.51,3.76C328.43,132.77,328.61,132.82,328.79,132.77z"/>
	<path class="st10" d="M301.89,140.25l0.91-0.25c0.17,0,0.29-0.18,0.24-0.29l-1.5-3.75c0-0.11-0.23-0.16-0.41-0.11l-0.9,0.25
		c-0.18,0-0.29,0.18-0.25,0.29l1.5,3.76C301.53,140.26,301.71,140.3,301.89,140.25z"/>
	<path class="st10" d="M315.34,136.51l0.91-0.25c0.18-0.05,0.29-0.18,0.24-0.29l-1.5-3.76c0-0.11-0.23-0.16-0.41-0.11l-0.9,0.25
		c-0.18,0-0.29,0.19-0.25,0.3l1.51,3.75C314.98,136.51,315.16,136.56,315.34,136.51z"/>
	<path class="st7" d="M293.66,59.77c0.17,0.67,0,1.3-0.47,1.41s-0.93-0.33-1.1-1s0-1.29,0.47-1.41S293.49,59.08,293.66,59.77z"/>
	<path class="st7" d="M286.15,61.71c0.18,0.66,0,1.29-0.47,1.41s-0.93-0.34-1.1-1s0-1.3,0.47-1.41S285.98,61.04,286.15,61.71z"/>
	<path class="st7" d="M285.25,60.7l-1.71-0.05C283.54,60.65,284.68,61.69,285.25,60.7z"/>
	<path class="st12" d="M288.44,62.33c-0.2,1.67-0.62,3.31-1.26,4.86c0.81,0.31,1.72,0.25,2.48-0.18L288.44,62.33z"/>
	<path class="st7" d="M292.6,69.02c-0.08-0.01-0.14-0.07-0.16-0.15c-0.03-0.1,0.03-0.21,0.13-0.24c0,0,0.01,0,0.01,0
		c1.69-0.4,3.08-1.58,3.75-3.18c0.03-0.11,0.14-0.17,0.25-0.13c0,0,0.01,0,0.01,0c0.1,0.04,0.16,0.15,0.13,0.25
		c-0.7,1.73-2.19,3.01-4,3.45C292.68,69.03,292.64,69.03,292.6,69.02z"/>
	<path class="st7" d="M295.13,56.77c-0.07-0.01-0.14-0.04-0.19-0.09c-0.79-0.66-1.85-0.9-2.84-0.64c-0.21,0.07-0.44-0.05-0.51-0.26
		c-0.08-0.2,0.03-0.43,0.23-0.5c0.01,0,0.01-0.01,0.02-0.01c1.26-0.34,2.6-0.05,3.6,0.78c0.17,0.15,0.19,0.41,0.05,0.58
		C295.4,56.73,295.26,56.79,295.13,56.77z"/>
	<path class="st7" d="M281.68,59.15h-0.08c-0.21-0.07-0.32-0.3-0.25-0.51c0,0,0,0,0,0c0.4-1.24,1.37-2.21,2.61-2.6
		c0.21-0.06,0.43,0.07,0.49,0.28c0,0,0,0,0,0.01c0.05,0.22-0.08,0.44-0.3,0.49c-0.96,0.33-1.71,1.1-2,2.08
		C282.08,59.09,281.88,59.2,281.68,59.15z"/>
	<path class="st8" d="M320.82,95.41c-2.6,5.36-5.3,10.62-8.15,15.85c-1.42,2.62-2.84,5.24-4.35,7.82s-3,5.17-4.79,7.76
		c-0.41,0.64-0.92,1.32-1.4,2l-0.18,0.24l-0.09,0.13l-0.15,0.19c-0.21,0.26-0.42,0.48-0.63,0.7c-0.38,0.39-0.79,0.75-1.23,1.07
		c-1.44,1.05-3.01,1.92-4.66,2.59c-2.92,1.18-5.93,2.12-9,2.82c-5.88,1.36-11.85,2.29-17.86,2.79l-0.68-4.26
		c2.79-0.74,5.63-1.52,8.42-2.33s5.56-1.67,8.26-2.61c2.63-0.89,5.2-1.94,7.69-3.16c1.05-0.52,2.04-1.15,2.95-1.89
		c0.15-0.12,0.29-0.26,0.41-0.41c0.04-0.04,0.07-0.09,0.1-0.14l0.22-0.34c0.35-0.55,0.71-1.07,1.07-1.69
		c1.42-2.39,2.82-4.95,4.18-7.51l4.05-7.77l8-15.68L320.82,95.41z"/>
	<path class="st8" d="M270.39,135.15l-5.89-2.26l0.5,8.31c0,0,4.63,0,6.77-2.85L270.39,135.15z"/>
	<polygon class="st8" points="259.87,133.13 258.61,139.24 265,141.2 264.5,132.89 	"/>
	<path class="st7" d="M313.57,83.97c-3.29,1.51-7.11,15.18-7.11,15.18l14.25,1.62c0,0,2.76-6.64,2.2-10.05
		C322.07,85.27,317.32,82.25,313.57,83.97z"/>
	<path class="st10" d="M366.07,297.14c-0.06-0.09-0.1-0.2-0.13-0.3c-0.09-0.23-0.06-0.49,0.1-0.68c0.69-0.84,3.75-0.5,4.09-0.46
		c0.08,0.01,0.15,0.06,0.17,0.14c0.03,0.08,0,0.16-0.06,0.21c-0.87,0.73-2.49,1.9-3.53,1.6C366.43,297.58,366.2,297.4,366.07,297.14
		z M369.6,296.05c-1.23-0.1-2.88-0.08-3.25,0.36c-0.06,0.1-0.06,0.21,0,0.31c0.06,0.26,0.25,0.47,0.5,0.55
		c0.55,0.16,1.57-0.29,2.77-1.22H369.6z"/>
	<path class="st10" d="M366.82,294.38c-0.04-0.07-0.07-0.15-0.09-0.23c-0.09-0.32,0.06-0.65,0.35-0.81
		c0.26-0.17,0.59-0.22,0.89-0.13c1.19,0.32,2.29,2.51,2.34,2.6c0.04,0.06,0.04,0.14,0,0.2c-0.04,0.06-0.11,0.09-0.18,0.09
		C368.86,295.94,367.68,295.33,366.82,294.38z M369.73,295.59c-0.41-0.72-1.17-1.81-1.87-2c-0.19-0.06-0.39-0.03-0.55,0.08
		c-0.22,0.14-0.22,0.27-0.19,0.36c0.15,0.58,1.63,1.39,2.64,1.6L369.73,295.59z"/>
	<path class="st10" d="M319.07,305.68c-0.7,0.06-1.4-0.11-2-0.47c-0.32-0.23-0.51-0.6-0.51-1c-0.03-0.22,0.07-0.43,0.25-0.55
		c0.91-0.62,4.35,0.94,5,1.26c0.08,0.04,0.13,0.12,0.12,0.21c-0.01,0.09-0.08,0.15-0.16,0.17
		C320.89,305.52,319.98,305.65,319.07,305.68z M317.46,303.94c-0.14-0.01-0.28,0.02-0.4,0.09c0,0-0.08,0.07-0.07,0.19
		c0.01,0.27,0.13,0.51,0.35,0.67c0.59,0.45,2,0.51,3.8,0.17c-1.15-0.56-2.38-0.94-3.65-1.12H317.46z"/>
	<path class="st10" d="M321.82,305.34h-0.08c-1.14-0.46-3.44-2.31-3.31-3.26c0-0.21,0.17-0.47,0.69-0.53c2-0.24,2.86,3.41,2.9,3.56
		c0.01,0.07-0.01,0.15-0.07,0.2C321.91,305.34,321.86,305.35,321.82,305.34z M319.31,301.92h-0.14c-0.21,0-0.32,0.09-0.34,0.19
		c-0.07,0.55,1.52,2,2.68,2.64C321.24,303.88,320.52,301.92,319.31,301.92z"/>
	<path class="st7" d="M292.76,58.77h-1.72C291.04,58.77,292.19,59.77,292.76,58.77z"/>
	<path class="st7" d="M296.69,314.24h54.72c0.78,0,1.42,0.64,1.42,1.42v0v4.62l0,0h-57.55l0,0v-4.62
		C295.28,314.88,295.91,314.25,296.69,314.24z"/>
	<rect x="295.77" y="335.57" class="st7" width="57.55" height="6.03"/>
	<rect x="315.27" y="335.57" class="st13" width="38.05" height="6.03"/>
	<path class="st7" d="M320.81,320.27l-6.47,40.5c-0.11,0.69-0.7,1.19-1.4,1.2h-3.17c-0.78,0-1.42-0.64-1.42-1.42
		c0-0.07,0.01-0.15,0.02-0.22l6.41-40.1L320.81,320.27z"/>
	<polygon class="st13" points="320.81,320.27 320.32,323.35 314.28,323.35 314.78,320.27 	"/>
	<path class="st7" d="M301.31,320.27l-6.47,40.5c-0.11,0.69-0.7,1.19-1.4,1.2h-3.17c-0.78,0-1.42-0.64-1.42-1.42
		c0-0.07,0.01-0.15,0.02-0.22l6.41-40.1L301.31,320.27z"/>
	<path class="st7" d="M359.23,360.37l-6.4-40.1h-6l6.44,40.5c0.11,0.69,0.7,1.2,1.4,1.2h3.16c0.78,0,1.42-0.64,1.41-1.43
		C359.24,360.49,359.24,360.43,359.23,360.37z"/>
	<polygon class="st13" points="353.32,323.35 352.83,320.27 346.79,320.27 347.28,323.35 	"/>
	<path class="st7" d="M339.73,360.37l-6.4-40.1h-6l6.44,40.5c0.11,0.69,0.7,1.2,1.4,1.2h3.16c0.78,0,1.42-0.64,1.41-1.43
		C339.74,360.49,339.74,360.43,339.73,360.37z"/>
	<path class="st13" d="M339.73,360.37l-6.4-40.1h-6l6.44,40.5c0.11,0.69,0.7,1.2,1.4,1.2h3.16c0.78,0,1.42-0.64,1.41-1.43
		C339.74,360.49,339.74,360.43,339.73,360.37z"/>
	<path class="st13" d="M314.78,314.24h36.63c0.78,0,1.42,0.64,1.42,1.42v0v4.62l0,0h-38l0,0v-6L314.78,314.24z"/>
</g>
<g id="freepik--piggy-bank--inject-352">
	<polygon class="st10" points="145.85,356.5 153.86,341.8 125.21,316.69 122.97,356.5 	"/>
	<polygon class="st11" points="145.85,356.5 153.86,341.8 125.21,316.69 122.97,356.5 	"/>
	<path class="st10" d="M244.59,188.99c16.07-11,29.53-9.87,34-6.66s-9.73,27.59-9.73,27.59
		C258.11,206.8,249.26,199.16,244.59,188.99z"/>
	<path class="st9" d="M252.24,200.04c9.05-8.89,18.28-11.74,20.78-10.25s-5.53,18.63-5.53,18.63S256.64,209.98,252.24,200.04z"/>
	<path class="st10" d="M104.96,223.47l-0.91-0.46c2.51-4.94,5.47-9.65,8.83-14.06l0.81,0.62
		C110.37,213.93,107.45,218.59,104.96,223.47z"/>
	<path class="st10" d="M100.2,234.77l-1-0.33c0.76-2.23,1.62-4.46,2.56-6.62l0.94,0.41C101.8,230.35,100.95,232.55,100.2,234.77z"/>
	<path class="st10" d="M287.18,262.52c0,49.65-37.38,89.89-91.34,89.89s-97.7-40.24-97.7-89.89s43.74-89.89,97.7-89.89
		S287.18,212.87,287.18,262.52z"/>
	<path class="st11" d="M182.82,342.89l-3.91,8.18c2.83,0.46,5.7,0.79,8.61,1L182.82,342.89z"/>
	<polygon class="st10" points="176.9,362.01 188.14,341.8 152.19,328.66 147.59,362.01 	"/>
	<polygon class="st10" points="229.26,362.01 219.52,341.8 253.75,328.66 256.02,362.01 	"/>
	<path class="st9" d="M253.85,275.51c0,13.44-11.88,24.33-26.49,24.33s-26.44-10.89-26.44-24.33s11.84-24.33,26.44-24.33
		S253.85,262.07,253.85,275.51z"/>
	<ellipse class="st9" cx="218.58" cy="275.11" rx="4.49" ry="8.36"/>
	<path class="st14" d="M186.47,230.13c1.29,3.93,0.1,8.22-2.65,9.57s-6-0.75-7.32-4.68s-0.11-8.22,2.64-9.57
		S185.18,226.19,186.47,230.13z"/>
	<path class="st14" d="M256.07,230.31c-1,3.93,0.23,8.17,2.71,9.46s5.28-0.85,6.26-4.79s-0.23-8.17-2.71-9.46
		S257.07,226.37,256.07,230.31z"/>
	<ellipse class="st9" cx="242.47" cy="275.11" rx="4.49" ry="8.36"/>
	<path class="st10" d="M167.28,188.17c-17.41-14.42-33-15.54-38.38-12.92c-5.38,2.62,8.61,30.89,8.61,30.89
		S156.61,205.02,167.28,188.17z"/>
	<path class="st9" d="M157.48,198.55c-9.55-11-19.87-15.58-22.88-14.44s4.62,20.66,4.62,20.66S151.52,208.31,157.48,198.55z"/>
	<path class="st14" d="M202.44,180.45h14.71c0,0-3.2-3.52-14.06-4.59c-6.15-0.5-12.34-0.16-18.4,1
		C184.69,176.86,196.81,176.59,202.44,180.45z"/>
</g>
</svg>
