<?xml version="1.0" encoding="utf-8"?>
<!-- Generator: Adobe Illustrator 24.1.3, SVG Export Plug-In . SVG Version: 6.00 Build 0)  -->
<svg version="1.1" id="Layer_1" xmlns="http://www.w3.org/2000/svg" xmlns:xlink="http://www.w3.org/1999/xlink" x="0px" y="0px"
	 viewBox="0 0 390 325" style="enable-background:new 0 0 390 325;" xml:space="preserve">
<style type="text/css">
	.st0{fill:#F5F5F5;}
	.st1{fill:#407BFF;}
	.st2{fill:none;stroke:#FFFFFF;stroke-width:3;stroke-linecap:round;stroke-linejoin:round;}
	.st3{fill:#263238;}
	.st4{fill:#EEC1BB;}
	.st5{opacity:0.1;fill:#FFFFFF;enable-background:new    ;}
	.st6{opacity:0.2;enable-background:new    ;}
	.st7{fill:#D4827D;}
	.st8{fill:none;stroke:#263238;stroke-width:0.6862;stroke-linecap:round;stroke-linejoin:round;}
	.st9{opacity:0.5;fill:#FFFFFF;enable-background:new    ;}
	.st10{opacity:0.7;fill:#FFFFFF;enable-background:new    ;}
	.st11{fill:#FFFFFF;}
	.st12{opacity:0.1;enable-background:new    ;}
	.st13{fill:#E4897B;}
	.st14{opacity:0.6;fill:#FFFFFF;enable-background:new    ;}
	.st15{fill:#DE5753;}
	.st16{fill:none;stroke:#263238;stroke-width:6;stroke-linecap:round;stroke-linejoin:round;}
	.st17{opacity:0.4;fill:#FFFFFF;enable-background:new    ;}
	.st18{opacity:0.2;fill:#FFFFFF;enable-background:new    ;}
	.st19{opacity:0.4;enable-background:new    ;}
</style>
<g id="freepik--Shadow--inject-443">
	<ellipse id="freepik--path--inject-443" class="st0" cx="194.72" cy="313.12" rx="193.89" ry="11.32"/>
</g>
<g id="freepik--bubble-speech--inject-443">
	<path class="st1" d="M274.75,6.83h27.83c2.5,0,4.53,2.03,4.53,4.53V36.6c0,2.5-2.03,4.53-4.53,4.53h-27.83
		c-2.5,0-4.53-2.03-4.53-4.53V11.36C270.22,8.86,272.25,6.83,274.75,6.83z"/>
	<path class="st1" d="M285.06,36.77c0,0,2.33,11.27,18.21,17.52c0,0-9.71-6.21-9.11-17.52H285.06z"/>
	<polyline class="st2" points="280.68,23.01 285.95,30.33 296.65,17.64 	"/>
</g>
<g id="freepik--character-2--inject-443">
	<path class="st3" d="M337.25,46.3c4.89,3.51,9.31,9.51,6,26.31s-4.15,20.8-4.15,20.8l-32-3.6c0,0-1.5-14.87,1-28.86
		C311.48,42.88,322.93,36.01,337.25,46.3z"/>
	<path class="st4" d="M305.22,139.13c0,0-10.84,57.75-13.73,81.48c-3.78,30.94-19.23,76.2-19.23,76.2l6.18,1.6
		c0,0,21.78-38.47,26-73.07c17.3-35.37,18.7-78.93,18.7-78.93L305.22,139.13z"/>
	<path class="st3" d="M260.72,310.81c1-0.46,2.07-0.73,3.17-0.8l0,0c0,0,3.8-2.24,7.56-10.92h4.24c1.46,0.02,2.76,0.95,3.25,2.33
		c0.07,0.19,0.11,0.39,0.12,0.59c-0.05,1.01-0.16,2.01-0.33,3c-0.62,3.38-1.45,6.72-2.47,10l-0.72-0.19l1.3-6.31
		c0.44-2.15-1.82-0.08-2.86,2.09s-2.61,4.28-7.26,3.28C261.24,312.58,259.05,311.79,260.72,310.81z"/>
	<path class="st3" d="M279.1,301.5c0.8-2.05,1.82-5.72,1.82-5.72l-9.07-1.26c0,0,0,4.46-1.68,7.38
		C274.91,301.88,279.1,301.5,279.1,301.5z"/>
	<path class="st4" d="M316.47,138.21c0,0,1.35,58.75,3.42,82.55c2.71,31.06-3.05,78.54-3.05,78.54l6.38,0.28
		c0,0,13.35-42.14,10.35-76.88c9.61-38.18,2-81.08,2-81.08L316.47,138.21z"/>
	<path class="st3" d="M306.92,312.75c0.94-0.57,1.98-0.96,3.07-1.15l0,0c0,0,3.53-2.63,6.34-11.67l4.2-0.48
		c1.47-0.14,2.87,0.66,3.49,2c0.09,0.18,0.15,0.37,0.18,0.57c0.07,1.02,0.07,2.05,0,3.07c-0.26,3.41-0.72,6.8-1.39,10.16l-0.73-0.1
		l0.61-6.42c0.2-2.18-1.81,0.12-2.62,2.39s-2.17,4.6-6.93,4C307.6,314.45,305.33,313.88,306.92,312.75z"/>
	<path class="st3" d="M324.15,301.5c0.57-2.12,1.19-5.88,1.19-5.88l-9.15-0.27c0,0,0.48,4.43-0.87,7.52
		C320.02,302.32,324.15,301.5,324.15,301.5z"/>
	<path class="st3" d="M302.91,129.49l-11.89,82.22c0,0,38.72,6,54.22,2.49c0,0,3.81-47.47-12.37-82L302.91,129.49z"/>
	<path class="st4" d="M267.12,100.42L256.77,90.2c0,0-0.35-2.74-1.36-3.5s-8.09-3.34-9-2.77s-2.08,6.31-0.86,7.36
		s7.67,2.39,8.33,2.28l11.23,13.31L267.12,100.42z"/>
	<path class="st1" d="M304.16,81.79c-4.46,2.37-20.3,24.51-22.63,25.6s-20.16-13.36-20.16-13.36l-3,5.13
		c0,0,14.62,20.72,22.89,19.72s24.1-18.5,24.1-18.5L304.16,81.79z"/>
	<path class="st5" d="M304.16,81.79c-4.46,2.37-20.3,24.51-22.63,25.6s-20.16-13.36-20.16-13.36l-3,5.13
		c0,0,14.62,20.72,22.89,19.72s24.1-18.5,24.1-18.5L304.16,81.79z"/>
	<polygon class="st1" points="262.35,94.58 261.11,93.41 257.86,98.91 259.03,101.16 	"/>
	<path class="st6" d="M299,106.79c3.7-3.53,6.36-6.46,6.36-6.46l-0.28-4.4l-1.36-4.27C299.83,95.67,298.08,101.29,299,106.79z"/>
	<path class="st1" d="M302.66,128.65c-1.25-22-0.69-34.12-0.12-40.17c0.63-6.45,1.62-6.69,1.62-6.69s7-0.68,13.07-0.63
		c4.7,0.16,9.37,0.65,14,1.48c4.4,0.73,8.75,1.78,13,3.13c-0.71,2-1.35,4-1.95,5.76c-0.79,2.39-1.5,4.6-2.15,6.67
		c-1.2,3.86-2.14,7.2-2.88,10.19c-1.91,7.53-3.03,15.24-3.33,23c0,0,7.69,20.1,9.19,34.85l-25.5,2.75l-3.5-14.75l-3.5,15.25
		l-14.25-5L302.66,128.65z"/>
	<path class="st5" d="M302.66,128.65c-1.25-22-0.69-34.12-0.12-40.17c0.63-6.45,1.62-6.69,1.62-6.69s7-0.68,13.07-0.63
		c4.7,0.16,9.37,0.65,14,1.48c4.4,0.73,8.75,1.78,13,3.13c-0.71,2-1.35,4-1.95,5.76c-0.79,2.39-1.5,4.6-2.15,6.67
		c-1.2,3.86-2.14,7.2-2.88,10.19c-1.91,7.53-3.03,15.24-3.33,23c0,0,7.69,20.1,9.19,34.85l-25.5,2.75l-3.5-14.75l-3.5,15.25
		l-14.25-5L302.66,128.65z"/>
	<path class="st6" d="M336.01,113.78c0.34-1.68,0.74-3.47,1.23-5.39c0.31-1.22,0.65-2.5,1-3.86c-1-3.41-2-0.74-2-0.74
		C335.62,107.09,335.55,110.46,336.01,113.78z"/>
	<path class="st4" d="M317.58,82.5c0.31-0.16,0.63-0.29,0.95-0.41c0.72-0.57,1.6-1.94,1.56-5.27c-0.03-1.32-0.16-2.64-0.37-3.94
		l9.27-1.73c0,0-3.16,6.24-0.53,10.88c0.91,0.4,1.45,1,1.35,1.73c-0.69,5.35-12.21,10.53-12.21,10.53S311.99,85.57,317.58,82.5z"/>
	<path class="st6" d="M319.72,72.88c0.21,1.29,0.33,2.6,0.36,3.91c6.26,0,8.91-5.64,8.91-5.64L319.72,72.88z"/>
	<path class="st4" d="M324.85,46.99c-8.06-0.44-10.89,3.73-11.93,12c-1.31,10.34,0.59,17.84,10.79,16.18
		C337.56,72.88,338.24,47.72,324.85,46.99z"/>
	<path class="st7" d="M318.15,58.88c-0.71,1.17-1.56,2.25-2.53,3.21c0.45,0.7,1.25,1.08,2.08,1L318.15,58.88z"/>
	<path class="st3" d="M323.12,58.44c0,0.66,0.26,1.23,0.7,1.26s0.84-0.47,0.9-1.13s-0.27-1.23-0.71-1.26S323.17,57.78,323.12,58.44z
		"/>
	<path class="st3" d="M324.19,57.35l-1.39-0.67C322.8,56.68,323.42,57.94,324.19,57.35z"/>
	<path class="st3" d="M314.91,57.66c-0.05,0.66,0.26,1.22,0.7,1.26s0.85-0.47,0.9-1.14s-0.27-1.22-0.71-1.26S314.96,57,314.91,57.66
		z"/>
	<path class="st3" d="M315.98,56.57l-1.39-0.68C314.59,55.89,315.21,57.16,315.98,56.57z"/>
	<path class="st8" d="M323.51,52.88c1.3-0.09,2.56,0.43,3.42,1.41"/>
	<path class="st8" d="M317.72,52.22c-1.1-0.35-2.3-0.17-3.25,0.48"/>
	<path class="st3" d="M332.92,61.06c0,0-3.41-6.83-2.56-11.91c0,0-15.61-7.4-17.29,8.76c0,0-0.77-14.48,13.1-14
		s12.7,20.71,5.22,26.36C331.39,70.23,335.02,65.33,332.92,61.06z"/>
	<path class="st4" d="M331.51,62.69c0.28-1.93,2.07-3.27,4-3c2.48,0.41,3.39,5.61-2.89,6.5C331.72,66.29,331.25,65.39,331.51,62.69z
		"/>
	<path class="st8" d="M323.99,64.95c-1.23,1.22-2.9,1.89-4.63,1.87"/>
	<path class="st8" d="M330.36,49.15c0,0-17.42-4.53-18.88,11.8"/>
	<path class="st1" d="M314.82,86.47c0,0-1.33,13.24,0.85,25.29c0,0,5.14-18.62,12.36-24.95l-8.3,1.19L314.82,86.47z"/>
	<path class="st9" d="M314.82,86.47c0,0-1.33,13.24,0.85,25.29c0,0,5.14-18.62,12.36-24.95l-8.3,1.19L314.82,86.47z"/>
	<path class="st1" d="M328.15,80.58l-8.43,6.23v-6.62c0,0-6.81,2.47-6.33,10l5.59-2.57v2.57l1.31-2.48l4.42,5.05
		c0,0,5.41-6.31,6-8.21S328.15,80.58,328.15,80.58z"/>
	<path class="st10" d="M328.15,80.58l-8.43,6.23v-6.62c0,0-6.81,2.47-6.33,10l5.59-2.57v2.57l1.31-2.48l4.42,5.05
		c0,0,5.41-6.31,6-8.21S328.15,80.58,328.15,80.58z"/>
	<path class="st3" d="M336.95,139l-7.74-36.93c-0.17-0.8-0.87-1.37-1.68-1.37h-23.81c-0.66,0-1.2,0.54-1.2,1.2
		c0,0.07,0.01,0.14,0.02,0.21l6.45,36.16c0.14,0.8,0.82,1.4,1.64,1.42l25.17,0.75c0.66-0.01,1.19-0.56,1.17-1.23
		C336.98,139.15,336.97,139.07,336.95,139z"/>
	<path class="st5" d="M336.95,139l-7.74-36.93c-0.17-0.8-0.87-1.37-1.68-1.37h-23.81c-0.66,0-1.2,0.54-1.2,1.2
		c0,0.07,0.01,0.14,0.02,0.21l6.45,36.16c0.14,0.8,0.82,1.4,1.64,1.42l25.17,0.75c0.66-0.01,1.19-0.56,1.17-1.23
		C336.98,139.15,336.97,139.07,336.95,139z"/>
	<path class="st4" d="M347.24,127.04l-12.31-7.76c0,0-0.94-2.59-2.08-3.12s-8.62-1.52-9.35-0.77s-0.67,6.6,0.75,7.37
		s8,0.68,8.62,0.43l13.79,10.56L347.24,127.04z"/>
	<path class="st1" d="M344.23,85.77c0,0-8,11.68-6.87,21.68l10.67,17.66l-7.17-3.66l-3.25,6.12c0,0,8.25,12.71,18.75,9.71
		S344.23,85.77,344.23,85.77z"/>
	<path class="st5" d="M344.23,85.77c0,0-8,11.68-6.87,21.68l10.67,17.66l-7.17-3.66l-3.25,6.12c0,0,8.25,12.71,18.75,9.71
		S344.23,85.77,344.23,85.77z"/>
	<polygon class="st1" points="341.61,121.11 337.53,128.7 336.61,126.53 339.86,120.36 	"/>
	<path class="st11" d="M326.72,100.7c-0.94,0-0.94,24.6-0.94,24.6l-21.5-0.62c0,0-2.42-20.8,0-24L326.72,100.7z"/>
	<path class="st12" d="M326.72,100.7c-0.94,0-0.94,24.6-0.94,24.6l-21.5-0.62c0,0-2.42-20.8,0-24L326.72,100.7z"/>
	<path class="st3" d="M237.92,81.21l20.33,8.55c0.46,0.2,0.67,0.74,0.47,1.2c0,0,0,0,0,0l0,0c-0.2,0.45-0.72,0.66-1.17,0.46
		l-20.46-8.67l-0.19-0.1l-2.38-1.77l3.13,0.27C237.75,81.16,237.84,81.18,237.92,81.21z"/>
</g>
<g id="freepik--character-1--inject-443">
	<g id="freepik--group--inject-443">
		<path class="st13" d="M170.47,123.35l-19.75,1.76l-7.92-4.47c0,0-25.4-14.15-32-18.62c-2-1.37-3.87-4.35-5.48-7.85
			c-1.35-3-2.51-6.08-3.48-9.23c-0.45-1.41-0.85-2.76-1.19-4c-0.76-2.67-1.23-4.67-1.36-5.21l0,0c0.01-0.04,0.01-0.09,0-0.13l0,0
			h0.05l6.26-2l5.23-1.66c0,0,0.24,1.24,0.65,3.13l0.36,1.67c0.11,0.48,0.22,1,0.34,1.52c1.32,5.82,3.35,13.76,4.82,15.06
			c2.37,2.09,32.17,22.4,33.23,22.93s10.55,0,10.55,0L170.47,123.35z"/>
		<path class="st1" d="M99.13,47.56c9.1-0.14,14.89,28.06,14.89,28.06l-12,6c-3.41-5.9-5.19-12.6-5.15-19.42
			C97.15,51.38,99.13,47.56,99.13,47.56z"/>
		<path class="st9" d="M99.13,47.56c9.1-0.14,14.89,28.06,14.89,28.06l-12,6c-3.41-5.9-5.19-12.6-5.15-19.42
			C97.15,51.38,99.13,47.56,99.13,47.56z"/>
		<polygon class="st1" points="115.35,76.17 112.11,78.27 107.88,81.01 101.8,84.94 100.71,85.65 99.39,81.64 100.61,80.98 
			101.41,80.54 106.97,77.51 111.41,75.08 113.63,73.87 114.02,73.66 		"/>
		<path class="st6" d="M108.42,85.65c0.02,3.13-1.1,6.15-3.14,8.52c-1.35-3-2.51-6.08-3.48-9.23l-1.09,0.71l-1.32-4l1.22-0.66
			c-0.76-2.67-1.23-4.67-1.36-5.21l0,0v-0.16l1.44-11c1.89,2.84,3.5,5.85,4.82,9c0.52,1.23,1,2.54,1.44,3.9
			c0.15,0.47,0.29,0.95,0.42,1.44c0.19,0.68,0.35,1.37,0.49,2.06C108.19,82.55,108.38,84.1,108.42,85.65z"/>
		<polygon class="st13" points="97.77,306.24 106.14,307.13 107.71,289.08 99.34,288.19 		"/>
		<polygon class="st13" points="56.02,305.63 64.12,305.63 64.79,286.85 56.68,286.85 		"/>
		<path class="st3" d="M65.25,304.69H55.4c-0.33,0.01-0.62,0.24-0.69,0.56l-1.6,7.22c-0.14,0.64,0.27,1.28,0.91,1.42
			c0,0,0.01,0,0.01,0c0.09,0.01,0.17,0.01,0.26,0c3.19,0,5.51-0.24,9.51-0.24c2.47,0,9.91,0.25,13.31,0.25s3.85-3.36,2.45-3.67
			c-6.25-1.36-11-3.25-13-5C66.21,304.9,65.74,304.71,65.25,304.69z"/>
		<path class="st1" d="M65.81,305.82c-0.08-0.02-0.14-0.09-0.15-0.17c-0.01-0.07,0.03-0.14,0.09-0.18c0.29-0.19,2.91-1.8,3.81-1.33
			c0.21,0.09,0.34,0.3,0.33,0.53c0.04,0.38-0.11,0.75-0.4,1c-0.46,0.32-1.01,0.46-1.56,0.42C67.22,306.08,66.51,305.99,65.81,305.82
			z M66.36,305.55c0.95,0.32,1.98,0.27,2.89-0.15c0.19-0.17,0.29-0.43,0.26-0.69c0-0.15-0.07-0.22-0.13-0.22
			c-0.07-0.04-0.16-0.06-0.24-0.05C68.15,304.63,67.21,305.01,66.36,305.55z"/>
		<path class="st1" d="M65.72,305.88c-0.06-0.04-0.09-0.11-0.09-0.18c0-0.11,0.21-2.44,1.15-3.2c0.22-0.2,0.52-0.29,0.81-0.25
			c0.3,0,0.56,0.21,0.62,0.5c0.16,0.86-1.46,2.64-2.29,3.1h-0.09C65.8,305.87,65.76,305.88,65.72,305.88z M67.02,302.72
			c-0.58,0.73-0.93,1.61-1,2.54c0.84-0.63,1.87-2,1.77-2.51c0-0.05,0-0.19-0.28-0.19h-0.09c-0.13,0.01-0.26,0.06-0.37,0.14
			L67.02,302.72z"/>
		<path class="st3" d="M107.02,304.44h-9.85c-0.33,0-0.62,0.23-0.69,0.55l-1.6,7.22c-0.14,0.65,0.28,1.28,0.92,1.42h0.27
			c3.18-0.06,5.5-0.25,9.51-0.25c2.46,0,9.9,0.26,13.3,0.26s3.85-3.37,2.46-3.68c-6.25-1.36-11-3.24-13-5
			C107.98,304.63,107.51,304.45,107.02,304.44z"/>
		<path class="st1" d="M107.58,305.56c-0.08-0.02-0.14-0.09-0.15-0.17c-0.01-0.08,0.03-0.15,0.1-0.18c0.29-0.19,2.91-1.8,3.8-1.33
			c0.21,0.1,0.34,0.3,0.33,0.53c0.04,0.38-0.11,0.75-0.4,1c-0.45,0.32-0.99,0.49-1.54,0.47C109,305.86,108.28,305.75,107.58,305.56z
			 M108.13,305.29c0.95,0.32,1.98,0.27,2.89-0.14c0.19-0.17,0.29-0.43,0.26-0.69c0-0.16-0.07-0.23-0.12-0.23
			c-0.08-0.04-0.16-0.06-0.25-0.05C109.92,304.38,108.98,304.75,108.13,305.29z"/>
		<path class="st1" d="M107.53,305.6c-0.06-0.04-0.1-0.1-0.1-0.17c0-0.12,0.21-2.45,1.15-3.21c0.22-0.2,0.52-0.29,0.81-0.25
			c0.3,0,0.56,0.21,0.62,0.51c0.17,0.85-1.45,2.64-2.29,3.09h-0.09C107.6,305.59,107.57,305.6,107.53,305.6z M108.83,302.44
			c-0.59,0.72-0.94,1.61-1,2.54c0.83-0.63,1.86-2,1.76-2.5c0-0.06,0-0.2-0.28-0.2h-0.09C109.08,302.29,108.94,302.35,108.83,302.44z
			"/>
		<polygon class="st6" points="99.34,288.19 107.71,289.08 106.89,298.39 98.52,297.5 		"/>
		<polygon class="st6" points="56.68,286.86 64.79,286.86 64.44,296.55 56.33,296.55 		"/>
		<path class="st1" d="M60.02,122.1h43c4.09,22.35,16.9,101.42,7.71,171.87l-14.57-1.81c0,0,1.35-93.53-11.51-128.1
			c-1.48,18.5-3.24,38.19-4.76,48.67c-3.71,25.78-11.72,82.15-11.72,82.15H53.34c0,0,3-53.94,4.43-79.29
			C59.3,188.07,59.97,127.75,60.02,122.1z"/>
		<path class="st6" d="M84.72,164.06c2.12,6.06,3.73,12.29,4.81,18.62c1.2-16.47-3.61-33.93-3.61-33.93L84.72,164.06z"/>
		<polygon class="st1" points="112.44,297.36 94.41,294.68 94.96,289.69 113.71,292.15 		"/>
		<polygon class="st14" points="112.44,297.36 94.41,294.68 94.96,289.69 113.71,292.15 		"/>
		<polygon class="st1" points="69.95,294.99 52.46,294.99 52.46,289.76 70.61,289.42 		"/>
		<polygon class="st14" points="69.95,294.99 52.46,294.99 52.46,289.76 70.61,289.42 		"/>
		<polygon class="st3" points="59.94,129.58 59.9,123.35 103.76,120.64 104.07,126.68 		"/>
		<rect x="69.06" y="121.77" class="st1" width="1.98" height="9.13"/>
		
			<rect x="99.71" y="118.8" transform="matrix(0.9974 -0.0727 0.0727 0.9974 -8.7041 7.6489)" class="st1" width="1.98" height="9.13"/>
		<path class="st1" d="M103.72,120.64l-43.82,3.24c0-3.84-0.1-8.12-0.39-12.64c-0.54-8.35-1.57-17.49-2.72-26.06
			c-2.44-18.21-5.43-33.84-5.43-33.84c20.4-5.15,47.77-3.81,47.77-3.81C106.24,74.17,103.72,120.64,103.72,120.64z"/>
		<path class="st14" d="M103.72,120.64l-43.82,3.24c0-3.84-0.1-8.12-0.39-12.64c-0.54-8.35-1.57-17.49-2.72-26.06
			c-2.44-18.21-5.43-33.84-5.43-33.84c20.4-5.15,47.77-3.81,47.77-3.81C106.24,74.17,103.72,120.64,103.72,120.64z"/>
		<path class="st13" d="M66.93,48.61c4,3.59,13.63,2.27,13.63,2.27s6-1.66,4.77-3.55c-3.56-0.58-5.28-2.24-6-4.37
			c-0.4-1.31-0.52-2.7-0.36-4.06c0.06-0.76,0.16-1.52,0.3-2.27l-12-8.86C68.88,33.62,70.8,44.37,66.93,48.61z"/>
		<path class="st6" d="M70.08,33.4c0.47,7.18,6.37,9.16,9.26,9.56c-0.4-1.31-0.52-2.7-0.36-4.06L70.08,33.4z"/>
		<path class="st3" d="M90.72,10.71c2.91,2.76,1.7,11.17-4.23,15.47s-5.93-16.5-5.93-16.5S88.87,8.95,90.72,10.71z"/>
		<path class="st13" d="M69.27,35.06c2.56,3.78,7.32,5.39,11.65,3.93c2.74-0.87,5.04-2.74,6.44-5.25c0.2-0.35,0.38-0.7,0.54-1.07
			c2.92-6.79,3.82-18.79-3.37-23.25c-5.14-3.22-11.92-1.67-15.15,3.46c-0.92,1.46-1.48,3.12-1.65,4.84
			C66.85,25.68,65.95,30.34,69.27,35.06z"/>
		<path class="st3" d="M79.37,21.97c-0.15,0.63,0.14,1.22,0.57,1.29s0.85-0.4,1-1s-0.15-1.22-0.56-1.29S79.49,21.32,79.37,21.97z"/>
		<path class="st3" d="M86.66,23.21c-0.15,0.63,0.15,1.23,0.56,1.3s0.86-0.4,1-1s-0.15-1.23-0.57-1.3S86.77,22.6,86.66,23.21z"/>
		<path class="st15" d="M84.29,23.13c0.43,2.09,1.15,4.11,2.14,6c-1.01,0.49-2.18,0.51-3.2,0.05L84.29,23.13z"/>
		<path class="st3" d="M77.51,19.22c0.14,0.04,0.29,0.01,0.4-0.08c0.69-0.69,1.67-1.01,2.64-0.86c0.2,0.05,0.41-0.07,0.46-0.28
			c0,0,0,0,0,0c0.04-0.2-0.08-0.41-0.28-0.46l0,0c-1.21-0.22-2.46,0.15-3.35,1c-0.14,0.15-0.14,0.39,0,0.54l0,0
			C77.42,19.14,77.46,19.19,77.51,19.22z"/>
		<path class="st3" d="M81.61,32.38L81.61,32.38c-1.92-0.03-3.7-1-4.77-2.6c-0.06-0.09-0.03-0.22,0.06-0.28c0,0,0,0,0.01,0
			c0.09-0.06,0.21-0.03,0.27,0.06l0,0c1.02,1.45,2.67,2.34,4.44,2.39c0.11,0,0.19,0.08,0.2,0.19l0,0c-0.01,0.1-0.09,0.18-0.19,0.19
			L81.61,32.38z"/>
		<path class="st3" d="M90.22,21.23c0.07,0.04,0.14,0.06,0.22,0.06c0.2-0.06,0.32-0.27,0.27-0.47l0,0c-0.31-1.2-1.2-2.17-2.36-2.59
			c-0.2-0.06-0.41,0.05-0.47,0.25l0,0c-0.06,0.2,0.05,0.41,0.25,0.48l0,0c0.91,0.36,1.59,1.13,1.84,2.08
			C90.02,21.14,90.12,21.21,90.22,21.23z"/>
		<path class="st3" d="M75.23,8.82v3.56c-1.3,0.44-2.05,1.81-1.72,3.14c0.77,3.1-1.46,7.48-3.95,9c0,0,0.08-1.29-1-1.12
			s-1.63,6.88,0.09,10.31c0,0-2.84-3.26-3.78-10.48c-0.88-6.68-0.42-12.1,1.21-14.44L75.23,8.82z"/>
		<path class="st13" d="M63.17,23.6c0.57,1.94,1.89,3.58,3.66,4.55c2.36,1.27,4.13-0.71,4-3.24c-0.16-2.26-1.56-5.7-4.18-5.9
			S62.49,21.21,63.17,23.6z"/>
		<path class="st3" d="M64.47,14.88c0,0-2.47-5.93,4-10.28s21.82,0.72,22.9,4.25S80.84,18.79,64.47,14.88z"/>
		<polygon class="st1" points="68.44,44.92 78.23,50.28 79.57,42.96 86.43,47.42 86.43,56.77 79.17,52.44 74.07,60.08 64,49.02 		
			"/>
		<path class="st11" d="M82.97,121.32l7.71-0.43c0.64-0.04,1.19,0.45,1.22,1.09l0.29,5.21c0.04,0.64-0.45,1.19-1.09,1.22l-7.71,0.43
			c-0.64,0.04-1.19-0.45-1.22-1.09l-0.29-5.21C81.84,121.91,82.33,121.36,82.97,121.32z"/>
		<polygon class="st9" points="68.44,44.92 78.23,50.28 79.57,42.96 86.43,47.42 86.43,56.77 79.17,52.44 74.07,60.08 64,49.02 		
			"/>
		<path class="st6" d="M75.23,109.34c-2.91,4.38-12.22,4.35-15.72,1.93c-0.54-8.35-1.57-17.49-2.72-26.06L75.23,109.34z"/>
		<path class="st13" d="M59.9,75.62c0,0,2.07,13.48,4.1,16.11s44,25.58,44,25.58l14.51-1.05l6.67,7.65c0,0-19.33,3-21.44,2.42
			c-1.29-0.36-2.54-0.84-3.73-1.44c0,0-44-17.33-47.7-21.29S48.4,79.31,48.4,79.31L59.9,75.62z"/>
		<path class="st1" d="M51.36,51.37c7.68-1.6,11.65,30.27,11.65,30.27l-15.71,4C47.3,85.64,41.91,53.35,51.36,51.37z"/>
		<path class="st9" d="M51.36,51.37c7.68-1.6,11.65,30.27,11.65,30.27l-15.71,4C47.3,85.64,41.91,53.35,51.36,51.37z"/>
		<polygon class="st1" points="46.38,84.88 64,80.66 64,83.69 47.17,88.57 		"/>
	</g>
</g>
<g id="freepik--Boxes--inject-443">
	<path class="st16" d="M106.72,283.88V146.8c0-5.93-1.82-11.72-5.21-16.59l-4.79-6.86h85.1l4.79,6.86
		c3.39,4.87,5.21,10.66,5.21,16.59v135.78"/>
	<circle class="st3" cx="287.57" cy="305.12" r="8.81"/>
	<path class="st17" d="M291.98,305.12c0.01-2.44-1.96-4.41-4.4-4.42c-2.44-0.01-4.41,1.96-4.42,4.4c-0.01,2.44,1.96,4.41,4.4,4.42
		c0,0,0.01,0,0.01,0c2.43,0.01,4.4-1.96,4.41-4.39C291.98,305.13,291.98,305.13,291.98,305.12z"/>
	<path class="st3" d="M286.51,307.08L286.51,307.08c-1.41,0-2.66-0.88-3.15-2.2l-5.19-14.22h11.69v13.07
		C289.86,305.58,288.36,307.08,286.51,307.08L286.51,307.08z"/>
	<path class="st18" d="M286.51,307.08L286.51,307.08c-1.41,0-2.66-0.88-3.15-2.2l-5.19-14.22h11.69v13.07
		C289.86,305.58,288.36,307.08,286.51,307.08L286.51,307.08z"/>
	<circle class="st3" cx="189.57" cy="305.12" r="8.81"/>
	<path class="st17" d="M193.98,305.12c0.01-2.44-1.96-4.41-4.4-4.42c-2.44-0.01-4.41,1.96-4.42,4.4c-0.01,2.44,1.96,4.41,4.4,4.42
		c0,0,0.01,0,0.01,0c2.43,0.01,4.4-1.96,4.41-4.39C193.98,305.13,193.98,305.13,193.98,305.12z"/>
	<path class="st3" d="M188.51,307.08L188.51,307.08c-1.41,0-2.66-0.88-3.15-2.2l-5.19-14.22h11.69v13.07
		C191.86,305.58,190.36,307.08,188.51,307.08L188.51,307.08z"/>
	<path class="st18" d="M188.51,307.08L188.51,307.08c-1.41,0-2.66-0.88-3.15-2.2l-5.19-14.22h11.69v13.07
		C191.86,305.58,190.36,307.08,188.51,307.08L188.51,307.08z"/>
	<path class="st3" d="M302.72,280.41v8.32c0,1.55-1.26,2.81-2.81,2.81H102.98c-1.55,0-2.81-1.26-2.81-2.81v-8.32H302.72z"/>
	<path class="st17" d="M302.72,280.41v8.32c0,1.55-1.26,2.81-2.81,2.81H102.98c-1.55,0-2.81-1.26-2.81-2.81v-8.32H302.72z"/>
	<path class="st18" d="M232.72,280.41v8.32c0,1.55-1.26,2.81-2.81,2.81H102.98c-1.55,0-2.81-1.26-2.81-2.81v-8.32H232.72z"/>
	<circle class="st3" cx="216.57" cy="305.12" r="8.81"/>
	<path class="st14" d="M220.98,305.12c0.01-2.44-1.96-4.41-4.4-4.42c-2.44-0.01-4.41,1.96-4.42,4.4c-0.01,2.44,1.96,4.41,4.4,4.42
		c0,0,0.01,0,0.01,0c2.43,0.01,4.4-1.96,4.41-4.39C220.98,305.13,220.98,305.13,220.98,305.12z"/>
	<path class="st3" d="M215.51,307.08L215.51,307.08c-1.41,0-2.66-0.88-3.15-2.2l-5.19-14.22h11.69v13.07
		C218.86,305.58,217.36,307.08,215.51,307.08L215.51,307.08z"/>
	<path class="st17" d="M215.51,307.08L215.51,307.08c-1.41,0-2.66-0.88-3.15-2.2l-5.19-14.22h11.69v13.07
		C218.86,305.58,217.36,307.08,215.51,307.08L215.51,307.08z"/>
	<circle class="st3" cx="118.57" cy="305.12" r="8.81"/>
	<path class="st14" d="M122.98,305.12c0.01-2.44-1.96-4.41-4.4-4.42c-2.44-0.01-4.41,1.96-4.42,4.4c-0.01,2.44,1.96,4.41,4.4,4.42
		c0,0,0.01,0,0.01,0c2.43,0.01,4.4-1.96,4.41-4.39C122.98,305.13,122.98,305.13,122.98,305.12z"/>
	<path class="st3" d="M117.51,307.08L117.51,307.08c-1.41,0-2.66-0.88-3.15-2.2l-5.19-14.22h11.69v13.07
		C120.86,305.58,119.36,307.08,117.51,307.08L117.51,307.08z"/>
	<path class="st17" d="M117.51,307.08L117.51,307.08c-1.41,0-2.66-0.88-3.15-2.2l-5.19-14.22h11.69v13.07
		C120.86,305.58,119.36,307.08,117.51,307.08L117.51,307.08z"/>
	<rect x="124.56" y="215.86" class="st1" width="93.25" height="64.55"/>
	<rect x="124.56" y="215.86" class="st17" width="93.25" height="64.55"/>
	<rect x="124.56" y="215.86" class="st18" width="43.27" height="64.55"/>
	<path class="st6" d="M158.33,266.76h5.41c0.51,0,0.92,0.41,0.92,0.92v7.39c0,0.51-0.41,0.92-0.92,0.92h-5.41
		c-0.51,0-0.92-0.41-0.92-0.92v-7.39C157.41,267.18,157.82,266.76,158.33,266.76z"/>
	<path class="st6" d="M148.57,266.76h5.41c0.51,0,0.92,0.41,0.92,0.92v7.39c0,0.51-0.41,0.92-0.92,0.92h-5.41
		c-0.51,0-0.92-0.41-0.92-0.92v-7.39C147.65,267.18,148.06,266.76,148.57,266.76z"/>
	<rect x="192.49" y="215.86" class="st19" width="5.27" height="6.73"/>
	<rect x="175.87" y="243.42" class="st6" width="36.3" height="8.44"/>
	<rect x="127.38" y="219.22" class="st6" width="12.41" height="12.41"/>
	<rect x="134.08" y="151.31" class="st1" width="93.25" height="64.55"/>
	<rect x="134.08" y="151.31" class="st19" width="93.25" height="64.55"/>
	<rect x="134.08" y="151.31" class="st18" width="43.27" height="64.55"/>
	<path class="st6" d="M167.86,202.21h5.41c0.51,0,0.92,0.41,0.92,0.92v7.39c0,0.51-0.41,0.92-0.92,0.92h-5.41
		c-0.51,0-0.92-0.41-0.92-0.92v-7.39C166.94,202.63,167.35,202.21,167.86,202.21z"/>
	<path class="st6" d="M158.1,202.21h5.41c0.51,0,0.92,0.41,0.92,0.92v7.39c0,0.51-0.41,0.92-0.92,0.92h-5.41
		c-0.51,0-0.92-0.41-0.92-0.92v-7.39C157.18,202.63,157.59,202.21,158.1,202.21z"/>
	<rect x="202.01" y="151.31" class="st19" width="5.27" height="6.73"/>
	<rect x="185.39" y="178.87" class="st6" width="36.3" height="8.44"/>
	<rect x="136.91" y="154.67" class="st6" width="12.41" height="12.41"/>
	<rect x="191.16" y="151.31" class="st1" width="93.25" height="64.55"/>
	<rect x="191.16" y="151.31" class="st17" width="93.25" height="64.55"/>
	<rect x="191.16" y="151.31" class="st18" width="43.27" height="64.55"/>
	<path class="st6" d="M224.94,202.21h5.41c0.51,0,0.92,0.41,0.92,0.92v7.39c0,0.51-0.41,0.92-0.92,0.92h-5.41
		c-0.51,0-0.92-0.41-0.92-0.92v-7.39C224.02,202.63,224.43,202.21,224.94,202.21z"/>
	<path class="st6" d="M215.18,202.21h5.41c0.51,0,0.92,0.41,0.92,0.92v7.39c0,0.51-0.41,0.92-0.92,0.92h-5.41
		c-0.51,0-0.92-0.41-0.92-0.92v-7.39C214.26,202.63,214.67,202.21,215.18,202.21z"/>
	<rect x="259.09" y="151.31" class="st19" width="5.27" height="6.73"/>
	<rect x="242.47" y="178.87" class="st6" width="36.3" height="8.44"/>
	<rect x="193.99" y="154.67" class="st6" width="12.41" height="12.41"/>
	<rect x="158.91" y="86.76" class="st1" width="93.25" height="64.55"/>
	<rect x="158.91" y="86.76" class="st18" width="43.27" height="64.55"/>
	<path class="st6" d="M192.68,137.66h5.41c0.51,0,0.92,0.41,0.92,0.92v7.39c0,0.51-0.41,0.92-0.92,0.92h-5.41
		c-0.51,0-0.92-0.41-0.92-0.92v-7.39C191.76,138.08,192.17,137.66,192.68,137.66z"/>
	<path class="st6" d="M182.93,137.66h5.41c0.51,0,0.92,0.41,0.92,0.92v7.39c0,0.51-0.41,0.92-0.92,0.92h-5.41
		c-0.51,0-0.92-0.41-0.92-0.92v-7.39C182.01,138.08,182.42,137.66,182.93,137.66z"/>
	<rect x="226.84" y="86.76" class="st19" width="5.27" height="6.73"/>
	<rect x="210.22" y="114.32" class="st6" width="36.3" height="8.44"/>
	<rect x="161.73" y="90.12" class="st6" width="12.41" height="12.41"/>
	<rect x="183.9" y="215.86" class="st3" width="93.25" height="64.55"/>
	<rect x="183.9" y="215.86" class="st18" width="93.25" height="64.55"/>
	<rect x="183.9" y="215.86" class="st18" width="43.27" height="64.55"/>
	<path class="st6" d="M217.67,266.76h5.41c0.51,0,0.92,0.41,0.92,0.92v7.39c0,0.51-0.41,0.92-0.92,0.92h-5.41
		c-0.51,0-0.92-0.41-0.92-0.92v-7.39C216.75,267.18,217.16,266.76,217.67,266.76z"/>
	<path class="st6" d="M207.91,266.76h5.41c0.51,0,0.92,0.41,0.92,0.92v7.39c0,0.51-0.41,0.92-0.92,0.92h-5.41
		c-0.51,0-0.92-0.41-0.92-0.92v-7.39C206.99,267.18,207.4,266.76,207.91,266.76z"/>
	<rect x="251.83" y="215.86" class="st19" width="5.27" height="6.73"/>
	<rect x="235.21" y="243.42" class="st6" width="36.3" height="8.44"/>
	<rect x="186.72" y="219.22" class="st6" width="12.41" height="12.41"/>
</g>
</svg>
