<?xml version="1.0" encoding="utf-8"?>
<!-- Generator: Adobe Illustrator 24.1.3, SVG Export Plug-In . SVG Version: 6.00 Build 0)  -->
<svg version="1.1" id="Layer_1" xmlns="http://www.w3.org/2000/svg" xmlns:xlink="http://www.w3.org/1999/xlink" x="0px" y="0px"
	 viewBox="0 0 500 375" style="enable-background:new 0 0 500 375;" xml:space="preserve">
<style type="text/css">
	.st0{fill:#EBEBEB;}
	.st1{fill:#F0F0F0;}
	.st2{fill:#F5F5F5;}
	.st3{fill:#E6E6E6;}
	.st4{fill:#E0E0E0;}
	.st5{fill:#FAFAFA;}
	.st6{fill:#FFFFFF;}
	.st7{fill:#407BFF;}
	.st8{opacity:0.2;enable-background:new    ;}
	.st9{opacity:0.9;fill:#FFFFFF;enable-background:new    ;}
	.st10{opacity:0.4;}
	.st11{opacity:0.4;fill:#407BFF;enable-background:new    ;}
	.st12{opacity:0.1;fill:#263238;enable-background:new    ;}
	.st13{opacity:0.2;fill:#FFFFFF;enable-background:new    ;}
	.st14{fill:#FF8B7B;}
	.st15{fill:#263238;}
	.st16{fill:#FF5652;}
	.st17{opacity:0.4;fill:#FFFFFF;enable-background:new    ;}
	.st18{opacity:0.3;enable-background:new    ;}
</style>
<g id="freepik--background-complete--inject-346">
	<rect x="0.07" y="328.17" class="st0" width="500" height="0.25"/>
	<rect x="416.85" y="344.26" class="st0" width="33.12" height="0.25"/>
	<rect x="333.45" y="344.26" class="st0" width="70.81" height="0.25"/>
	<rect x="275.21" y="334.98" class="st0" width="19.19" height="0.25"/>
	<rect x="52.53" y="336.66" class="st0" width="34.29" height="0.25"/>
	<rect x="95.72" y="336.66" class="st0" width="62.35" height="0.25"/>
	<rect x="188.4" y="340.88" class="st0" width="36.81" height="0.25"/>
	<path class="st0" d="M237.07,283.57H43.98c-3.15-0.01-5.7-2.56-5.7-5.71V6.43c0.03-3.13,2.57-5.65,5.7-5.66h193.09
		c3.15,0,5.71,2.56,5.71,5.71c0,0,0,0,0,0v271.38C242.78,281.02,240.22,283.57,237.07,283.57z M43.98,0.97
		c-3.01,0.01-5.45,2.45-5.45,5.46v271.43c0,3.01,2.44,5.45,5.45,5.46h193.09c3.01-0.01,5.45-2.45,5.46-5.46V6.43
		c-0.01-3.01-2.45-5.45-5.46-5.46H43.98z"/>
	<path class="st0" d="M453.38,283.57h-193.1c-3.15-0.01-5.7-2.56-5.71-5.71V6.43c0.03-3.13,2.58-5.65,5.71-5.66h193.1
		c3.13,0.01,5.66,2.53,5.69,5.66v271.43C459.07,281.01,456.52,283.56,453.38,283.57z M260.28,0.97c-3.01,0.01-5.45,2.45-5.46,5.46
		v271.43c0.01,3.01,2.45,5.45,5.46,5.46h193.1c3.01-0.01,5.45-2.45,5.46-5.46V6.43c-0.01-3.01-2.45-5.45-5.46-5.46H260.28z"/>
	<rect x="337.06" y="187.98" class="st1" width="18.51" height="134.57"/>
	<rect x="148.12" y="322.55" class="st1" width="203.9" height="5.61"/>
	<rect x="144.56" y="187.99" class="st2" width="192.5" height="134.57"/>
	<rect x="337.06" y="183.09" class="st3" width="18.51" height="4.9"/>
	<rect x="144.56" y="183.09" class="st1" width="192.5" height="4.9"/>
	<path class="st4" d="M330.41,228.57H151.22v-30.3h179.19V228.57z M152.46,227.32h176.71v-27.8H152.46V227.32z"/>
	<path class="st4" d="M330.41,312.27H151.22V236h179.19V312.27z M152.46,311.03h176.71v-73.79H152.46V311.03z"/>
	<rect x="175.36" y="198.9" class="st4" width="130.91" height="3.98"/>
	<rect x="175.36" y="236.62" class="st4" width="130.91" height="3.98"/>
	<path class="st2" d="M420.97,324.6L420.97,324.6c-0.82-0.01-1.48-0.67-1.48-1.49V92.03c0-0.82,0.66-1.48,1.48-1.48l0,0l0,0
		c0.82,0,1.48,0.66,1.48,1.48l0,0v231.08C422.45,323.93,421.79,324.6,420.97,324.6z"/>
	<path class="st1" d="M417.99,321.02h6c2.24,0,4.06,1.82,4.06,4.06v3.08l0,0h-14.12l0,0v-3.08
		C413.93,322.84,415.75,321.02,417.99,321.02L417.99,321.02z"/>
	<path class="st4" d="M392.21,122.77c0,0,0.73-28.28,28.76-28.28s28.77,28.28,28.77,28.28H392.21z"/>
	<path class="st2" d="M79.17,324.6L79.17,324.6c-0.82,0-1.49-0.67-1.49-1.49V92.03c0.01-0.82,0.67-1.48,1.49-1.48l0,0
		c0.82,0,1.48,0.66,1.48,1.48v231.08C80.65,323.93,79.99,324.6,79.17,324.6z"/>
	<path class="st1" d="M76.19,321.02h6c2.24,0,4.06,1.82,4.06,4.06v3.08l0,0H72.13l0,0v-3.08C72.13,322.84,73.95,321.02,76.19,321.02
		L76.19,321.02z"/>
	<path class="st4" d="M50.4,122.77c0,0,0.73-28.28,28.77-28.28s28.76,28.28,28.76,28.28H50.4z"/>
	<rect x="214.98" y="180.97" class="st4" width="71.14" height="2.12"/>
	<polygon class="st4" points="286.12,180.97 214.98,180.97 221.82,140.24 292.96,140.24 	"/>
	<polygon class="st0" points="284.8,180.97 213.66,180.97 220.5,140.24 291.64,140.24 	"/>
	<path class="st5" d="M216.36,177.77l5.82-34.63c0.07-0.44,0.45-0.77,0.9-0.76h65c0.5,0,0.91,0.4,0.91,0.91c0,0.05,0,0.1-0.01,0.15
		l-5.82,34.63c-0.07,0.44-0.45,0.77-0.9,0.77h-65c-0.5,0-0.91-0.4-0.91-0.91C216.34,177.88,216.35,177.83,216.36,177.77z"/>
	<rect x="198.88" y="180.97" class="st1" width="71.14" height="2.12"/>
	<rect x="154.48" y="33.53" class="st0" width="188.48" height="60.92"/>
	<rect x="342.96" y="33.52" class="st4" width="2.7" height="60.92"/>
	<rect x="162.73" y="41.78" class="st6" width="171.97" height="44.41"/>
	
		<rect x="241.4" y="56.67" transform="matrix(0.7071 -0.7071 0.7071 0.7071 27.6011 194.6113)" class="st2" width="14.64" height="14.64"/>
	
		<rect x="213.61" y="56.67" transform="matrix(0.7071 -0.7071 0.7071 0.7071 19.4618 174.9603)" class="st2" width="14.64" height="14.64"/>
	
		<rect x="185.82" y="56.67" transform="matrix(0.7071 -0.7071 0.7071 0.7071 11.3225 155.3093)" class="st2" width="14.64" height="14.64"/>
	
		<rect x="269.19" y="56.67" transform="matrix(0.7071 -0.7071 0.7071 0.7071 35.7404 214.2623)" class="st2" width="14.64" height="14.64"/>
	
		<rect x="296.98" y="56.67" transform="matrix(0.7071 -0.7071 0.7071 0.7071 43.8797 233.9133)" class="st2" width="14.64" height="14.64"/>
</g>
<g id="freepik--Shadow--inject-346">
	<ellipse id="freepik--path--inject-346" class="st2" cx="250.07" cy="362.01" rx="193.89" ry="11.32"/>
</g>
<g id="freepik--Calculator--inject-346">
	<path class="st7" d="M363.01,68.82c0.36-4.59-3.06-8.61-7.65-8.97c-0.26-0.02-0.51-0.03-0.77-0.03H216.16
		c-5.05,0.07-9.21,3.97-9.61,9l-3.18,47.95l-19.93,147.41c-0.73,4.18,2.08,8.16,6.26,8.89c0.5,0.09,1.01,0.12,1.53,0.11h138.44
		c5.14-0.14,9.44-3.92,10.23-9l19.93-147.41L363.01,68.82z"/>
	<path class="st8" d="M363.01,68.82c0.36-4.59-3.06-8.61-7.65-8.97c-0.26-0.02-0.51-0.03-0.77-0.03H216.16
		c-5.05,0.07-9.21,3.97-9.61,9l-3.18,47.95l-19.93,147.41c-0.73,4.18,2.08,8.16,6.26,8.89c0.5,0.09,1.01,0.12,1.53,0.11h138.44
		c5.14-0.14,9.44-3.92,10.23-9l19.93-147.41L363.01,68.82z"/>
	<path class="st7" d="M324.74,273.19H186.3c-4.25,0.11-7.79-3.25-7.9-7.5c-0.01-0.5,0.02-1.01,0.11-1.5l19.93-147.42H354.9
		l-19.93,147.41C334.18,269.26,329.88,273.05,324.74,273.19z"/>
	<rect x="216.12" y="56.3" class="st7" width="20.62" height="1"/>
	<path class="st7" d="M206.37,58.37l-0.42-0.91c1.66-0.76,3.46-1.16,5.28-1.16v1C209.55,57.3,207.89,57.67,206.37,58.37z"/>
	<path class="st7" d="M349.67,59.77H211.23c-5.05,0.07-9.21,3.97-9.61,9l-3.18,48H354.9l3.17-47.95c0.4-4.58-2.99-8.62-7.58-9.02
		C350.22,59.78,349.94,59.77,349.67,59.77z"/>
	<path class="st9" d="M206.17,105.03l2.22-33.53c0.21-2.65,2.4-4.7,5.06-4.74h133.07c2.42-0.04,4.41,1.9,4.44,4.31
		c0,0.14,0,0.28-0.01,0.43l-2.22,33.53c-0.22,2.65-2.4,4.7-5.06,4.74H210.6c-2.42,0.03-4.41-1.91-4.44-4.34
		C206.15,105.3,206.16,105.17,206.17,105.03z"/>
	<g class="st10">
		<path class="st7" d="M336.93,72.25l-1.51,1.41c-0.07,0.07-0.18,0.11-0.28,0.11h-8c-0.11,0-0.22-0.04-0.3-0.13l-1.3-1.4
			c-0.15-0.17-0.15-0.42,0.02-0.58c0.08-0.07,0.18-0.11,0.28-0.11h10.83c0.22,0,0.4,0.18,0.4,0.4
			C337.06,72.07,337.01,72.18,336.93,72.25z"/>
		<path class="st7" d="M334.81,98.24h-10.83c-0.23,0-0.41-0.18-0.41-0.41c0-0.11,0.05-0.22,0.13-0.3l1.5-1.4
			c0.08-0.07,0.18-0.11,0.28-0.11h8c0.12,0,0.23,0.05,0.3,0.14l1.31,1.4c0.15,0.17,0.13,0.43-0.04,0.58
			C334.98,98.2,334.9,98.24,334.81,98.24z"/>
		<path class="st7" d="M335.86,85.17l-0.77,0.73c-0.08,0.07-0.18,0.11-0.28,0.11h-9.39c-0.23,0-0.41-0.19-0.4-0.42
			c0-0.01,0-0.01,0-0.02l0.1-1.41c0.02-0.21,0.19-0.38,0.41-0.38h9.42c0.11,0,0.22,0.05,0.3,0.13l0.64,0.69
			C336.04,84.76,336.03,85.02,335.86,85.17C335.86,85.17,335.86,85.17,335.86,85.17z"/>
		<path class="st7" d="M337.14,85.94l-0.79,10.83c-0.02,0.23-0.22,0.39-0.45,0.37c-0.1-0.01-0.2-0.06-0.26-0.13l-1.29-1.4
			c-0.08-0.08-0.12-0.2-0.11-0.31l0.59-8.05c0-0.1,0.05-0.2,0.13-0.27l1.5-1.4c0.17-0.15,0.43-0.14,0.58,0.03
			C337.12,85.7,337.16,85.82,337.14,85.94z"/>
		<path class="st7" d="M338.07,73.09l-0.79,10.86c-0.02,0.23-0.21,0.4-0.44,0.38c-0.1-0.01-0.2-0.05-0.27-0.13l-1.3-1.41
			c-0.07-0.08-0.11-0.19-0.1-0.3l0.58-8.05c0.01-0.1,0.06-0.2,0.13-0.27l1.5-1.41c0.16-0.16,0.42-0.15,0.58,0.02
			C338.04,72.86,338.08,72.98,338.07,73.09z"/>
	</g>
	<path class="st11" d="M319.59,102.77L319.59,102.77c0.07-0.77,0.7-1.37,1.48-1.39h17c0.8-0.01,1.45,0.63,1.45,1.43
		c0,0.04,0,0.08,0,0.11l0,0c-0.07,0.78-0.71,1.38-1.49,1.39h-16.96c-0.78,0.04-1.45-0.57-1.48-1.35
		C319.58,102.9,319.58,102.83,319.59,102.77z"/>
	<path class="st11" d="M298.33,102.77L298.33,102.77c0.07-0.77,0.7-1.37,1.48-1.39h17c0.8-0.01,1.45,0.63,1.45,1.43
		c0,0.04,0,0.08,0,0.11l0,0c-0.07,0.78-0.71,1.38-1.49,1.39h-17c-0.78,0.01-1.43-0.61-1.44-1.39
		C298.32,102.87,298.33,102.82,298.33,102.77z"/>
	<path class="st11" d="M277.07,102.77L277.07,102.77c0.07-0.77,0.7-1.37,1.48-1.39h17c0.8,0,1.44,0.64,1.44,1.44
		c0,0.03,0,0.07,0,0.1l0,0c-0.06,0.78-0.71,1.38-1.49,1.39h-17c-0.78,0.01-1.43-0.62-1.44-1.4
		C277.06,102.86,277.07,102.82,277.07,102.77z"/>
	<path class="st11" d="M255.81,102.77L255.81,102.77c0.07-0.77,0.7-1.37,1.48-1.39h17c0.8,0,1.44,0.64,1.44,1.44
		c0,0.03,0,0.07,0,0.1l0,0c-0.06,0.78-0.71,1.38-1.49,1.39h-17c-0.78,0.01-1.43-0.62-1.44-1.4
		C255.8,102.86,255.81,102.82,255.81,102.77z"/>
	<path class="st12" d="M208.86,185.14l6.26-46.27c0.48-3.13,3.13-5.47,6.3-5.55h46.27c2.62-0.07,4.8,1.99,4.87,4.61
		c0.01,0.32-0.01,0.63-0.07,0.94l-6.26,46.27c-0.48,3.13-3.13,5.47-6.29,5.55h-46.28c-2.62,0.07-4.8-1.99-4.87-4.61
		C208.78,185.77,208.81,185.45,208.86,185.14z"/>
	<path class="st12" d="M274.78,185.14l6.29-46.27c0.48-3.13,3.13-5.47,6.3-5.55h46.27c2.61-0.08,4.79,1.97,4.87,4.59
		c0.01,0.32-0.01,0.65-0.07,0.96l-6.25,46.27c-0.49,3.13-3.14,5.46-6.3,5.55h-46.32c-2.61,0.07-4.79-1.98-4.86-4.6
		C274.7,185.78,274.72,185.46,274.78,185.14z"/>
	<path class="st12" d="M199.95,251.06l6.26-46.29c0.49-3.13,3.14-5.46,6.3-5.55h46.27c2.62-0.07,4.8,1.99,4.87,4.61
		c0.01,0.32-0.01,0.63-0.07,0.94l-6.26,46.28c-0.48,3.12-3.13,5.46-6.29,5.54h-46.28c-2.62,0.07-4.79-1.99-4.86-4.61
		C199.88,251.67,199.9,251.37,199.95,251.06z"/>
	<path class="st12" d="M265.87,251.06l6.25-46.29c0.49-3.13,3.14-5.46,6.3-5.55h46.27c2.62-0.07,4.8,1.99,4.87,4.61
		c0.01,0.32-0.01,0.63-0.07,0.94l-6.25,46.28c-0.49,3.12-3.14,5.45-6.3,5.54h-46.28c-2.61,0.07-4.79-1.99-4.86-4.6
		C265.79,251.68,265.82,251.37,265.87,251.06z"/>
	<path class="st7" d="M205.78,185.14l6.29-46.27c0.48-3.13,3.13-5.47,6.3-5.55h46.27c2.62-0.07,4.8,1.99,4.87,4.61
		c0.01,0.32-0.01,0.63-0.07,0.94l-6.26,46.27c-0.48,3.13-3.13,5.47-6.29,5.55h-46.31c-2.62,0.07-4.8-1.99-4.87-4.61
		C205.7,185.77,205.73,185.45,205.78,185.14z"/>
	<path class="st13" d="M205.78,185.14l6.29-46.27c0.48-3.13,3.13-5.47,6.3-5.55h46.27c2.62-0.07,4.8,1.99,4.87,4.61
		c0.01,0.32-0.01,0.63-0.07,0.94l-6.26,46.27c-0.48,3.13-3.13,5.47-6.29,5.55h-46.31c-2.62,0.07-4.8-1.99-4.87-4.61
		C205.7,185.77,205.73,185.45,205.78,185.14z"/>
	<path class="st7" d="M271.7,185.14l6.25-46.27c0.48-3.13,3.13-5.47,6.3-5.55h46.27c2.61-0.08,4.79,1.97,4.87,4.59
		c0.01,0.32-0.01,0.65-0.07,0.96l-6.25,46.27c-0.49,3.13-3.14,5.46-6.3,5.55h-46.28c-2.61,0.07-4.79-1.98-4.86-4.6
		C271.62,185.78,271.64,185.46,271.7,185.14z"/>
	<path class="st13" d="M271.7,185.14l6.25-46.27c0.48-3.13,3.13-5.47,6.3-5.55h46.27c2.61-0.08,4.79,1.97,4.87,4.59
		c0.01,0.32-0.01,0.65-0.07,0.96l-6.25,46.27c-0.49,3.13-3.14,5.46-6.3,5.55h-46.28c-2.61,0.07-4.79-1.98-4.86-4.6
		C271.62,185.78,271.64,185.46,271.7,185.14z"/>
	<path class="st7" d="M196.87,251.06l6.26-46.29c0.49-3.13,3.14-5.46,6.3-5.55h46.27c2.62-0.07,4.8,1.99,4.87,4.61
		c0.01,0.32-0.01,0.63-0.07,0.94l-6.26,46.28c-0.48,3.12-3.13,5.46-6.29,5.54h-46.28c-2.62,0.07-4.79-1.99-4.86-4.61
		C196.8,251.67,196.82,251.37,196.87,251.06z"/>
	<path class="st13" d="M196.87,251.06l6.26-46.29c0.49-3.13,3.14-5.46,6.3-5.55h46.27c2.62-0.07,4.8,1.99,4.87,4.61
		c0.01,0.32-0.01,0.63-0.07,0.94l-6.26,46.28c-0.48,3.12-3.13,5.46-6.29,5.54h-46.28c-2.62,0.07-4.79-1.99-4.86-4.61
		C196.8,251.67,196.82,251.37,196.87,251.06z"/>
	<path class="st7" d="M262.79,251.06l6.28-46.29c0.49-3.13,3.14-5.46,6.3-5.55h46.27c2.62-0.07,4.8,1.99,4.87,4.61
		c0.01,0.32-0.01,0.63-0.07,0.94l-6.25,46.28c-0.49,3.12-3.14,5.45-6.3,5.54h-46.31c-2.61,0.07-4.79-1.99-4.86-4.6
		C262.71,251.68,262.74,251.37,262.79,251.06z"/>
	<path class="st13" d="M262.79,251.06l6.28-46.29c0.49-3.13,3.14-5.46,6.3-5.55h46.27c2.62-0.07,4.8,1.99,4.87,4.61
		c0.01,0.32-0.01,0.63-0.07,0.94l-6.25,46.28c-0.49,3.12-3.14,5.45-6.3,5.54h-46.31c-2.61,0.07-4.79-1.99-4.86-4.6
		C262.71,251.68,262.74,251.37,262.79,251.06z"/>
	<path class="st6" d="M234.99,181.26L234.99,181.26c-2.63,0.06-4.81-2.02-4.87-4.65c-0.01-0.3,0.02-0.6,0.07-0.9l3.71-27.4
		c0.49-3.13,3.14-5.46,6.3-5.56l0,0c2.62-0.07,4.8,2.01,4.87,4.63c0.01,0.31-0.02,0.62-0.07,0.93l-3.7,27.4
		C240.81,178.84,238.15,181.17,234.99,181.26z"/>
	<path class="st6" d="M218.34,162.01L218.34,162.01c0.49-3.13,3.14-5.46,6.31-5.56h27.42c2.63-0.06,4.81,2.02,4.87,4.65
		c0.01,0.3-0.02,0.61-0.07,0.91l0,0c-0.49,3.12-3.14,5.45-6.3,5.55h-27.4c-2.63,0.08-4.82-1.99-4.89-4.62
		C218.27,162.63,218.29,162.32,218.34,162.01z"/>
	<path class="st6" d="M213.23,241.53L213.23,241.53c-1.87-2.16-1.39-5.69,1.06-7.85l22-19.38c2.45-2.16,6-2.16,7.85,0l0,0
		c1.87,2.16,1.39,5.7-1.06,7.86l-22,19.37C218.63,243.69,215.07,243.69,213.23,241.53z"/>
	<path class="st6" d="M216.91,214.3L216.91,214.3c2.45-2.16,6-2.16,7.86,0l16.75,19.38c1.87,2.16,1.39,5.69-1.06,7.85l0,0
		c-2.45,2.16-6,2.16-7.85,0l-16.76-19.37C213.98,220,214.46,216.46,216.91,214.3z"/>
	<path class="st6" d="M284.25,162.01L284.25,162.01c0.49-3.13,3.14-5.46,6.31-5.56h27.4c2.62-0.07,4.8,2.01,4.87,4.63
		c0.01,0.31-0.02,0.62-0.07,0.93l0,0c-0.49,3.12-3.14,5.45-6.3,5.55h-27.39c-2.63,0.07-4.81-2-4.88-4.63
		C284.18,162.62,284.2,162.32,284.25,162.01z"/>
	<path class="st6" d="M276.51,219.28L276.51,219.28c0.49-3.13,3.15-5.46,6.31-5.55h27.4c2.63-0.06,4.81,2.02,4.87,4.65
		c0.01,0.3-0.02,0.6-0.07,0.9l0,0c-0.49,3.13-3.14,5.46-6.3,5.56h-27.41c-2.63,0.06-4.81-2.02-4.87-4.65
		C276.44,219.89,276.46,219.58,276.51,219.28z"/>
	<path class="st6" d="M274.18,236.55L274.18,236.55c0.49-3.12,3.14-5.45,6.3-5.55h27.4c2.63-0.06,4.81,2.01,4.87,4.64
		c0.01,0.3-0.01,0.61-0.06,0.91l0,0c-0.49,3.13-3.14,5.46-6.31,5.56h-27.4c-2.62,0.07-4.8-2.01-4.87-4.63
		C274.1,237.17,274.13,236.86,274.18,236.55z"/>
</g>
<g id="freepik--Character--inject-346">
	<path class="st14" d="M133.43,125.47c-1.8,3.34-3.65,6.94-5.34,10.46c-1.69,3.52-3.32,7.11-4.72,10.7c-0.37,0.9-0.67,1.8-1,2.7
		c-0.18,0.46-0.28,0.95-0.3,1.44c-0.04,1.42,0.22,2.83,0.77,4.14c1.43,3.37,3.33,6.51,5.65,9.34l-3.41,4
		c-0.95-0.61-1.87-1.28-2.74-2c-0.88-0.69-1.72-1.43-2.51-2.21c-1.68-1.62-3.16-3.44-4.39-5.42c-1.43-2.28-2.33-4.85-2.62-7.52
		c-0.14-1.54-0.02-3.09,0.37-4.59c0.28-1,0.54-2.1,0.86-3.13c1.23-4.09,2.7-8.1,4.43-12c0.86-1.93,1.74-3.84,2.71-5.72
		s1.9-3.7,3.06-5.62L133.43,125.47z"/>
	<path class="st14" d="M127.07,163.1l5,1.32l-3.72,7.23c0,0-3.72-1.42-4.64-4.69L127.07,163.1z"/>
	<polygon class="st14" points="138.97,166.7 134.49,172.37 128.36,171.65 132.08,164.42 	"/>
	<path class="st15" d="M157.01,87.33c0.11,0.56,0.5,0.95,0.86,0.88s0.57-0.59,0.45-1.14s-0.5-1-0.86-0.88S156.89,86.77,157.01,87.33
		z"/>
	<path class="st16" d="M157.46,88.29c1.01,1.57,2.23,2.99,3.62,4.22c-0.67,0.69-1.6,1.06-2.56,1L157.46,88.29z"/>
	<path class="st15" d="M158.21,92.07c-1.63,0-3.25-1.78-3.74-4.22c-0.27-1.19-0.19-2.43,0.23-3.58c0.34-1.38,1.73-2.22,3.11-1.88
		c0.58,0.14,1.08,0.48,1.44,0.95c1.65,1.85,2.18,4.44,1.38,6.79c-0.29,0.94-1.05,1.66-2,1.9C158.49,92.06,158.35,92.07,158.21,92.07
		z M157.13,82.58c-0.13-0.01-0.27-0.01-0.4,0c-0.86,0.23-1.54,0.89-1.8,1.74c-0.4,1.1-0.47,2.3-0.22,3.44
		c0.51,2.53,2.25,4.32,3.89,4c0.86-0.23,1.54-0.89,1.8-1.74c0.77-2.25,0.26-4.74-1.32-6.52C158.58,82.95,157.88,82.61,157.13,82.58z
		"/>
	<path class="st14" d="M209.71,144.97l6.41-1.36l0.83,8.7c0,0-5.54,1.06-8.19-3.32L209.71,144.97z"/>
	<polygon class="st14" points="222.18,145.56 221.77,151.91 216.95,152.31 216.12,143.61 	"/>
	<path class="st15" d="M154.34,84.66c-0.08,0-0.16-0.03-0.22-0.09c-0.13-0.12-0.14-0.32-0.02-0.45c0.01-0.01,0.01-0.01,0.02-0.02
		c0.71-0.8,1.76-1.21,2.83-1.1c0.18,0.03,0.31,0.19,0.28,0.37c0,0,0,0.01,0,0.01c-0.04,0.18-0.21,0.3-0.39,0.28l0,0
		c-0.84-0.08-1.68,0.25-2.23,0.89C154.54,84.63,154.44,84.67,154.34,84.66z"/>
	<path class="st14" d="M141.57,97.45c1,5.15,1.62,12.28-2,15.71c0,0,1.4,5.22,11,5.22c10.52,0,5.06-4.58,5.06-4.58
		c-4.37-1.36-4.33-6.33-3.33-10.33L141.57,97.45z"/>
	<path class="st15" d="M152.37,111.91c2.36-1.7,5.85-3.69,6.58-1.61c0.44,1.25,0.62,7.36-1.81,6.9
		C153.55,116.53,152.37,111.91,152.37,111.91z"/>
	<path class="st7" d="M137.62,116.6c-0.94-1.32-0.9-5.51,0.1-6.25c1.61-1.19,8.51-1.47,17.81,0.67c-1,4.06,1.15,6.19,1.15,6.19
		L137.62,116.6z"/>
	<path class="st7" d="M106.36,354.01c0.57,0.2,1.2,0.17,1.75-0.1c0.22-0.19,0.29-0.51,0.16-0.77c-0.06-0.22-0.21-0.4-0.42-0.49
		c-1-0.46-3.14,0.43-3.23,0.47c-0.06,0.02-0.1,0.08-0.1,0.15c0,0.07,0.03,0.13,0.09,0.16C105.17,353.68,105.76,353.88,106.36,354.01
		z M107.51,352.88l0.19,0.07c0.12,0.05,0.22,0.15,0.26,0.28c0.09,0.3,0,0.4-0.06,0.43c-0.38,0.32-1.79,0-2.77-0.37
		C105.88,352.98,106.7,352.84,107.51,352.88z"/>
	<path class="st7" d="M104.65,353.44h0.08c0.8-0.24,2.5-1.45,2.52-2.24c0-0.26-0.18-0.48-0.43-0.54c-0.24-0.09-0.51-0.07-0.74,0.06
		c-0.94,0.48-1.53,2.42-1.55,2.51C104.5,353.32,104.56,353.42,104.65,353.44C104.65,353.44,104.65,353.44,104.65,353.44z
		 M106.65,350.95h0.07c0.21,0.07,0.21,0.17,0.21,0.22c0,0.47-1.14,1.42-2,1.8c0.21-0.78,0.66-1.48,1.28-2
		c0.14-0.06,0.29-0.07,0.43-0.02L106.65,350.95z"/>
	<path class="st7" d="M158.29,355.19c0.91,0,1.78-0.13,2.07-0.53c0.15-0.22,0.15-0.51,0-0.73c-0.12-0.2-0.31-0.34-0.53-0.39
		c-1.17-0.32-3.63,1.08-3.73,1.14c-0.06,0.03-0.1,0.1-0.09,0.17c0.01,0.07,0.07,0.13,0.14,0.14
		C156.86,355.12,157.57,355.19,158.29,355.19z M159.41,353.82c0.11-0.01,0.21-0.01,0.32,0c0.14,0.03,0.25,0.11,0.33,0.23
		c0.12,0.21,0.07,0.31,0,0.37c-0.33,0.46-2.11,0.47-3.41,0.28C157.5,354.23,158.44,353.94,159.41,353.82L159.41,353.82z"/>
	<path class="st7" d="M156.17,354.99h0.07c0.85-0.38,2.53-1.9,2.4-2.7c0-0.19-0.16-0.42-0.62-0.46c-0.34-0.04-0.67,0.06-0.93,0.28
		c-0.63,0.77-1.02,1.72-1.09,2.71c-0.01,0.09,0.07,0.17,0.16,0.18C156.16,355,156.17,355,156.17,354.99L156.17,354.99z
		 M157.88,352.14h0.1c0.3,0,0.32,0.14,0.33,0.18c0.08,0.48-1.07,1.68-1.93,2.2c0.08-0.8,0.4-1.56,0.93-2.17
		C157.47,352.21,157.67,352.14,157.88,352.14L157.88,352.14z"/>
	<polygon class="st14" points="148.43,354.83 155.47,354.83 156.17,338.54 149.13,338.54 	"/>
	<polygon class="st14" points="96.81,351.57 103.68,353.06 110.59,337.89 103.71,336.4 	"/>
	<path class="st15" d="M104.34,352.37l-7.72-1.67c-0.28-0.06-0.57,0.08-0.69,0.34l-2.68,5.82c-0.25,0.49-0.05,1.09,0.44,1.34
		c0.09,0.05,0.2,0.08,0.3,0.1c2.71,0.53,4.06,0.66,7.45,1.39c2.09,0.46,6.81,1.61,9.69,2.23s3.88-2.15,2.76-2.66
		c-5-2.31-7.16-4.34-8.52-6.23C105.12,352.69,104.75,352.46,104.34,352.37z"/>
	<path class="st15" d="M155.42,354.01h-7.68c-0.29,0-0.54,0.2-0.6,0.48l-1.39,6.28c-0.14,0.53,0.17,1.08,0.7,1.23
		c0.1,0.03,0.2,0.04,0.3,0.03c2.77-0.05,6.78-0.21,10.26-0.21c4.07,0,7.59,0.22,12.37,0.22c2.88,0,3.69-2.92,2.48-3.19
		c-5.51-1.2-10-1.33-14.75-4.26C156.61,354.25,156.03,354.04,155.42,354.01z"/>
	<path class="st7" d="M126.99,114.77c-6.59,1.51-12,18.34-12,18.34l13.24,10.09c3.42-3.65,5.83-8.13,7-13
		C137.49,121.36,133.73,113.21,126.99,114.77z"/>
	<path class="st17" d="M126.99,114.77c-6.59,1.51-12,18.34-12,18.34l13.24,10.09c3.42-3.65,5.83-8.13,7-13
		C137.49,121.36,133.73,113.21,126.99,114.77z"/>
	<path class="st14" d="M166.52,122.77l11.11,10.22c1.85,1.7,3.7,3.39,5.56,5.05s3.72,3.32,5.51,4.76l-1.55-0.83
		c0.86,0.32,1.76,0.63,2.71,0.88s1.93,0.46,2.94,0.66c2.08,0.38,4.17,0.65,6.28,0.81c2.15,0.18,4.35,0.3,6.56,0.36
		s4.5,0.11,6.67,0.12l1,5.18c-2.28,0.83-4.62,1.5-7,2c-2.38,0.51-4.79,0.88-7.22,1.1c-2.49,0.23-4.99,0.26-7.49,0.11
		c-2.65-0.15-5.28-0.61-7.83-1.35l-0.75-0.22l-0.79-0.61c-2.2-1.69-4.15-3.34-6.11-5s-3.86-3.38-5.76-5.09
		c-3.78-3.44-7.53-6.86-11.2-10.41L166.52,122.77z"/>
	<path class="st8" d="M132.64,127.13c-3.58,3.54-4.75,10-5,15.6l0.59,0.45c3.42-3.65,5.83-8.13,7-13c0.13-0.52,0.25-1,0.34-1.57
		L132.64,127.13z"/>
	<path class="st7" d="M168.65,121.77c1.44,7.6,2.34,23.21-1.84,54.11h-37.62c-0.26-5.77,3.37-33.95-2.2-61.16
		c4.16-0.8,8.37-1.33,12.6-1.59c5.33-0.31,10.67-0.31,16,0c1.76,0.16,3.49,0.42,5,0.69C164.66,114.55,167.87,117.71,168.65,121.77z"
		/>
	<path class="st17" d="M168.65,121.77c1.44,7.6,2.34,23.21-1.84,54.11h-37.62c-0.26-5.77,3.37-33.95-2.2-61.16
		c4.16-0.8,8.37-1.33,12.6-1.59c5.33-0.31,10.67-0.31,16,0c1.76,0.16,3.49,0.42,5,0.69C164.66,114.55,167.87,117.71,168.65,121.77z"
		/>
	<path class="st8" d="M162.89,133.04l6.8-1.63c0.21,4.12,0.23,9.22-0.08,15.53C166.48,143.38,162.49,137.82,162.89,133.04z"/>
	<polygon class="st8" points="156.17,338.54 155.81,346.94 148.77,346.94 149.13,338.54 	"/>
	<polygon class="st8" points="103.71,336.4 110.59,337.89 107.02,345.71 100.15,344.22 	"/>
	<path class="st14" d="M138.22,89.93c1.81,6.74,2.53,10.78,6.69,13.58c6.26,4.22,14-0.62,14.29-7.77c0.22-6.43-2.77-16.38-10-17.74
		c-5.17-1-10.17,2.39-11.16,7.55C137.76,87.01,137.82,88.51,138.22,89.93z"/>
	<path class="st15" d="M153.52,90.44c3.16-0.45,2.25-4.1,1.07-5.89c0,0,7-8.45-1.07-11.86s-6.12,1.91-6.12,1.91
		s-6.33-4.75-11.83-0.91s-0.75,5.5-0.75,5.5s-10,2.94-6,8c4,5.06,8.13,4.55,8.13,4.55s-8.29,3.27-2,6.94s8.65,3.83,8.65,3.83l0,0
		c3.47,0.43,6.75-1.7,7.76-5.05L153.52,90.44z"/>
	<path class="st14" d="M150.8,90.46c0.14,1.73,0.84,3.38,2,4.67c1.53,1.69,3.13,0.63,3.41-1.42c0.24-1.86-0.26-5-2.14-5.9
		S150.68,88.37,150.8,90.46z"/>
	<path class="st15" d="M153.47,175.91c0,0-8,53.75-12.37,73.89c-4.8,22.05-30.53,95-30.53,95l-12.59-2.73c0,0,18-59.46,22-90.29
		c3.1-23.68,9.19-75.89,9.19-75.89L153.47,175.91z"/>
	<path class="st7" d="M113.59,340.61l-2.35,4.56l-14.17-3.07l1.2-4.26L113.59,340.61z"/>
	<path class="st18" d="M148.42,195.06c-9.23,1.81-8.25,36.23-7.14,53.94c2.66-12.52,6.56-36.6,9.22-53.69
		C149.85,194.99,149.12,194.91,148.42,195.06z"/>
	<path class="st15" d="M166.81,175.91c0,0,1,52.59,0.21,74c-0.8,22.31-8.59,95.36-8.59,95.36h-11.92c0,0-0.43-71.75-1-93.66
		c-0.54-23.84-3.44-75.7-3.44-75.7H166.81z"/>
	<path class="st7" d="M160.72,340.57c0.06,0-0.67,4.94-0.67,4.94h-14.5l-0.39-4.41L160.72,340.57z"/>
	<path class="st7" d="M153.91,124.11c-3.38,9.09,16.44,19.8,16.44,19.8l8.58-11c0,0-5.73-11.39-12.75-16.53
		C157.5,110.01,156.47,117.19,153.91,124.11z"/>
	<path class="st17" d="M153.91,124.11c-3.38,9.09,16.44,19.8,16.44,19.8l8.58-11c0,0-5.73-11.39-12.75-16.53
		C157.5,110.01,156.47,117.19,153.91,124.11z"/>
	<ellipse class="st15" cx="210.83" cy="145.87" rx="2.46" ry="1.85"/>
	<path class="st15" d="M209.88,151.77c-0.15,0-0.29-0.06-0.39-0.18c-0.17-0.21-0.15-0.52,0.06-0.7c0.06-0.05,1.34-1.22,0.79-3.94
		c-0.05-0.27,0.12-0.52,0.38-0.58c0,0,0.01,0,0.01,0c0.27-0.06,0.53,0.12,0.59,0.39c0,0,0,0,0,0c0.68,3.33-1.05,4.83-1.12,4.89
		C210.11,151.73,210,151.77,209.88,151.77z"/>
	<path class="st17" d="M212.83,145.77c0,0.76-0.89,1.37-2,1.37s-2-0.61-2-1.37s0.89-1.36,2-1.36S212.83,144.98,212.83,145.77z"/>
	<path class="st7" d="M157.01,113.24c-4.6,3.29-12.57,16-14,23.51c-0.03,0.14-0.16,0.22-0.29,0.2c-0.07-0.01-0.13-0.06-0.17-0.12
		c-4.34-7.03-6.92-15.01-7.51-23.26c-0.01-0.14-0.13-0.24-0.27-0.23c0,0,0,0,0,0c-1.12,0.07-2.24,0.21-3.34,0.41
		c-0.11,0.03-0.19,0.13-0.19,0.25c0.54,10.31,4.21,20.2,10.52,28.37c0.03,0.05,0.03,0.11,0,0.16c-0.61,11.25,0.2,31.36,0.3,33.75
		c0.01,0.13,0.12,0.24,0.25,0.24h3c0.14,0,0.25-0.11,0.25-0.25c0,0,0-0.01,0-0.01c-0.14-2.3-1.08-19.77,0-34.1l0,0
		c1.69-10.66,11.8-25.07,15.35-27.92c0.11-0.08,0.13-0.23,0.05-0.34c-0.04-0.05-0.1-0.09-0.16-0.09c-1.5-0.33-3.22-0.54-3.63-0.58
		C157.12,113.22,157.06,113.22,157.01,113.24z"/>
</g>
</svg>
